<?xml version="1.0" encoding="utf-8"?>
<!-- Generator: Adobe Illustrator 23.1.0, SVG Export Plug-In . SVG Version: 6.00 Build 0)  -->
<svg version="1.1" id="Слой_1" xmlns="http://www.w3.org/2000/svg" xmlns:xlink="http://www.w3.org/1999/xlink" x="0px" y="0px"
	 viewBox="0 0 836.9 623.6" style="enable-background:new 0 0 836.9 623.6;" xml:space="preserve">
<g>
	<path d="M436.7,187.2c4.9,2.4,8.7-5.2,3.8-7.6C435.6,177.1,431.8,184.7,436.7,187.2z"/>
	<path d="M450.4,174.2c-4.9-2.4-8.7,5.2-3.8,7.6c0.2,0.1,0.4,0.1,0.6,0.2c-1.4,1.5-1.9,4.1-0.3,5.8c-4.5-1.4-7.7,5.6-3.1,7.9
		c4.4,2.2,7.8-3.6,5.1-6.6c4.5,1.4,7.7-5.6,3.1-7.9c-0.2-0.1-0.4-0.1-0.6-0.2c0.5-0.5,0.8-1.1,1-1.7c0.3,0.8,1,1.6,2,2.1
		c4.9,2.4,8.7-5.2,3.8-7.6c-2.7-1.3-5,0.4-5.8,2.5C452,175.4,451.4,174.7,450.4,174.2z"/>
	<path d="M436,192c-3.5-1.7-6.2,3.7-2.7,5.4C436.8,199.2,439.5,193.8,436,192z"/>
	<path d="M455.7,170.6c3.5,1.7,6.2-3.7,2.7-5.4C454.9,163.4,452.2,168.9,455.7,170.6z"/>
	<path d="M431.1,184.4c-3.5-1.7-6.2,3.7-2.7,5.4C431.9,191.6,434.6,186.2,431.1,184.4z"/>
	<path d="M420.2,188.8c-3.5-1.7-6.2,3.7-2.7,5.4C421,196,423.7,190.5,420.2,188.8z"/>
	<path d="M430.4,174.3c-3.5-1.7-6.2,3.7-2.7,5.4C431.3,181.4,434,176,430.4,174.3z"/>
	<path d="M439.6,169.9c-2.3,0.7-3.3,4.3-0.6,5.7c2.6,1.3,4.7-1.4,4.3-3.5c3.1-0.3,4.8-5.2,1.3-6.9
		C441.2,163.4,438.4,167.2,439.6,169.9z"/>
	<path d="M446.9,159.4c3.5,1.7,6.2-3.7,2.7-5.4C446.1,152.2,443.4,157.6,446.9,159.4z"/>
	<path d="M421.5,160.7c-3.5-1.7-6.2,3.7-2.7,5.4C422.3,167.9,425,162.4,421.5,160.7z"/>
	<path d="M438.3,155.2c3.5,1.7,6.2-3.7,2.7-5.4C437.5,148,434.8,153.5,438.3,155.2z"/>
	<path d="M799.3,222.7c-0.1-0.8-0.6-1.6-1.6-1.8c-7.4-1.7-12.4-7.7-17-13.4c-4.4-5.6-8.8-11.1-14.5-15.5c-6.1-4.6-13.2-8-20.7-9.8
		c-7.8-1.9-15.9-2-23.8-0.4c-3.9,0.8-7.7,2-11.4,3.6c-1.8,0.8-3.3,1.7-5.2,2.1c-1.9,0.4-4.9,1-6.8,0.4c-2.1-0.6-4.5-2.8-6.3-4
		c-11.6-7.8-22.4-16.6-33.4-25.2c-5.5-4.2-11-8.3-16.7-12.2c-0.1-0.1-0.1-0.1-0.2-0.2c-0.2-0.2-0.4-0.3-0.6-0.4
		c-5.9-4-12-7.8-18.3-11.3c3.1-1.5,6.5-2.3,10.1-2.6c7-0.5,14,0.8,20.9,2c5.9,1,10.4,4.2,15.4,7.3c4.4,2.8,9.2,5.1,14.1,6.9
		c14.2,5.2,29.7,6,44.1,1.1c14-4.7,26.3-13.8,34.7-26c1.3-1.9-1.3-4.4-3.1-3.1c-5.8,3.9-13.1,3.9-19.7,2.5c-6.8-1.5-13.3-4.4-20-6.2
		c-6.8-1.9-13.7-2.3-20.6-1.3c-7.1,1-13.9,3.4-20.4,6.5c-5.3,2.5-9.9,6.6-15.6,8.1c-3.1,0.8-5.9,0.1-9.1-0.5
		c-3.6-0.6-7.3-1.2-10.9-1.6c-8.4-0.9-17.5-0.5-24.7,4.3c-9-4.6-18.2-8.5-27.9-11c4.3-0.7,8.5-2.4,12.7-2.9c3.9-0.5,7.2,1,10.8,2.1
		c3.7,1.1,7.5,1.7,11.4,1.7c11.1,0,21.1-6.2,27.4-15.1c3.3-4.6,4.9-9.8,6.5-15.1c1.8-5.7,3.7-11.5,7-16.6c0.6-0.8,0.4-1.7,0-2.3
		c0-0.1-0.1-0.1-0.1-0.1c0,0,0,0,0-0.1c-0.7-0.9-2.1-1.4-3-0.7c-4.7,3.5-10.2,5.5-15.9,7c-10,2.6-20.8,3.8-29.7,9.5
		c-4.4,2.8-8.1,6.7-10.4,11.3c-1.2,2.4-1.9,5-2.1,7.6c-0.1,1.2,0.1,2.3-0.4,3.4c-2,4.3-9.5,4.7-13.6,5.5c-5.4,1-10.9,1.5-16.4,1.6
		c-1.2-2.9-3-5.7-5.4-8c-0.9-0.9-1.9-1.8-2.9-2.5c0.8-0.4,1.7-0.9,2.4-1.4c2.2,0.1,4.7,0.9,6.5,1.8c1.3,0.6,2.6,1.5,4.1,1.7
		c1.5,0.2,3.1-0.3,3.9-1.6c1.4-2.4-0.4-5.2-2.7-6.1c-1.6-0.7-3.5-0.8-5.3-0.8c1.6-1.4,3-2.9,4.5-4.4c1.3,0.1,2.5,0.6,3.8,0.9
		c2.1,0.5,5.1,1.2,6.6-0.9c1.6-2.1,0-4.7-2-5.8c-0.7-0.4-1.5-0.6-2.4-0.8c2.2-2.4,4.5-4.8,6.8-7.4c1.7,0.1,3.5,0.9,5,1.2
		c2.2,0.5,5.5,0.9,6.7-1.6c1.1-2.1-0.2-4.6-2.3-5.5c-1.3-0.6-2.7-0.6-4.1-0.4c1.5-2,2.9-4,4.2-6.1c1.8,0,3.6,0.5,5.4,0.7
		c2.3,0.2,5.4-0.2,6.2-2.9c0.6-2.1-0.8-4.4-2.8-5.2c-1.8-0.7-3.7-0.4-5.5,0.2c1.1-1,2.3-1.9,3.4-2.8c2-1.7,4.5-3.8,4.9-6.6
		c0.2-1.5-0.2-3-1.6-3.8c-1.2-0.7-2.7-0.6-3.9,0.1c-1.3,0.7-2.2,2-2.9,3.2c-0.8,1.3-1.5,2.7-2.2,4.1c-0.5,1.1-0.9,2.2-1.4,3.2
		c0-0.6,0-1.3-0.1-1.9c-0.1-1.5-0.3-3.2-1.2-4.4c-1.8-2.3-5-2-6.4,0.5c-1.5,2.7,0.3,5.6,1.7,7.9c0.8,1.3,1.4,2.8,1.4,4.4
		c0,0.4,0,0.7-0.1,1.1c-1.4,2.1-2.7,4.2-4.2,6.2c-0.1,0.1-0.2,0.3-0.3,0.4c0.2-2.1,0.1-4.4-1.1-6.2c-1.4-2.2-4.9-3.1-6.7-0.8
		c-2,2.6-0.3,5.6,1.4,7.8c0.8,1.1,1.7,2.2,1.8,3.6c0.1,0.5,0,1,0,1.5c-1.7,2.1-3.4,4.1-5.2,6.1c-0.7,0.8-1.5,1.6-2.2,2.5
		c0.5-2.5,0.5-5.3-0.8-7.4c-1.4-2.3-5.1-3.3-6.9-0.9c-0.9,1.1-1.1,2.5-0.8,3.9c0.3,1.6,1.2,2.9,1.7,4.4c0.9,2.3,0.8,4.8-0.1,7
		c-0.8,0.7-1.6,1.4-2.4,2.1c0.7-2.5,0.9-5.4-0.5-7.6c-0.3-0.5-0.6-0.8-1-1.2c1.4-2.9,1.3-6.4-0.4-9.3c-1.9-3.2-5.2-5-8.8-5.7
		c3.2-1.5,6.2-3.5,7.8-6.6c2.5-4.5,0.2-9.7-4.2-11.9c-5.1-2.6-11-0.7-15.9,1.6c-0.1,0-0.1,0.1-0.2,0.1c0.1-0.2,0.2-0.3,0.3-0.4
		c3.2-4.7,7.1-10.7,5.2-16.7c-1.7-5.2-7.2-7.4-12.1-5.2c-3.3,1.5-6,4.3-8.3,7.2c0.6-4.2,0.8-8.5-1.6-12.1c-2.9-4.2-9-5.5-13.4-3.2
		c-5.5,2.9-6.3,10-6.7,15.5c-0.1,2.3-0.1,4.6,0,6.8c-0.3-0.4-0.5-0.8-0.8-1.2c-3.1-4.6-6.9-10.2-12.4-12.2
		c-5.4-1.9-11.3,0.6-12.6,6.4c-1.1,4.9,1.1,9.3,3.9,13.1c-1-1-2.1-1.8-3.4-2.5c-3.2-1.7-6.7-2-9.8-0.3c1-0.5-4.7-7.5-5.1-7.9
		c-2.7-2.9-6-5.3-9.8-6.7c-8.2-3.1-17-0.4-24.4,3.5c-3.3,1.7-6.4,3.9-9.2,6.3c0,0-0.1,0-0.1,0c-6-5.2-14.5-6.3-22.2-4.1
		c-5.6,1.6-10.3,5-13.9,9.4c-4.1-8.6-8.3-17-12.8-25.4c-4.7-8.8-9.6-17.9-15.3-26.1c-4.5-6.4-11.2,4.1-13.9,7.7
		c-3.2,4.5-5.9,9.4-7.9,14.5c-3.9,10.1-5.6,21.1-4.7,31.8c0.5,6.8,2,13.2,4.2,19.3c-1.3,0-2.6,0-4,0.3c-2,0.4-3.7,1.2-5.3,2.3
		c0.2-1.1,0.2-2.2-0.1-3.3c-0.4-1.4-1.6-2.5-3-2.8c-1.6-0.3-3,0.8-3.8,2.1c-0.9,1.5-1.4,3.3-1.6,5.2c-0.7-2-1.4-4-2.1-6
		c0.1-0.3,0.2-0.5,0.4-0.8c0.9-1.3,2-2.4,3.4-3.1c1.3-0.7,2.6-1.2,3.5-2.3c0.8-1,1.3-2.3,1-3.5c-0.7-2.7-3.8-3.6-6.2-2.5
		c-1.9,0.9-3.3,2.7-4.2,4.7c-0.3-1.2-0.5-2.4-0.8-3.6c0.7-1.7,1.8-3.1,3.3-4.1c1.3-0.9,2.8-1.5,3.9-2.7c0.9-1,1.6-2.3,1.5-3.7
		c-0.2-3-3.7-4.3-6.2-3.2c-1.8,0.8-3.2,2.5-4.2,4.3c-0.6-3.5-1.2-7-1.7-10.5c0.2-0.2,0.3-0.5,0.5-0.7c0.9-1.1,2.2-1.5,3.5-2
		c2.6-0.9,5.7-2.4,5.6-5.7c-0.2-2.9-3.6-4.1-6-3.1c-1.9,0.8-3.3,2.5-4.3,4.4c-0.1-2.5-0.2-5-0.2-7.5c0.2-0.4,0.4-0.8,0.7-1.2
		c0.9-1.3,2.2-2.2,3.6-2.8c2.4-1.1,5.5-2.5,5.8-5.6c0.3-2.9-2.2-5-5-4.1c-1.5,0.5-2.5,1.8-3.5,3c-0.4,0.5-0.8,1-1.2,1.5
		c0.3-1.1,0.5-2.3,0.7-3.5c0.2-1.5,0.4-3.1,0.5-4.6c0.1-1.4,0.1-3-0.6-4.3c-0.6-1.2-1.8-2.1-3.2-2.3c-1.6-0.1-2.8,0.9-3.5,2.3
		c-1.2,2.5-0.4,5.7,0.3,8.2c0.4,1.4,0.9,2.8,1.2,4.2c-1.1-1.5-2.6-2.8-4.5-3.3c-2.1-0.5-4.5,0.6-5.2,2.7c-0.9,2.6,1.5,4.7,3.5,5.9
		c1.7,1,3.7,1.6,5.2,2.8c0.3,0.2,0.5,0.5,0.7,0.8c0,2.7,0.2,5.4,0.5,8.1c-1.3-1.7-3-3.3-5.2-3.7c-2.2-0.4-4.7,0.9-5,3.3
		c-0.4,2.8,2.5,4.2,4.6,5.1c1.8,0.7,4.4,1.1,5.8,2.6c0.4,0.4,0.6,0.9,0.8,1.3c0.3,2.2,0.6,4.4,0.9,6.6c0,0.7,0.1,1.8,0.3,2.2
		c0,0,0,0,0,0.1c-1.1-0.9-2.5-1.5-3.9-1.6c-2.3-0.2-5,1-4.9,3.7c0.1,2.5,2.9,3.7,4.9,4.4c2.1,0.8,4.5,1.1,5.5,3.4c0,0,0,0,0,0
		c0.3,1.8,0.7,3.7,1.1,5.6c-1.9-1.7-4.1-3.2-6.6-3.8c-2.4-0.5-5.5,0.8-5.7,3.6c-0.1,1.6,0.9,2.9,2.3,3.6c1.4,0.7,2.9,0.6,4.4,0.9
		c2.4,0.4,5.4,1.3,7.4,2.9c1.4,4.6,3.2,9,5.7,12.9c-0.2,0.3-0.4,0.6-0.6,0.9c-0.8-0.2-1.8-1-2.2-1.2c-1.3-0.7-2.8-1.4-4.3-1.5
		c-2.6-0.2-5.8,1.6-5.4,4.6c0.5,3.6,4.9,4,7.8,4.3c0.3,0,0.7,0.1,1,0.1c-0.9,2.6-1.5,5.3-1.3,7.9c0.1,1.5-3.5,3.4-4.4,4.1
		c-2.1,1.5-4,3.4-5.6,5.4c-3.2-3.7-6.1-7.6-8.9-11.6c-2.6-3.8-4.9-7.5-3.3-12.2c0.8-2.4,1.3-4.9,1.5-7.5c0.4-5.1-0.5-10.3-2.4-15.1
		c-3.3-8.5-9.3-15.4-16.4-21c-4.1-3.2-8.4-6.1-12.9-8.7c-0.8-0.5-1.6-0.4-2.2,0c-0.7,0.3-1.3,1-1.2,2c0.3,9.6-2.2,19.1-0.7,28.7
		c1.4,9,5.9,17.7,13.8,22.7c4.9,3.1,10.9,3,15.5,7.1c2.4,2.2,4,5.7,5.9,8.3c2.2,3.2,4.6,6.2,7.1,9.2c-11.3,0.9-22.7,1.2-34,2.6
		c-0.2-0.1-0.5-0.1-0.8-0.1c-5.6,0-11.2-0.6-16.8-1.6c-4.1-0.8-11.5-1.1-13.6-5.5c-0.5-1-0.3-2.2-0.4-3.4c-0.2-2.6-1-5.2-2.1-7.6
		c-2.3-4.7-6-8.6-10.4-11.3c-9-5.7-19.7-6.8-29.7-9.5c-5.7-1.5-11.1-3.5-15.9-7c-0.9-0.7-2.4-0.2-3,0.7c0,0,0,0,0,0.1
		c0,0-0.1,0.1-0.1,0.1c-0.4,0.6-0.5,1.4,0,2.3c3.3,5.1,5.2,10.8,7,16.6c1.7,5.3,3.3,10.5,6.5,15.1c6.3,8.9,16.3,15.2,27.4,15.1
		c3.9,0,7.7-0.7,11.4-1.7c3.6-1.1,7-2.5,10.8-2.1c4.2,0.5,8.5,2.2,12.7,2.9c-9.7,2.6-18.9,6.4-27.9,11c-7.2-4.8-16.3-5.2-24.7-4.3
		c-3.7,0.4-7.3,1-10.9,1.6c-3.1,0.5-5.9,1.2-9.1,0.5c-5.8-1.4-10.4-5.5-15.6-8.1c-6.4-3.1-13.3-5.5-20.4-6.5c-7-1-13.8-0.6-20.6,1.3
		c-6.7,1.9-13.2,4.7-20,6.2c-6.6,1.4-13.9,1.4-19.7-2.5c-1.9-1.2-4.4,1.3-3.1,3.1c8.4,12.1,20.7,21.3,34.7,26
		c14.4,4.8,29.9,4.1,44.1-1.1c4.9-1.8,9.7-4.1,14.1-6.9c5-3.1,9.5-6.3,15.4-7.3c6.9-1.2,13.8-2.5,20.9-2c3.5,0.2,7,1,10.1,2.6
		c-6.3,3.5-12.4,7.3-18.3,11.3c-0.2,0.1-0.4,0.2-0.6,0.4c-0.1,0.1-0.1,0.1-0.2,0.2c-5.7,3.9-11.3,8-16.7,12.2
		c-11,8.5-21.8,17.4-33.4,25.2c-1.8,1.2-4.2,3.4-6.3,4c-1.9,0.6-4.9-0.1-6.8-0.4c-1.9-0.4-3.4-1.3-5.2-2.1
		c-3.7-1.6-7.5-2.8-11.4-3.6c-7.8-1.6-16-1.5-23.8,0.4c-7.5,1.8-14.6,5.2-20.7,9.8c-5.8,4.4-10.1,9.8-14.5,15.5
		c-4.5,5.7-9.5,11.8-17,13.4c-1.1,0.2-1.6,1-1.6,1.8c-0.1,0.9,0.2,2,1.1,2.3c15.6,7,32.7,9.9,49.7,8.6c15.2-1.2,32.6-5.2,42.6-17.8
		c2.8-3.6,5-7.7,6.1-12.1c1-3.9,1.6-7.8,3.8-11.2c2.3-3.5,7.5-5.7,10.9-8.1c8-5.6,15.8-11.7,23.5-17.8c3.7-2.9,7.3-5.7,11.1-8.5
		c-3.2,7.5-3.9,15.6-4.8,23.6c-0.7,6.7-4.4,11.3-9.6,15.3c-4.1,3.1-8.5,5.9-12,9.7c-7.4,8-11.5,19.2-10.6,30.1
		c0.5,6.6,3.2,13.8,0.4,20.2c-0.2,0.5-0.3,1-0.2,1.4c-0.4,1.6,1.4,3.7,3.4,2.7c11.7-5.8,23.8-11.9,32.4-22c3.9-4.6,7.1-9.9,8.7-15.7
		c1.7-5.9,1.5-12,0.3-17.9c-1-4.5-2.5-8.9-4.6-13.1c-4.5-9.3-3.4-19.7-0.3-29.3c1.7-5.1,4.5-9.6,8.5-13.2c4.4-3,8.8-5.8,13.4-8.5
		c12.7-7.5,26.1-13.9,40.6-17.1c5.3-1.1,10.6-1.9,15.9-2.4c-1.7,0-4.7,2.1-6.3,3c-2,1.1-4,2.2-6,3.4c-3.8,2.4-7,5.6-10.9,7.8
		c-2.1,1.2-4.6,0.4-6.9,0.6c-2.5,0.2-4.9,0.7-7.3,1.5c-4.5,1.5-8.7,4-12.3,7.2c-7.1,6.4-10.4,16.4-8.9,25.8
		c0.8,4.7,3.5,11.3-0.5,15.4c-1.4,1.4-0.4,3.9,1.6,3.9c5.2,0,10.3-1.1,15-3.1c-1.3,2.3,0.4,5,2.5,6c2.4,1.1,5.2,1.2,7.8,0.9
		c-0.3,0.2-0.6,0.5-0.9,0.7c-1.6,1.2-3.2,2.4-4.8,3.6c-1.8,0.4-3.5-0.5-5.3-1c-2.1-0.6-5-1.4-6.6,0.6c-1.6,2-0.2,4.7,1.7,5.9
		c0.8,0.5,1.7,0.8,2.6,0.9c-2.4,2.2-4.7,4.6-7,7.1c-1.8-0.1-3.7-1-5.3-1.5c-2.2-0.6-5.4-1.1-6.7,1.3c-1.2,2.1,0,4.6,2,5.6
		c1.5,0.8,3.3,0.8,5,0.5c-1.5,1.9-2.9,3.9-4.3,5.9c-0.2,0-0.4,0.1-0.6,0.1c-2,0-3.9-0.7-5.9-0.9c-2.3-0.3-5.4,0-6.3,2.6
		c-0.7,2.1,0.6,4.4,2.6,5.3c1.8,0.8,3.7,0.6,5.5,0.1c-1.2,0.9-2.4,1.8-3.5,2.6c-2.1,1.6-4.6,3.6-5.2,6.4c-0.3,1.5,0.1,3.1,1.4,3.9
		c1.2,0.7,2.7,0.7,3.9,0.1c1.3-0.6,2.3-1.9,3.1-3.1c0.9-1.3,1.7-2.6,2.4-4c0.5-1,1-2.1,1.5-3.2c0,0.6,0,1.3,0,1.9
		c0,1.5,0.1,3.2,1,4.5c1.7,2.4,4.9,2.2,6.4-0.3c1.6-2.6,0-5.6-1.3-8c-0.7-1.4-1.2-2.9-1.2-4.4c0-0.2,0-0.5,0.1-0.7
		c1.6-2.1,3.2-4.1,4.8-6.1c-0.2,2-0.1,4,0.9,5.6c1.3,2.2,4.8,3.3,6.6,1.1c2.1-2.5,0.5-5.6-1-7.9c-0.8-1.1-1.5-2.3-1.6-3.7
		c0-0.3,0-0.6,0-0.8c2.1-2.3,4.2-4.5,6.5-6.7c0.4-0.4,0.8-0.7,1.1-1c-0.4,2.1-0.3,4.4,0.7,6.2c0.3,0.5,0.7,0.9,1.1,1.3
		c-0.7,1.6-0.9,3.4-0.3,5.5c1.4,4.6,5.7,7.1,10,8.8c-3.6,0.7-7.1,1.8-10.1,3.7c-2.4,1.5-4.4,3.9-4.5,6.8c-0.1,2.6,1.4,4.8,3.5,6.3
		c3.8,2.6,8.9,3,13.6,2.6c-2.6,2.3-4.9,5.3-5,8.9c-0.1,4.5,3.4,7.9,7.8,7.9c4.4,0,9.1-1.9,12.9-4c-2,3.9-3.3,8.2-1.5,12.5
		c2,4.7,6.9,6.4,11.7,5.5c4.2-0.8,7.4-4,9.6-7.5c0.7-1,1.2-2.1,1.7-3.3c0,0.1,0,0.2,0.1,0.3c1.1,5.1,2.7,10.7,7.3,13.7
		c4.3,2.8,10.2,2.4,13.2-2.1c3.3-4.8,1.4-11.3,0.1-16.5c-0.5-1.7-1-3.5-1.5-5.2c0.4,0.3,0.8,0.6,1.2,0.9c2.1,1.6,4.5,3.2,7.1,4.3
		c1.3,5.9,4.2,11.5,8.3,16.1c7,7.7,17.6,11.5,27.9,10.5c5.1-0.5,10-2,14.4-4.6c5.1,5.8,13.8,6.8,20.9,4.7
		c7.7-2.3,13.6-8.4,18.3-14.6c7.4-9.9,13.7-20.7,19.1-31.9c-0.3,5.1-0.3,10.1,0.3,15.3c0.7,6.4,1.9,12.8,3.8,19
		c1.8,5.7,4.2,11.6,8.4,15.9c2,2,4.6,3.6,7.4,3.9c3.1,0.4,5.9-0.4,8.6-1.8c3.8,3.1,7.5,6.3,11.7,8.9c4.7,2.9,10,4.4,15.5,4.6
		c8.6,0.4,17.5-3,22.7-10c7.2,1.9,14.9,1.1,21.6-2.4c7.6-4,13-11.7,14.6-20c6.1-1.7,10-7.5,10.7-13.8c4,1.7,8.1,3.4,12.1,5
		c6.8,2.7,13.6,5.1,20.5,7.4c3.5,1.2,9,4.8,12.8,3.4c3.3-1.3,1.4-9.7,1.1-12.3c-0.8-5.8-1.1-11.3-2.8-17
		c-3.3-11.2-9.5-21.6-17.8-29.9c-3.2-3.2-6.5-6-10.1-8.5c4.6-1.7,8.8-4.2,12.2-7.6c0,0,0,0.1,0,0.1c0.6,1.2,1.9,2.1,3.3,2.1
		c1.4,0,2.7-1,3.4-2.2c0.6-1,1-2.3,1.4-3.5c0,2.7-0.1,5.9,1.7,8c0.9,1.1,2.4,1.7,3.9,1.4c1.6-0.4,2.5-1.9,2.6-3.5
		c0.1-1.2,0-2.5-0.2-3.8c1.3,1.5,2.5,2.9,3.8,4.4c-0.3,1.4-0.9,2.6-1.7,3.7c-0.9,1.1-1.8,2.2-2.3,3.5c-0.4,1.2-0.3,2.6,0.5,3.6
		c1.7,2.2,4.9,1.8,6.7-0.1c1.2-1.3,1.7-3,1.9-4.7c0.7,0.9,1.4,1.9,2.2,2.8c-0.1,1.4-0.6,2.8-1.4,4c-0.9,1.3-2,2.5-2.5,4
		c-0.5,1.3-0.5,2.7,0.1,4c1.4,2.7,5.1,2.4,7,0.4c1.2-1.3,1.8-3.2,2.1-5c2,3,3.8,6,5.6,9.1c0,0,0,0.1,0,0.1c-0.4,1.3-1.4,2.3-2.5,3.2
		c-2.1,1.8-4.3,4.5-2.9,7.4c1.3,2.6,4.9,2.4,6.7,0.5c1.1-1.2,1.7-2.8,2-4.4c1.1,2.4,2.1,4.9,3.1,7.3c-0.4,1.4-1.1,2.7-2.1,3.8
		c-1.8,2-4.1,4.5-3.1,7.4c0.9,2.7,4,3.7,6.2,1.8c1.2-1,1.6-2.6,2-4.1c0.2-0.6,0.3-1.2,0.5-1.9c0.2,1.2,0.4,2.3,0.7,3.4
		c0.4,1.5,0.8,3,1.4,4.5c0.5,1.4,1.1,2.8,2.2,3.7c1.1,0.8,2.5,1.2,3.8,0.8c1.5-0.5,2.2-1.9,2.3-3.4c0.1-2.8-1.9-5.4-3.6-7.4
		c-0.9-1.1-1.9-2.2-2.8-3.3c0,0,0,0,0,0c1.6,0.9,3.5,1.5,5.3,1.2c2.1-0.4,3.9-2.4,3.7-4.6c-0.3-2.8-3.2-3.7-5.6-4
		c-1.7-0.2-3.5,0-5.2-0.3c-0.9-2.3-2-4.6-3.2-6.8c1.3,0.5,2.7,0.7,4.1,0.4c2.2-0.5,3.9-2.7,3.3-5c-0.7-2.7-4-2.9-6.3-2.8
		c-1.5,0-3.5,0.5-5.2,0.2c-1.7-2.9-3.5-5.8-5.4-8.5c0.9,0.1,1.8,0,2.6-0.3c2.2-0.7,4.2-2.9,3.1-5.3c-1.1-2.3-4.1-2.2-6.3-2.1
		c-1.6,0.1-3.3,0.5-4.8,0c-1.3-1.8-2.7-3.6-4-5.4c2.2,0.7,4.6,1,6.7,0.6c2.4-0.5,4.7-2.9,3.8-5.5c-0.5-1.5-2-2.3-3.5-2.4
		c-1.5-0.1-2.9,0.6-4.4,0.9c-2.2,0.5-5.2,0.9-7.6,0.4c-3.4-3.8-7-7.4-11-10.6c0.8-0.3,2.4,0.1,2.9,0.1c1.5,0.1,3.1,0.2,4.5-0.3
		c2.5-0.8,4.6-3.8,3.1-6.4c-1.9-3.1-6.1-1.7-8.8-0.8c-1.8,0.6-3.7,1.2-5.6,1.6c0.2-5.5-1.4-11.1-5-15.3c0.1-0.1,0.2-0.2,0.3-0.3
		c5.4-5.9,8.3-14.3,7.3-22.3c-0.9-7-4.4-13.5-9.8-18c0,0,0,0,0-0.1c3.4,1.9,6.9,4,9.8,6.5c2.5,2.2,2.6,5.1,2.4,8.2
		c-0.2,4.2,0,8.5,0.7,12.6c0.7,4.1,1.7,8.1,3.4,11.8c2.2,4.9,5.9,10,10.1,13.4c6.8,5.4,16.1,7.9,24.8,7.9c2,0,3-2.5,1.6-3.9
		c-4-4-1.2-10.6-0.5-15.4c1.5-9.4-1.8-19.4-8.9-25.8c-3.5-3.2-7.7-5.7-12.3-7.2c-2.4-0.8-4.8-1.3-7.3-1.5c-2.3-0.2-4.8,0.6-6.9-0.6
		c-3.8-2.2-7.1-5.4-10.9-7.8c-1.8-1.1-3.6-2.2-5.5-3.2c0-0.8,0-1.6-0.1-2.4c3.1,0.4,6.2,1,9.3,1.6c14.4,3.1,27.9,9.6,40.6,17.1
		c4.6,2.7,9,5.6,13.4,8.5c4,3.6,6.8,8,8.5,13.2c3.1,9.6,4.3,20.1-0.3,29.3c-2,4.2-3.6,8.6-4.6,13.1c-1.2,5.9-1.4,12,0.3,17.9
		c1.7,5.8,4.8,11.1,8.7,15.7c8.6,10.1,20.7,16.2,32.4,22c2,1,3.8-1.1,3.4-2.7c0-0.5,0-1-0.2-1.4c-2.8-6.5-0.1-13.6,0.4-20.2
		c0.8-10.9-3.2-22.1-10.6-30.1c-3.5-3.8-7.9-6.6-12-9.7c-5.2-4-8.9-8.6-9.6-15.3c-0.9-8-1.6-16.1-4.8-23.6c3.7,2.8,7.4,5.6,11.1,8.5
		c7.7,6.1,15.4,12.1,23.5,17.8c3.4,2.4,8.7,4.6,10.9,8.1c2.2,3.5,2.8,7.3,3.8,11.2c1.1,4.4,3.3,8.5,6.1,12.1
		c10,12.6,27.3,16.6,42.6,17.8c17,1.3,34.2-1.6,49.7-8.6C799,224.7,799.4,223.6,799.3,222.7z M695.9,131.3c-0.2-0.3-0.5-0.3-0.9-0.4
		c-4.3-0.6-8.8-0.3-13.1,0.3c-1.4,0.2-4.1,1.1-5.4,0.2c-4.2-3.2,5.7-6.5,7.3-7.2c6.1-2.6,12.6-4.5,19.3-5c7.1-0.4,13.8,1.1,20.5,3.4
		c5.1,1.7,10.2,3.5,15.5,4.6c2.3,0.5,10.5,0.9,7.8,5.7c-1,1.7-3.6,3.1-5.2,4.2c-11.4,7.7-25.1,11.8-38.8,10.8
		c-7.5-0.6-14.9-2.4-21.8-5.4c-1.7-0.7-8-2.7-5.4-5.5c1.4-1.5,4.2-1,6-1.2c4.2-0.5,8.9-1.5,12.9-3c0.4-0.1,0.7-0.3,1-0.5
		C696,132.1,696.1,131.6,695.9,131.3z M613.3,98c6-7.7,15.9-10.3,25-12.3c3.3-0.7,6.6-1.5,9.9-2.3c2.1-0.5,4.8-1.2,6.5,0.8
		c2,2.5-0.4,7.2-1.2,9.7c-1.2,3.6-2.6,7.1-4.7,10.3c-2.7,3.9-6.3,7.3-10.4,9.6c-3.7,2.2-8,3.3-12.3,3.4c-2.7,0.1-5.9,0.4-8.4-0.8
		c-3.8-1.7,0.2-4.4,2.2-5.6c3.3-1.9,5.6-4.3,7.9-7.4c0.3-0.4,0.5-0.7,0.6-1.2c0.1-0.4-0.1-0.9-0.4-1.2c-1.3-0.8-4.9,2.7-5.8,3.4
		c-2.3,1.5-4.8,3-7.5,3.6c-1.1,0.2-2.2,0.4-3.2,0.1C607.2,106.7,611.9,99.9,613.3,98z M292.6,80.5c-0.1,1.8,0,6.7-3,4.7
		c-2.1-1.4-2.6-4.9-3.5-7.1c-1.7-4.1-3.6-8-5.2-12.1c-0.1-0.2-0.2-0.4-0.4-0.6c-0.4-0.3-1-0.1-1.3,0.3C279,66,279,66.6,279,67
		c-0.1,3.5,1,6.8,1.9,10.2c0.6,2.2,2.2,6.2,1,8.4c-2.4,4.4-8-1.9-9.6-3.8c-2.4-2.8-4.1-6.1-5.2-9.6c-1.6-5.2-1.9-10.4-1.5-15.8
		c0.2-3.2,0-7.3,2.4-9.8c2.8-2.9,7.6,2.7,9.8,4.6c3.5,3,6.7,6.5,9.2,10.3C290.6,67,292.8,73.8,292.6,80.5z M231.5,107.8
		c-1,0.3-2.1,0.2-3.2-0.1c-2.7-0.6-5.2-2-7.5-3.6c-1-0.6-4.6-4.1-5.8-3.4c-0.4,0.2-0.5,0.7-0.4,1.2c0.1,0.4,0.3,0.8,0.6,1.2
		c2.2,3.2,4.6,5.5,7.9,7.4c2,1.2,6,3.8,2.2,5.6c-2.5,1.1-5.7,0.9-8.4,0.8c-4.3-0.2-8.6-1.3-12.3-3.4c-4.1-2.4-7.7-5.7-10.4-9.6
		c-2.2-3.1-3.5-6.7-4.7-10.3c-0.8-2.5-3.1-7.2-1.2-9.7c1.6-2,4.4-1.3,6.5-0.8c3.3,0.9,6.6,1.6,9.9,2.3c9.1,2,19,4.7,25,12.3
		C231,99.6,235.7,106.4,231.5,107.8z M161.7,142.3c-6.9,2.9-14.3,4.8-21.8,5.4c-13.8,1-27.4-3.1-38.8-10.8c-1.6-1.1-4.2-2.5-5.2-4.2
		c-2.7-4.7,5.5-5.2,7.8-5.7c5.3-1.1,10.4-2.9,15.5-4.6c6.7-2.3,13.4-3.8,20.5-3.4c6.6,0.4,13.2,2.3,19.3,5c1.6,0.7,11.5,4.1,7.3,7.2
		c-1.2,0.9-4,0-5.4-0.2c-4.2-0.6-8.8-0.9-13.1-0.3c-0.3,0-0.7,0.1-0.9,0.4c-0.2,0.3-0.1,0.8,0.1,1c0.3,0.3,0.6,0.4,1,0.5
		c4,1.4,8.6,2.5,12.9,3c1.8,0.2,4.7-0.3,6,1.2C169.7,139.6,163.4,141.5,161.7,142.3z M134,212c-4.2,5.6-10.3,9.5-16.8,12
		c-6.9,2.7-14.3,4-21.7,4.7c-7.8,0.7-15.7,0.5-23.4-0.6c-3.2-0.5-6.3-1.1-9.4-1.9c-2-0.5-4.8-1.1-5.5-3.4c-0.4-1.1-0.2-2.4,0.4-3.5
		c1-1.8,2.8-2.9,4.1-4.4c1.6-1.8,3.1-3.7,4.6-5.6c2.9-3.7,5.7-7.4,9.1-10.6c11-10.3,26.2-15.3,41.1-13.5c3.1,0.4,6.2,1.1,9.2,2
		c1.9,0.6,6,1.4,6.5,3.5c1,4.5-5.5,6.2-8.4,7.4c-2.6,1.1-5.3,2.1-8,2.9c-1.3,0.4-2.6,0.8-3.9,1.2c-1,0.3-3.2,0.4-4,1.2
		c-2,2,2.2,2.5,3.5,2.6c4.4,0.2,8.3-1.3,12.3-2.9c2.2-0.9,4.5-1.8,6.7-2.9c1.8-0.8,3.8-2.2,5.9-1.4C141.9,200.8,136,209.2,134,212z
		 M195.7,206.1c1,4.7,1.2,9.6,0.2,14.3c-2.6,11.3-11.2,20.1-20.7,26.3c-2.9,1.9-11,8.7-13.5,2.7c-1.2-2.8-0.9-5.9-1.3-8.8
		c-0.9-5.5-0.8-10.9,0.8-16.3c1.5-5.2,4.1-10.1,7.7-14.1c2.3-2.6,5-4.7,7.8-6.7c1.7-1.2,3.2-3,5.2-3.7c5.3-1.9,0.6,9.3-0.1,11
		c-0.9,2-1.9,4-2.8,5.9c-0.3,0.7-0.7,1.4-1,2c-0.3,0.6-0.7,1.1-0.8,1.7c-0.4,1.6,0.7,2.3,1.9,1.7c1.1-0.5,2.2-2.5,2.9-3.5
		c1.9-2.6,3.4-5.4,4.7-8.3c0.9-2.2,1.7-4.5,2.3-6.7c0.5-1.8,0.6-5,1.9-6.4C193.1,194.7,195.5,204.9,195.7,206.1z M565.8,85.4
		c0,1.8-1.1,3.5-2.7,4.3c-2.2,1-4.9,0.4-7.1,0.1c-5.4-0.8-10.8-1.9-16.1-3.2c0.5-1.8,0.6-3.6,0.6-5.4c2.6-0.4,5.2-0.9,7.8-1.3
		c2.8-0.5,5.6-1.1,8.4-1.1C560.7,78.7,565.9,80.5,565.8,85.4z M554.9,94.2c2.7,0.4,5.7,0.8,8.3,0.2c0.3,0.7,0.7,1.5,1.1,2.2
		c0.7,1.4,1,2.9,1,4.5c0,0.7-0.2,1.2-0.4,1.8c-0.8,0.6-1.7,1.2-2.6,1.7C561.4,100.3,558.3,96.9,554.9,94.2z M557,103.1
		c-4-1-8.3-1.3-12.5-0.9c-2,0.2-3.9,0.5-5.8,0.9c-1.9-2.2-3.6-4.6-4.9-7.1c1.6-1.4,3.1-3,4.2-4.8c4,0.8,7.9,2.4,11.3,4.6
		C552.1,97.6,555.4,100,557,103.1z M559.1,59.3c3.2,0.3,6.8,3.2,4.8,6.6c-2,3.3-6.7,5-10.1,6.4c-4.5,1.9-9.2,3.1-14,4
		c-0.6-1.9-1.4-3.7-2.5-5.4c2.8-3,5.9-5.6,9.4-7.6C550.3,61.2,554.8,58.9,559.1,59.3z M540.1,41.4c2.4-2.1,6.5-4.1,8.4-0.3
		c2.2,4.4-1.9,9.7-4.2,13.2c-3.1,4.6-6.7,8.7-10.8,12.4c-0.7-0.6-1.5-1.2-2.3-1.7c-1.2-0.7-2.5-1.2-3.8-1.7
		C529.8,55.2,533.6,47.2,540.1,41.4z M516.1,39.3c0.3-2.3,0.8-4.8,2.3-6.6c2.2-2.7,7-2.5,9.1,0.4c2.5,3.5,0.9,9.1,0.2,12.9
		c-0.5,2.9-1.1,5.7-2.1,8.4c-1,2.7-2.1,5.3-3.2,8c-1.4-0.1-2.8-0.1-4.2,0.1c-1.5-4.8-2.5-9.8-2.6-14.9
		C515.6,44.8,515.7,42,516.1,39.3z M528.7,68.9c5,3.1,7.8,9,7.1,14.8c-0.7,5.8-5.4,10.4-10.9,11.9c-6,1.6-12.1-0.9-15.6-5.9
		c-3.5-4.9-3.1-11.3-0.1-16.3C513.2,66.5,522,65,528.7,68.9z M531.6,104.8c-3.3,1-6.6,2.1-9.8,3.3c0-2.5,0.1-5,0.3-7.5
		c0.2,0,0.4,0,0.6,0c2.2-0.2,4.4-0.8,6.5-1.7C530.1,100.8,530.9,102.8,531.6,104.8z M498.1,76c-0.9-0.2-1.9-0.4-2.8-0.6c0,0,0,0,0,0
		c0-0.6,0-1.1,0-1.7c-0.1-3.2-0.4-6.5-1.3-9.6c3.8,2.4,7.1,5.4,10.4,8.5c-0.7,1.3-1.2,2.8-1.5,4.2C501.3,76.6,499.7,76.4,498.1,76z
		 M502.5,85c-2.5,1-5.1,1.9-7.8,2.7c0.1-0.5,0.1-1,0.2-1.6c0.2-2,0.3-4.1,0.4-6.1c0.5,0.1,1.1,0.2,1.6,0.4c1.8,0.5,3.6,1.1,5.4,1.8
		C502.3,83.2,502.4,84.1,502.5,85z M494.3,92.7c0.1,0,0.2-0.1,0.3-0.2c3.2-0.9,6.2-2,9.3-3.2c0,0,0,0,0,0.1c1,2.1,2.3,3.9,3.9,5.5
		c-4.5,5-10.4,8.8-16.8,10.7c1.3-4.2,2.3-8.5,3-12.8C494.1,92.8,494.2,92.8,494.3,92.7z M501.5,109.6c2.8-4.4,6.6-8,10.6-11.4
		c1.7,1,3.5,1.7,5.5,2.1c-0.2,1.9-0.3,3.7-0.3,5.6c-0.4,1.6-0.9,3.1-1.5,4.6c-5.8,2.3-11.5,5-17.1,7.8
		C498,115.3,499.8,112.1,501.5,109.6z M491,41.4c1.4-1.5,3.7-1.5,5.5-0.8c2.2,0.8,4,2.6,5.5,4.3c1.6,1.8,3,3.7,4.3,5.6
		c2.8,4.1,5,8.6,6.7,13.3c-1.9,0.8-3.6,2-5.1,3.6c-3.9-2.7-7.4-5.8-10.7-9.3c-3-3.2-7-7.2-7.6-11.8C489.4,44.7,489.8,42.7,491,41.4z
		 M402.8,51.6c4.6-2.5,12.1-3.9,16.9-1.2c4.3,2.5,3.2,9.3,2.6,13.3c-0.8,5.1-1.3,10.2-1.8,15.4c-0.9,8.7-1.5,17.7,0.1,26.3
		c0.9,4.7,2.6,9.2,5.1,13.3c0.6,1,2.3,0.2,1.8-0.9c-3.6-7.5-4.3-16.1-4-24.3c0.3-9,1.5-18.1,3-27c2.2-13.3,13.4-23,27.2-23.4
		c12.4-0.4,14.1,10.1,13.4,20c-0.2,2.8-0.6,5.5-1.3,8.2c-0.7,2.7-1.8,5.4-2.4,8.1c-0.2,0.9,1.1,1.6,1.7,0.8c1.7-2.3,2.7-5.2,3.5-7.9
		c0.9-2.9,1.6-6,1.8-9c0.2-2.1,0.9-3.3,1.9-1.1c0.6,1.2,0.4,4.3,0.5,5.7c0.2,2.9-0.6,6.3-1.1,9.2c-1.4,8.3-3.5,16.6-5.6,24.7
		c-0.4,1.3,1.6,1.6,2,0.4c2.7-8.2,5.6-16.2,7.3-24.6c0.8-4.2,1.3-8.3,1.6-12.6c0.2-4.4,1.9-9.1,7.2-5.7c2.5,1.6,3.7,4.4,4.4,7.2
		c0.8,3.2,0.9,6.6,0.9,9.9c0,3.6-0.1,7.1-0.5,10.6c-1.6,14.4-6.5,28.2-14.3,40.4c-3,4.8-6.4,12.2-12.3,14.2c-1.1,0.4-3,0.7-4.1,0
		c-1.8-1.2-0.8-4.3-0.3-6.3c1.2-5,3.9-9.6,4.8-14.7c0.3-1.6-2-2-2.5-0.5c-1.5,4.4-3.3,8.8-5.4,13c-4.1,8.2-16.7,2.5-23.5,3
		c-4.6,0.3-9.1,1.3-13.3,3c-9,3.6-14.8-4.9-18.8-11.6c-5-8.3-8.5-17.5-10.2-27.1c-1.5-8.7-1.8-17.8-0.1-26.4
		C390.5,65.1,394.6,56,402.8,51.6z M389.2,56.3c-1.8,2.7-3.2,5.6-4.3,8.6c-3.1,8.7-4,18.1-3.3,27.4c-2.7-4.3-5.2-8.6-7.4-13.1
		c-0.4-0.7-0.2-1.7,0.4-2.2c5.6-4.7,9.2-12.5,11.5-19.9C386.6,55.6,388.3,55.3,389.2,56.3z M379.3,94.4c-1,1.3-1.1,1.4-2,2.5
		c-6-5.7-12.5-10.8-19.4-15.1c-4-2.5-8.4-4.9-13.1-5.9c-1.2-3.2-2.1-6.5-2.9-9.8c-0.4-1.8,1.7-3,3-1.8c7.4,6.8,16.8,12.7,25.5,15.9
		c0.1,0,0.2,0.1,0.3,0.1c0.5,0.1,1,0.4,1.3,0.9C374.2,85.7,376.7,90.1,379.3,94.4z M380.7,39.1c1.4,2.8,2.7,5.7,3.3,8.7
		c0.1,0.3,0.1,0.6,0.2,0.8c0.4,2.8-0.5,4.8-1.3,7.7c-1.8,6-4.2,12.2-9,16.5c-0.9,0.8-2.4,0.5-2.9-0.7c-2.2-5.1-4.5-9.7-3.4-15.4
		c0.6-3.1,3.1-5.2,4.7-7.7c2-3.1,3.7-6.4,5.1-9.8C378,37.8,380,37.7,380.7,39.1z M375.1,32c0.1,0.7,0.2,1.2,0.2,1.4
		c0,6.3-4.8,12.9-8.6,17.6c-1,1.2-2.9,0.7-3.2-0.7c-1.2-4.7-3.5-9.9-2.4-14.9c1.1-5.3,5.5-7.4,8.4-11.6
		C372.1,19.8,374.4,28.4,375.1,32z M359.3,10.3c0.3-1.7,0.8-5,2.8-4.2c1.4,0.6,2.8,3.9,3.5,5.1c1.1,1.8,2.1,4.2,2.2,6.5
		c0,0.4,0,0.9,0,1.3c-0.3,2.8-3,5.4-5.2,7.2c-1.2,0.9-2.9,0.1-2.9-1.4C359.4,20.1,358.5,15.1,359.3,10.3z M350.8,14.1
		c0.6-1.7,5.9-7.1,5.7-2.3c-0.2,3.8-0.2,7.5-0.1,11.2c0.1,1.9-2.4,2.7-3.4,1.1C351,21,349.4,17.7,350.8,14.1z M345.6,23.3
		c0.6-1.4,2.6-1.4,3.3-0.1c2.2,4.2,5.8,7.3,7.8,11.7c2.2,4.7,2.4,10.5,3.7,15.6c0.4,1.7-1.6,3-3,1.9c-4.5-3.9-8.9-8.4-12-13.4
		C342,33.5,343.1,28.9,345.6,23.3z M340.3,42.7c0.2-1.7,2.3-2.3,3.3-0.9c3.1,4.3,6.7,8.3,10.6,11.9c1.9,1.7,4.2,3.1,6,4.8
		c0.7,0.7,1.3,1.4,1.8,2.1c1.8,2.4,8.3,11.8,3.2,12.8c-2.9,0.6-6.6-2.1-8.8-3.7c-4.3-3-8.9-6-12.2-10.2
		C340.1,54.7,339.7,48.8,340.3,42.7z M318.8,148.1c5,2.2,10.2,4.1,15.4,5.8c10.7,3.5,21.7,5.3,32.9,5.9c1.2,0.1,1.3-1.9,0.1-2.1
		c-10.8-1.6-21.6-4.3-31.9-8c-6-2.1-11.9-4.8-17.6-7.7c-1.9-1-8.9-3.7-8.7-6.6c0.1-2.3,3.6-0.7,5.1-0.2c4.1,1.5,7.7,4,11.6,5.9
		c1.8,0.9,3.6,1.7,5.5,2.5c1.9,0.8,3.8,1.4,5.7,2.1c1.4,0.6,2.3-1.3,1-2c-3-1.8-5.9-3.8-9-5.5c-3.2-1.7-6.4-3.3-9.6-5
		c-4.5-2.3-10-4.5-9.1-10.7c0.1-0.9,0.4-1.7,0.8-2.5c2-4.7,6.6-8.7,11.9-8.8c6.6-0.2,11.5,3.8,17,7c6.5,3.8,13.3,7.4,19.2,12.2
		c1.1,0.9,2.5-0.6,1.5-1.7c-5.5-5.5-11.6-10.1-18.1-14.3c-4.8-3.1-10.7-4.9-14.6-9.2c-4.6-5.1-2.6-9,0.8-14.5c1.2-2,2.7-4,4.5-5.7
		c0.9-0.9,1.2-1.2,2.1-1.8c0.4-0.3,0.8-0.5,1.2-0.8c0.1,0,0.1-0.1,0.2-0.1c0,0,0.1,0,0.1,0c0.2-0.1,0.5-0.2,0.7-0.3
		c6-1.9,12.7,2.1,17.6,5.1c5.8,3.6,11.1,7.9,16.1,12.4c5.8,5.2,11.2,10.8,15.9,17c0.1,0.1,0.2,0.3,0.3,0.4c0.8,2,1.6,4,2.5,5.9
		c2.4,5,5.2,9.8,8.5,14.3c1.7,2.3,8.6,8.9,3.1,11.4c-1.9,0.9-4.7-1.1-6.4-1.9c-3.9-1.8-7.8-3.8-11.4-6.1c-1.1-0.7-2.2,1.1-1.3,1.9
		c3.6,3,7.1,5.6,11.3,7.7c4.7,2.4,4.6,5.8,2.5,10.3c-1.3,2.8-1.8,5.8-2.9,8.7c-1.2,3.2-5.5,4.6-8.5,5.1c-8.3,0.6-16.6,1.9-24.9,3.5
		c-4.1,0.4-8.3,0.7-12.5,0.7c-14.2,0.1-28.1-6.7-37.3-17.4c-2.3-2.7-4.5-5.9-5.2-9.5C302.7,140.6,313.7,145.8,318.8,148.1z
		 M244.6,169c2.5,0.2,5,0.3,7.5,0c1.9-0.2,4-1.2,5.9-1c1.5,0.2,3,1.3,4.4,2c3.7,1.7,7.5,3.2,11.4,4.5c1.7,0.6,1.7,3-0.1,3.5
		c-6.1,1.7-13.4,3.3-19.7,2.6c-5.2-0.6-8.4-4.6-11-8.8C242.1,170.5,243.1,168.8,244.6,169z M239.9,165c-0.5-0.1-1-0.5-1.2-1
		c-0.8-1.8-1.6-3.7-2.3-5.5c-0.6-1.7,1.4-3.2,2.8-2.1c3,2.2,6.1,4.3,9.3,6.3c1.6,1,0.9,3.5-1,3.4C245,166,242.4,165.7,239.9,165z
		 M252.7,194.6c1.3-1.6,3.6-1.7,5.5-1.2c2.3,0.7,4.1,2.3,5.8,4c1.7,1.7,3.2,3.5,4.7,5.3c3,3.9,5.6,8.3,7.6,12.8
		c-1.8,1-3.4,2.3-4.8,3.9c-4-2.5-7.8-5.3-11.3-8.6c-3.2-3-7.5-6.8-8.4-11.3C251.4,197.9,251.6,195.9,252.7,194.6z M272.9,192.6
		c-1.8,0.4-3.6,0.7-5.5,0.9c-0.2,0-0.3,0-0.4,0.1c-0.1,0-0.2,0-0.3,0.1c-2.2-2.1-4.6-3.8-7.4-4.6c-0.3-0.1-0.6-0.2-0.9-0.2
		c-0.8-0.6-1.6-1.2-2.3-1.8c-1.3-1.1-0.6-3.2,1.1-3.3c6.5-0.2,13.3-1.4,19.4-3.3C273.7,183.5,273,188.3,272.9,192.6z M275.2,171.8
		c-4.1-1.4-8.1-3.1-12.1-4.9c-3.5-1.6-4.8-3.4-5-7.3c-0.1-2.5-0.7-5-1.7-7.4c-0.5-1.3,0.5-2.6,1.8-2.5c2.9,0.2,5.9,0.5,8.4,1.7
		c1.3,0.7,2.5,1.6,3.4,2.9c3.3,4.7,5.9,9.8,7.6,15.2C278,171,276.6,172.3,275.2,171.8z M275.5,151.2c3,0.3,6.1,0.3,9,1.4
		c2.8,1.1,4.7,4.1,6.6,6.4c4,4.8,7.8,10.2,8.7,16.6c0.2,1.2-0.9,2.3-2.1,2.1c-4.8-0.8-9.5-1.9-14.1-3.2c-0.6-0.2-1.1-0.7-1.3-1.4
		c-1.6-6.8-4.6-13.1-8.5-19C272.9,152.8,273.9,151.1,275.5,151.2z M277.6,190.8c0.2-2.3,0.5-4.8,1.9-6.8c2.1-2.9,6.9-2.9,9.1-0.2
		c2.7,3.3,1.4,9,1,12.8c-0.3,2.9-0.7,5.7-1.5,8.6c-0.8,2.8-1.8,5.5-2.7,8.2c-1.4,0-2.8,0.1-4.2,0.4c-1.8-4.7-3.1-9.7-3.5-14.7
		C277.5,196.3,277.4,193.5,277.6,190.8z M290,179c0.6,0.2,1.1,0.3,1.3,0.4c1.7,0.4,6.6,1.3,5.1,4.2c-0.3,0.6-1.3,1.1-2.2,1.5
		c-0.4-1.5-1-2.9-2-4.1C291.5,180.2,290.8,179.6,290,179z M301.7,191.4c2.2-2.2,6.3-4.6,8.4-0.8c1.8,3.1,0.3,6.8-1.4,10.1
		c-1.1,1.2-2.2,2.4-3.2,3.6c-2.4,3-4.5,6.4-6.1,10c-0.8,1-1.7,1.9-2.6,2.9c-0.8-0.6-1.6-1.1-2.4-1.5c-1.2-0.6-2.5-1.1-3.9-1.4
		C292.4,205.8,295.6,197.5,301.7,191.4z M302.4,185.2c-3.2,1.7-5.7,4.7-7.8,7.8c0.1-1.6,0.2-3.1,0.1-4.7c1.7-0.9,3.3-1.7,4.9-2.7
		c1.5-0.9,2.8-2.3,4.4-3.1c1.9-1,3.4-0.4,5.5-0.2c2.3,0.2,4.6,0.4,6.9,0.6c1.9,0.1,8.1,0.1,5.6,3.6c-0.9,1.3-3.3,2.4-4.7,3.3
		c-0.7,0.4-1.4,0.9-2.1,1.3c-0.1-0.4-0.2-0.9-0.4-1.3C312.7,184.5,307.1,182.7,302.4,185.2z M322.2,179.9
		c-5.7-0.1-11.4-0.4-17.1-1.1c-0.8-0.1-1.5-0.8-1.6-1.6c-0.8-7.3-5.3-14.6-10.2-20.6c-1.1-1.3,0-3.2,1.7-3c1.4,0.2,2.8,0.4,4.1,0.6
		c0.5,1.7,1.1,3.3,1.9,4.8c3.7,6.9,10.2,12.4,16.7,16.6c1.9,1.2,3.9,2.4,6,3.3C323.5,179.5,322.9,179.9,322.2,179.9z M257.8,136.3
		c3.1-2.7,7-5,10.6-6.9c7.5-4.1,15.7-7,24.1-8.8c0.3-0.1,0.5-0.1,0.7-0.3c3.5-0.2,7.1-0.4,10.6-0.7c-2.2,4.6-3.6,10-2.8,15
		c0.1,0.8,1.6,4.1,1.1,4.7c-3,3.2-3.9,7.5-3.4,11.8c-11.2-1.6-22.4-3.1-33.6-4.1c-3.2-0.3-6.4-0.6-9.6-0.8c0-0.5,0-0.9-0.1-1.4
		C254.9,141.7,255.1,138.6,257.8,136.3z M250.6,150.2c0.3,0.2,0.5,0.3,0.8,0.6c2.4,1.9,3.1,5.5,3.3,8.5c0.1,1.5-1.5,2.4-2.8,1.7
		c-3.1-1.8-6.1-3.7-9-5.8c-1-0.7-3.4-1.9-3.9-3c-1-2.5,1.9-3.5,3.7-3.4C245.6,148.9,248.1,148.7,250.6,150.2z M227.7,183.6
		c-4.6,1.2-6.1-2.8-6.6-6.5c-0.7-4.8-2.2-9.3-1.5-14.2c1.3-8.8,7.2-15.6,15.1-19.4c3.4-1.6,7.4-2.7,11.2-2.6c-1,1.1-2,2.2-2.9,3.3
		c-0.3,0.4-0.5,0.8-0.6,1.2c-5.6-0.3-12.8-1.7-11.6,5.9c1,6.3,3.7,12.7,6.8,18.2c1,1.8,2.1,3.5,3.3,5.3
		C237.4,178.6,232.6,182.3,227.7,183.6z M247.9,189.4c-2.7,0.3-6.1-0.9-8.4-2.1c-1.3-0.7-2.6-1.6-4-1.9c-0.2,0-0.4-0.1-0.5-0.1
		c3.2-1.8,6.1-4,8.6-6.6c2.4,3.1,5.1,5.9,8,8.6C250.3,187.9,249.1,188.6,247.9,189.4C247.9,189.4,247.9,189.4,247.9,189.4z
		 M242.7,199.1c-0.3,1.9-0.3,3.9,0.6,5.6c1.2,2.3,4.3,3.4,6.4,1.7c0,0,0,0,0,0c0.9,1.4,2,2.7,3.1,3.9c-3.1-1-6.4-1.5-9.5-1.2
		c-0.6,0.1-1.2,0.2-1.9,0.4c-0.3-1.1-0.9-2.2-1.3-3.3c-0.5-1.6-0.6-3.3-0.3-4.9C240.9,200.4,241.8,199.7,242.7,199.1z M240.5,221
		c-1.2-1.3-2.1-3.3-1.2-5c0.2-0.4,0.5-0.8,0.8-1.1c0.1-0.1,0.2-0.2,0.3-0.2c1.1-0.8,2.6-1.2,4-1.2c4.3-0.2,8.6,1.3,12.3,3.3
		c4.1,2.2,7.8,5.1,11.3,8.1c-0.6,1.4-1,2.8-1.3,4.3c-1.6-0.1-3.2-0.2-4.8-0.4c-0.9-0.2-1.9-0.3-2.8-0.4c-1.9-0.3-3.9-0.8-5.8-1.3
		c-2.4-0.7-4.8-1.5-7.1-2.5C244.3,223.6,242.1,222.6,240.5,221z M238.9,242.9c-1.4-0.4-3.4-1.2-4-2.7c-0.7-2,1.5-3.5,3-4.3
		c4.1-2.1,9.1-3.1,13.7-3.4c2.4-0.1,4.9,0,7.3,0.3c0.8,0.1,1.6,0.3,2.4,0.4c1.8,0.3,3.7,0.8,5.5,1.4c0.1,0.9,0.2,1.9,0.5,2.8
		C258.4,241.3,248.5,245.5,238.9,242.9z M252.4,260c-1.2,0.3-2.8,0.6-4,0c-1.1-0.5-1.6-1.8-1.7-2.9c-0.1-2.5,2.5-4.8,4.3-6.3
		c2.5-2.1,5.4-3.7,8.3-5.3c0.1-0.1,0.2-0.1,0.2-0.2c3.1-1.1,6.1-2.4,9.1-3.8c0,0,0,0,0,0.1c1.1,2,2.6,3.7,4.2,5.2
		C267.9,253.4,260.5,258.2,252.4,260z M280.1,266.7c-1.4,2.8-3.2,5.8-6.2,7.2c-2.7,1.3-6.5,1.2-8-1.7c-1.9-3.4,0.1-7.2,1.8-10.2
		c2.6-4.6,6.1-8.4,9.9-12.1c1.8,0.8,3.6,1.4,5.6,1.7c-0.1,1.9-0.1,3.8,0,5.6C282.4,260.4,281.5,263.7,280.1,266.7z M274.1,241.6
		c-3.8-4.6-3.9-11.1-1.2-16.3c3.6-7.1,12.3-9.1,19.2-5.7c1.8,0.9,3.3,2.2,4.5,3.7c-0.6,3.1-0.7,6.3-0.4,9.5c0.3,2.5,1,5,1.9,7.4
		c-1.8,3-4.8,5.3-8.1,6.4C284.2,248.4,278,246.3,274.1,241.6z M302.2,274.9c-0.2,1.8-1.1,3.6-2.9,4.3c-1.6,0.6-3.5,0.1-5-0.8
		c-3.6-2.2-4.6-7.3-5.4-11.1c-1.1-5.1-1.5-10.4-1.3-15.6c0.2,0,0.4,0,0.6-0.1c2.2-0.3,4.4-1.1,6.3-2.1c2.1,3.6,3.7,7.4,5,11.4
		c0.7,2.3,1.3,4.6,1.8,6.9C301.9,270,302.5,272.5,302.2,274.9z M420,230.6c-2.6,6-5.4,11.9-8.5,17.7c-3.4,6.5-7.1,12.8-11.2,18.8
		c-4.1,6-8.6,12.2-15,15.8c-3.4,1.9-9.3,3.1-13.1,2.1c-7.7-2-0.2-10.7,2.2-13.9c3.4-4.5,6.7-9,9.7-13.8c6.2-9.6,11.5-19.6,15.1-30.4
		c0.3-1-1.3-1.5-1.7-0.6c-5,10-10,20-16,29.4c-3,4.7-6.2,9.4-9.8,13.8c-8.3,10.2-22.1,17.4-35.3,13.5c-9.8-2.9-16.9-11.4-11.5-21.4
		c2.3-4.3,5-8.3,7.9-12.2c6-8.1,12.9-15.4,20.1-22.4c0.9-0.9-0.4-2.5-1.5-1.7c-9.1,6.8-16.7,15.3-23.3,24.5
		c-1.8,2.6-3.3,5.2-5.3,7.7c-1,1.3-3.1,3.6-4.9,2.2c-1.6-1.2-0.5-4.4,0-5.9c1.5-4.8,4.8-8.7,8.2-12.3c5-5.4,10.1-10.6,15.4-15.8
		c8.2-8,16.8-15.7,26.5-21.8c5.4-3.4,11.2-6.4,17.2-8.6c1.3-0.5,0.6-2.4-0.7-2c-11.3,3-21.3,9-30.5,16.1
		c-9.8,7.6-18.8,16.3-27.4,25.2c-4.4,4.5-8.6,9.2-12.9,13.8c-6-2.8-10.2-9.1-11.2-15.6c-1.4-8.8,2.1-17.7,7.5-24.6
		c5.4-6.9,12.6-12.3,20.5-16.1c8.5-4.1,17.7-6.3,26.9-8.2c1-0.2,1.9-0.4,2.9-0.6c1.5-0.2,3-0.3,4.4-0.5c4-0.5,8-1.1,12-1.7
		c3.7-0.6,8.2-2,11.9-1.4c6.1,1,7,8.8,10,13c1.6,2.3,4.1,4.1,5.7,6.3c2.6,3.7,0.7,10.5-0.7,14.3c-0.3,0.8,0.3,1.8,1.2,1.8
		c1.1,0,1.5-1.7,2-2.4c1.3-1.8,2.7-2.8,4.6-3.9c4.7-2.7,10.3-1.6,11.8,4.2C425,219.5,422.4,225,420,230.6z M415.3,199.5
		c-6-3-11-8.1-14.2-14c-3.2-5.8-3.4-12.2-1.4-18.5c1.1-3.7,3.2-6.7,5-10.1c1.5-2.8,3.4-4.2,5.8-6.3c4.4-4.1,9.9-6.5,15.8-7.8
		c13.7-3,28.1,2.6,35.7,14.5c6.7,10.4,3.9,24.4-4,33.2c-5.2,5.8-11.5,10.6-19.3,12.1C430.7,204.1,422.6,202.9,415.3,199.5z
		 M539.3,266.1c-0.8,2-2.2,3.8-4.6,4.1c-3.6,0.5-5.3-2.5-7.6-4.7c-1.5-1.4-3.1-2.9-4.7-4.2c-1.8-1.5-3.6-2.7-5.4-4.1
		c-1.2-0.9-2.6,0.7-1.5,1.7c1.5,1.5,2.8,3.1,4.3,4.7c2.1,2.3,4.5,4.7,6,7.5c0.4,0.8,1.5,2.4,0.7,3.2c-2,2-11.9-10-12.9-11
		c-4.1-4.3-8.3-8.7-12.5-13c-2.1-2.2-4.1-4.3-6.3-6.4c-2.1-2.1-4.5-4-6.6-6.1c-0.7-0.7-2.1,0.4-1.4,1.2c1.9,2.2,3.6,4.6,5.5,6.8
		c1.8,2.1,3.8,4.2,5.7,6.2c3.9,4.3,7.9,8.5,11.9,12.8c3.8,4.1,8,8.2,10.9,13c2.6,4.2,1.4,11.9-3,14.4c-4.4,2.5-9.7,3.3-14.6,1.8
		c-6.4-2-7.6-6.1-10.8-11.5c-2.9-5-5.7-10.1-8.4-15.2c-2.7-5.2-5.3-10.4-7.8-15.6c-1.2-2.5-2.4-5.1-3.6-7.6
		c-1.3-2.7-2.7-5.4-3.9-8.1c-0.6-1.3-2.6-0.6-2.1,0.7c1,2.8,1.9,5.7,3,8.4c1.1,2.8,2.3,5.5,3.5,8.3c2.3,5.3,4.8,10.5,7.4,15.7
		c2.6,5.2,5.3,10.3,8.1,15.4c1.9,3.5,4.1,6,3.7,10.1c-0.3,3.3-1.5,5.7-4.6,7.2c-3.7,1.8-7.9,2.4-11.9,2.2c-4.5-0.3-8.7-1.8-12.5-4.3
		c-9-5.8-15.4-14-17.3-24.7c-1.2-6.7-1.8-13.5-2.5-20.3c-0.2-1.5-2.2-1.3-2.2,0.2c-0.1,7.3,0,14.5,1,21.7c0.5,3.5,1.2,7,2.3,10.4
		c0.5,1.5,1,3,1.6,4.4c-0.7,0.4-1.3,0.6-2.3,0.9c-0.5,0.1-1.7,0.2-2.3,0.1c-0.1,0-0.9-0.2-0.9-0.2c-0.4-0.1-0.8-0.3-1.1-0.5
		c-0.1-0.1-0.3-0.2-0.4-0.3c-0.1-0.1-0.3-0.2-0.4-0.3c-0.5-0.4-1-0.8-1.4-1.3c-0.2-0.2-0.3-0.3-0.5-0.5c-0.1-0.1-0.2-0.2-0.2-0.3
		c-0.3-0.4-0.7-0.9-1-1.3c-0.8-1.2-1.5-2.4-2.1-3.6c-1-2.1-2.1-5.1-2.9-7.6c-3.7-12.3-4.9-25.5-3.2-38.3c0.8-6.3,2.1-12.4,3.6-18.5
		c1.1-3.3,1.4-11.6,6.1-10.2c4.4,1.4,5,6.2,5.1,10c0.1,4.7,0.5,9.4,0.8,14.1c0.1,1.5,2.3,1.3,2.3-0.2c0.2-6.7-0.6-13.5,0.8-20.2
		c0.4-1.9,1-5.8,2.8-6.9c2.8-1.6,5.8,1.7,7.4,3.5c1.7,1.9,3.3,3.9,4.9,5.9c0.4,0.5,1.2,0.8,1.8,0.4c0.6-0.4,0.8-1.2,0.4-1.8
		c-1.4-2.2-2.9-4.3-4.5-6.4c-1.2-1.7-2.3-4.6-1.6-6.9c1.3-4.9,9.4-3,12.9-2c5,1.5,9.6,4.3,14.2,6.6c9,4.3,17.8,9.2,25.9,15.1
		c6.3,4.6,12.3,9.8,17.3,15.8c4.8,5.7,9.4,12.3,11.7,19.5C540.1,259,540.6,262.8,539.3,266.1z M549.4,261.7
		c-1.1-0.4-2.1-0.9-3.2-1.3c-0.4-7.8-4.9-15.4-9.2-21.6c-1.3-1.9-2.8-3.7-4.3-5.5c0-0.6,0.1-1.1,0.2-1.7c0.2-1.2,1.5-1.9,2.6-1.4
		c2.9,1.4,5.7,2.9,8.4,4.5c3.6,2.1,5,4,5,8.1c0,5.6,1.2,11.4,2.9,16.7C552.3,260.9,550.8,262.3,549.4,261.7z M568,266
		c0.4,4.1-7.6,0.2-9.2-0.9c-0.4-0.3-0.7-0.5-1.1-0.8c-1.5-1.4-2.3-3.3-3-5.3c-1.6-4.9-2.1-10.4-2.2-15.5c0-1.5,1.7-2.4,2.9-1.5
		c3.7,2.6,8,5,10.7,8.7C569.7,255.7,567.4,260.5,568,266z M583.8,273.5c-2,2.1-9.6-1.5-11-3.3c0-0.1-0.1-0.1-0.1-0.2
		c-2.1-2.7-1.7-7.1-1.1-10.2c0.3-1.4,2.1-1.9,3.1-0.9C576.7,261,587,270.2,583.8,273.5z M588.3,259.7c0.3,2,0.5,4,0.6,6
		c0.1,1.8-2.2,2.7-3.3,1.2c-2.3-3-4.7-5.9-7.2-8.6c-1.3-1.4,0.1-3.6,1.9-3c2.5,0.8,4.8,1.8,7.1,3.1
		C587.9,258.6,588.2,259.1,588.3,259.7z M586.4,251c0.4,1.5-1,2.8-2.4,2.2c-5-2-10.8-2-15.5-4.8c-4-2.4-7.1-6-10.8-8.6
		c-1.5-1.1-0.7-3.4,1.1-3.4c8.7,0.1,17.2,0.7,22.7,5.9C583.6,244.4,585.3,247.2,586.4,251z M577.9,232.8c1,1.4-0.3,3.3-1.9,2.8
		c-6.7-1.7-13.6-2.4-20.5-2.2c-2.9,0.1-5.7,0.4-8.5-0.4c-2.5-0.8-4.8-2.6-6.9-3.8c-4.4-2.5-1.5-4.8,1.9-5.4
		c4.9-0.9,9.9-1.4,14.9-1.4c2.9,0,5.9,0,8.7,0.5C570.5,223.6,575.3,228.9,577.9,232.8z M560.4,219.3c-10-0.5-21,1.1-29.7,4.3
		c-0.1,0-0.2,0.1-0.3,0.1c-0.5,0.3-1,0.4-1.5,0.1c-2-0.8-5.4-1.6-8.1-2.7c-1.3-1.1-2.7-2.3-4.1-3.3c-0.9-2.3,1.2-3.8,3.3-4.6
		c2.6,0.5,5.1,0.9,7.7,1.2c9.4,1.2,20.3,1.4,30-1.2c1.3,0.9,2.7,1.8,4,2.8C563.1,217,562.2,219.4,560.4,219.3z M577.3,147.9
		c3.2,3.4,1.7,8.7-0.1,12.4c-5.2,10.7-16.7,11.9-27.2,12.8c-9.9,0.8-19.8,1.4-29.7,2c-5.6,0.3-11.3,0.7-16.9,1c-1.2,0-1,1.7,0.1,1.8
		c5.2,0.2,10.3,0.5,15.5,0.5c5.2,0,10.3-0.1,15.5-0.2c5.2-0.2,10.3-0.5,15.5-0.8c5-0.3,9.8-0.8,14.7-1.5c3.7-0.5,8.7-0.1,10.7,3.7
		c2,3.9,1,9.9-0.8,13.7c-3.8,8-12.1,12.8-20.4,14.7c-8.2,2-17.2,1.6-25.5,0.5c-8.3-1.1-16.6-3-24.7-5.1c-6.5-1.7-13-3.6-19.3-5.7
		c-5.5-1.9-14.8-6-14.8-12.9c0-4.2,1.9-8.3,2-12.5c0.2-4.2-0.4-8.5-1.9-12.4c0.2-0.1,0.4-0.2,0.6-0.3c1.1-0.5,2.2-1.1,3.3-1.6
		c2.3-1.1,4.6-2.2,6.9-3.2c4.6-2,9.3-3.8,13.9-5.6c1.4-0.5,0.7-2.5-0.7-2.2c-5,1-9.8,2.5-14.6,4.4c-3.8,1.5-11,5.2-13-0.4
		c-2.2-6.2,9.9-11.6,14.1-14.5c10-6.8,20.6-12.8,31.7-17.7c8.3-3.6,16.8-7,25.6-9.1c7.7-1.8,16.4-2.4,23.5,1.8
		c3.4,2.1,6.3,5.4,7.7,9.1c0.6,1.7,1.4,3.9,0.4,5.5c-1.4,2.2-6.1,4-8.7,4.5c-4.8,1.1-9.8,1.4-14.6,2.5c-4.3,1-8.5,2.1-12.7,3.4
		c-4.4,1.4-8.5,3.3-12.7,5.2c-1.2,0.5-0.6,2.3,0.6,1.9c4.1-1.4,8.4-2.5,12.6-3.7c4.2-1.2,8.5-2.3,12.8-3.1
		c5.7-1.1,13.9-3.4,19.6-2.1c1.7,0.4,8.5,3,4.8,5c-1.5,0.8-4.3,0-5.8,0c-2.7,0-5.4,0.2-8.1,0.6c-2.8,0.4-5.4,1.3-8,2.2
		c-1.4,0.5-0.7,2.4,0.7,2.2c2.5-0.5,5.2-0.7,7.8-0.9C564.4,143.1,572.3,142.6,577.3,147.9z M593.5,145.7c0.7,0.2,1.2,0.8,1.7,1.4
		c3.9,4.7,7.9,9.5,10.7,15c0.3,0.5,0.8,1.1,1.3,0.9c0.3-0.2,0.4-0.6,0.4-1c0.1-2.3-0.8-4.1-1.6-6.1c-1.5-3.7-3-7.4-5.7-10.5
		c-0.7-0.8-1.5-1.5-1.7-2.5c-0.1-0.3-0.1-0.5,0-0.7c0.8-1.8,8.4,1.3,9.5,1.8c7.9,3.8,13.8,10.6,15.1,19.4c0.7,4.9-0.8,9.4-1.5,14.2
		c-0.5,3.7-2.1,7.7-6.6,6.5c-8.2-2.2-14-7.6-17.9-14.8c-1.5-2.7-2.5-5.4-3.3-8.4c-0.8-3.3-1.7-6.7-2-10.1
		C591.9,149.3,590.9,145,593.5,145.7z M652,197.4c1.4,1.4,1.4,4.6,1.9,6.4c0.6,2.3,1.4,4.6,2.3,6.7c1.3,2.9,2.8,5.7,4.7,8.3
		c0.7,1,1.8,2.9,2.9,3.5c1.3,0.6,2.3-0.1,1.9-1.7c-0.2-0.6-0.5-1.2-0.8-1.7c-0.4-0.7-0.7-1.4-1-2c-0.9-2-1.9-4-2.8-5.9
		c-0.8-1.6-5.4-12.9-0.1-11c2,0.7,3.5,2.5,5.2,3.7c2.8,2,5.5,4.1,7.8,6.7c3.6,4,6.2,8.9,7.7,14.1c1.5,5.4,1.6,10.8,0.8,16.3
		c-0.5,2.9-0.2,6-1.3,8.8c-2.5,6-10.7-0.8-13.5-2.7c-9.4-6.2-18-15-20.7-26.3c-1.1-4.7-0.9-9.6,0.2-14.3
		C647.4,205.2,649.7,195.1,652,197.4z M785.7,223.1c-0.8,2.3-3.5,2.9-5.5,3.4c-3.1,0.8-6.3,1.4-9.4,1.9c-7.7,1.1-15.6,1.3-23.4,0.6
		c-7.4-0.7-14.8-2-21.7-4.7c-6.4-2.5-12.6-6.4-16.8-12c-2.1-2.8-7.9-11.2-2.5-13.2c2.1-0.8,4.1,0.6,5.9,1.4c2.2,1,4.4,2,6.7,2.9
		c4,1.6,8,3.1,12.3,2.9c1.3,0,5.5-0.6,3.5-2.6c-0.7-0.8-3-0.9-4-1.2c-1.3-0.4-2.6-0.8-3.9-1.2c-2.7-0.9-5.4-1.9-8-2.9
		c-2.9-1.2-9.4-2.9-8.4-7.4c0.5-2.1,4.5-2.9,6.5-3.5c3-1,6.1-1.6,9.2-2c14.9-1.8,30.2,3.2,41.1,13.5c3.4,3.2,6.2,6.9,9.1,10.6
		c1.5,1.9,3,3.8,4.6,5.6c1.3,1.5,3.2,2.6,4.1,4.4C785.8,220.7,786.1,221.9,785.7,223.1z"/>
</g>
<g>
	<path d="M836.6,534c-0.7-3.5-2.5-7.1-3.6-10c-2-5.4-4.9-10.4-8.5-14.9c-7.1-9-16.9-15.9-28-19.3c-0.7-0.2-1.3-0.4-2-0.6
		c-5.5-1.4-11.2-2.1-16.8-1.8c-6.4-8.8-17.6-11.4-28-10.3c4.3-2.1,8.5-4.4,12.4-7.1c4.3-3,8.6-6.6,11.1-11.3
		c2.6-4.7,3-10.2,0.8-15.1c-2.1-4.8-6.5-8.3-11.3-10.2c-1.6-0.7-3.3-1.1-4.9-1.4c0.3-0.7,0.4-1.5,0.2-2.2c-0.3-1.2-1.1-2.1-2.2-2.6
		c-1.2-0.6-2.5-0.9-3.8-0.8c1.6-2.7,3-5.5,4.6-8.1c1.7-0.3,3.5-0.1,5.2,0c2.2,0.2,5.3,0.4,6.7-1.7c1.5-2.1,0.1-4.9-2.1-5.8
		c-1.8-0.7-3.8-0.3-5.6,0.5c1.3-2.2,2.5-4.4,3.6-6.8c1.2-0.5,2.8-0.4,4.1-0.4c2.3,0,5.4-0.2,6.8-2.4c1.4-2.2,0-5-2.3-5.9
		c-2-0.8-4.2-0.2-6.1,0.9c2.3-2.9,5.3-5.3,6.3-9c0.3-1.2,0.4-2.6-0.3-3.7c-0.8-1.2-2.2-1.7-3.5-1.4c-3,0.6-4.1,4-4.9,6.6
		c-0.6,1.9-1.1,3.8-1.5,5.7c-0.1-0.7-0.3-1.3-0.4-2c-0.3-1.4-0.7-2.8-1.8-3.8c-2-2-5-1.4-6.1,1.2c-1.1,2.6,0.6,5.2,2.3,7.1
		c1,1.1,1.9,2.2,2.4,3.7c0.2,0.7,0.3,1.4,0.3,2.2c-1.2,1.8-2.3,3.6-3.5,5.4c-0.3-1.6-0.8-3.1-1.8-4.2c-1.6-1.7-4.8-2.3-6.4-0.1
		c-1.8,2.4-0.2,5.3,1.6,7.1c1,1,2.1,1.9,2.8,3.1c-0.1,0.2-0.2,0.4-0.4,0.5c-1.6,2.4-3.6,5-5.3,7.7c-0.3-1-0.7-2-1.3-2.9
		c-1.4-2-4.6-3-6.6-1.1c-1.1,1-1.4,2.6-1.1,4c0.3,1.5,1.2,2.7,2,3.9c1.7,2.4,2.2,4.8,1.5,7.3c-0.6,0.2-1.2,0.4-1.7,0.6
		c-0.1-1.7-0.5-3.3-1.5-4.6c-1.5-2-4.4-2.8-6.4-1.1c-1,0.9-1.4,2.3-1.2,3.6c0.2,1.3,1,2.4,1.8,3.4c0.3,0.4,0.7,0.9,1,1.5
		c-1.9,0.9-3.8,1.9-5.5,2.9c-2.6,1.5-5.2,3.1-7.7,4.8c1.9-2.8,3.7-5.6,5.4-8.5c3.6-6.1,7.2-12.5,9.5-19.2c2.1-6.2,2.7-13,0.2-19.1
		c-2.3-5.5-7-9.9-13-11c-5-0.9-9.9,0.5-14.2,3.3c-4.4,2.9-8.2,6.8-11.4,10.9c-3.1,3.9-6.1,8.1-8.7,12.3c-0.1,0.2-0.3,0.4-0.4,0.7
		c1.2-11.3,6.5-27.9-0.7-37.6c-6.6-9-24.3-12.3-33.5-6.2c-11.7,7.7-10.7,28.7-10.5,41.1c0.1,3.3,0.3,6.5,0.6,9.8
		c0.2,2.2,1.7,6.5,0.8,8.4c-1.6-3.4-3-7-4.4-10.6c-1.8-4.6-3.4-9.3-4.8-14c-3-9.4-5.5-18.9-7.5-28.5c0-0.1-0.1-0.2-0.1-0.3
		c10-4.6,16.2-16.6,16.5-27.2c1.8-0.6,3.2-2.2,3.2-4.3c0-3.8-4.7-6.4-7.6-3.6c-1.4,1.3-2,3.3-1.7,5.1c0.3,1.5,1.3,3,2.9,3.4
		c-0.8,4.5-2.6,8.9-5.2,12.6c-2.4,3.3-5.3,5.3-8.5,7.2c2.1-4.9,1.9-11.5,1.5-16.7c2.7-0.6,4.8-3.3,4-6.4c-1.1-4-6.9-5.4-9.2-1.6
		c0,0.1-0.1,0.2-0.1,0.3c-0.1,0.1-0.3,0.3-0.4,0.5c-0.6,0.9-0.6,2-0.4,3c0.3,1.7,1.4,3.2,3,3.9c-0.3,3.2-0.8,6.4-1.5,9.5
		c-0.5,2.1-1.3,4.2-1.7,6.3c-1.8-2.6-3.6-5.2-5.1-8c-2.2-4.1-3.1-8.3-4.2-12.7c1.3-0.3,2.5-1.1,3.2-2.4c0.8-1.5,0.5-3.6-0.6-4.8
		c-2.5-2.7-7.8-3.1-9.1,0.8c0,0,0,0-0.1,0c-1.4,1.3-1,3.5,0.2,4.8c0.9,0.9,2.1,1.4,3.4,1.6c0.1,8.2,5.2,16.6,9.7,23.6
		c-7.4-2.5-13.8-7.1-17.3-14.3c0.1-0.1,0.2-0.2,0.2-0.4c1.2-0.8,2-2.2,1.9-3.8c-0.2-3.1-3.2-5.1-6.2-4.3c-2.7,0.7-4.5,3.8-3.7,6.5
		c0.5,1.7,2.2,3,4,3.3c3,11.2,14.7,16.3,25,19.4c0.2,0.1,0.3,0.1,0.5,0.1c1.3,10,3.2,19.8,6,29.5c0.9,3,1.7,6.2,2.7,9.5
		c-2.2-2.5-4.4-5-6.7-7.3c-4.6-4.7-9.9-9-16.2-11.2c-5.8-2-12.6-1.8-17.9,1.4c-5.1,3.1-8,8.6-8.7,14.4c-1.3,9.8,3.6,18.3,9.7,25.6
		c-1.1-0.7-2.2-1.4-3.2-2.2c-2.6-1.8-5.1-3.6-7.6-5.5c-1.9-1.4-4-2.5-4.7-4.9c-0.6-2.3,0.1-4.8-0.1-7.2c-0.6-5.1-3-10-6.9-13.3
		c1-7,0.8-14.2-0.7-21.2c-0.8-3.8-1.7-8.5-4.8-11.2c-2.9-2.6-7.2-2.1-10,0.4c-0.6,0.5-1.1,1.1-1.5,1.8c-0.8-1.7-1.8-3.3-3-4.6
		c-1.9-2-5-2.7-7.2-0.8c-1,0.9-1.6,2.2-1.9,3.5c-0.7-0.4-1.4-0.8-2.3-1c-2.5-0.5-5.3,0.8-6.2,3.3c-0.4,1-0.5,2-0.4,2.9
		c-1.1-0.5-2.2-1.1-3.3-1.5c-2-0.9-4.2-1.6-6.5-1.2c-2.3,0.4-4.2,2-5,4.3c-0.6,1.7-0.6,3.4-0.2,5.1c-1.4,0.7-2.5,2-2.9,3.7
		c-0.7,2.6,0.3,5.5,2.2,7.3c-0.3,0.3-0.7,0.6-1,0.9c-2.6,2.8-2.6,7.2,0.4,9.8c-1.4,0.4-2.7,0.9-3.7,2c-1.1,1.3-1.4,3.1-0.7,4.6
		c1.3,3,4.8,3.9,7.6,4.8c0.2,0.1,0.3,0.1,0.5,0.1c-0.8,1.2-1.2,2.6-1,4.1c0.4,3.3,3.4,4.6,6.4,4.8c1.3,0.1,2.7,0.1,4,0.1
		c0.4,3,3.8,4.8,6.7,4.6c1.5-0.1,3-0.7,4.3-1.3c1.8-0.8,3.5-1.7,5.3-2.5c3.2-1.5,6.4-3,9.5-4.6c0,0,4.1,3.1,4.6,3.4
		c1.8,0.9,3.7,1.6,5.7,2c1.5,0.3,3.3,0.7,4.9,0.8c4.2,0.2,7.5,3.9,10.8,6.3c4.6,3.4,9.2,6.6,14,9.7c0.5,0.3,0.9,0.6,1.4,0.9
		c-7.2-2.6-14.9-4.1-22.5-3.6c-6,0.4-14.8,0.6-18.8,5.3c-4,4.6-5.7,14.4-3.6,20.1c0.9,2.6,2.6,4.9,4.7,7c-1.6,0.7-2.7,2.6-2.6,4.5
		c0,1.8,0.9,3.5,2,5c-1-0.3-2.1-0.5-3.1-0.8c-1.4-1.5-2.2-3.4-2.3-5.8c-0.1-1.5-0.1-3-0.8-4.4c-0.7-1.3-1.8-2.3-3.3-2.5
		c-2.7-0.3-4.6,2.4-4.5,4.9c0.1,1.8,0.8,3.5,1.9,5c-0.8-0.3-1.7-0.6-2.5-0.9c-2.6-1-5.2-2.1-7.8-3.2c-0.1-0.2-0.2-0.4-0.2-0.6
		c-0.4-1.5,0-3,0.2-4.5c0.4-2.6-0.2-5.8-3-6.6c-2.6-0.7-4.8,1.6-5,4c-0.2,1.6,0.4,3.2,1.2,4.7c-2.2-1-4.3-1.9-6.5-2.8
		c-0.3-0.5-0.6-1-0.8-1.5c-0.5-1.4-0.5-2.9-0.4-4.4c0.2-2.5,0-5.7-2.5-7c-2.4-1.3-5.2,0-5.6,2.8c-0.2,1.4,0.4,2.8,0.9,4.1
		c0.3,0.6,0.6,1.2,0.9,1.9c-1.5-1.3-3-2.5-4.6-3.6c-2.2-1.5-5.1-3.6-7.9-2.2c-1.2,0.6-2.1,1.9-1.9,3.3c0.1,1.3,1,2.4,2,3.1
		c3,2.3,6.9,2.4,10.5,3.3c-2.1,0.3-4.2,1.2-5.3,3c-1.3,2.1-0.6,5.1,1.8,6c2.4,0.9,5-0.8,6.8-2.2c1.2-0.9,2.5-2.2,4-2.3
		c0.3,0,0.6,0,0.9,0c1.8,1.2,3.7,2.2,5.6,3.3c-1.9,0.5-3.8,1.3-4.8,3.1c-1.2,2.1-0.6,5.1,1.9,5.9c2.4,0.7,4.7-1.3,6.4-2.8
		c1.1-1,2.2-2,3.4-2.8c2.5,1.1,5,2.1,7.6,3.1c0.4,0.2,0.8,0.3,1.2,0.5c-0.8,0.7-1.5,1.5-2,2.5c-0.5,1.1-0.6,2.3-0.1,3.4
		c0.5,1.1,1.5,1.9,2.7,1.9c2.4,0.1,4.4-2.1,6-3.6c0.4-0.4,0.9-0.8,1.3-1.3c1.9,0.7,3.7,1.3,5.6,1.9c-1.2,0.7-2.3,1.5-3.2,2.4
		c-1.6,1.7-2.1,4.7-0.4,6.4c-3.3,3-5.7,6.9-5.9,11.5c0,1,0,2,0.2,3c-1.9,0-3.8,0-5.7,0.1c-0.1,0-0.1,0-0.2,0
		c-14.2,1-28.1,6-39.5,14.4c-2.2,1.6-15.6,10.9-11.9,14.1c11.1,9.8,22.5,19.8,36.3,25.8c11.5,5,24.5,5.5,36.7,2.5
		c5.4-1.3,10.6-3.4,15.2-6.5c0.1,0.1,0.1,0.2,0.2,0.2c3.1,3.9,9.6,5,14.5,4.9c4.6-0.1,9.1-2,13.4-3.4c6-1.9,10.6-5.2,16-8.2
		c1.6-0.9,3.2-1.9,4.8-2.8c-0.5,0.8-1.1,1.6-1.6,2.5c-5.5,9.3-10.6,20.5-6.2,31.3c2,4.9,5.7,8.8,10.7,10.8c4.6,1.9,10,1.9,14.8,0.7
		c9.1-2.2,15.9-9.3,20.6-17.1c2.6-4.3,4.6-8.9,6.3-13.7c0.3,2.2,0.7,4.4,1.1,6.6c2.2,11.5,5.5,24.5,15.6,31.7
		c4.3,3.1,9.9,4.9,15.1,4.4c5.8-0.6,12.9-4,15.9-9c3.2-5.4,3.3-12.4,2.6-18.6c-0.3-2.7-0.9-5.3-1.6-7.7c1.2,0,2.4-0.6,3.2-1.4
		c1.6-1.7,2.1-4.3,2-6.7c1.2,1.8,2.4,3.6,3.5,5.6c0.7,1.2,1.2,2.5,1.8,3.8c0,0.4-0.1,0.8-0.2,1.2c-0.4,1.3-1.3,2.1-2.3,3
		c-1.9,1.7-4,4.2-2.7,6.9c1.2,2.4,4.6,2.2,6.3,0.5c1-1,1.5-2.4,1.8-3.9c0.9,2.3,1.8,4.6,2.9,6.7c-0.4,1.2-1,2.4-1.9,3.3
		c-1.7,1.8-3.8,4.2-2.9,6.9c0.8,2.5,3.7,3.5,5.8,1.6c1.1-1,1.5-2.5,1.9-3.8c0.2-0.6,0.3-1.2,0.4-1.7c0.2,1.1,0.4,2.2,0.7,3.2
		c0.4,1.4,0.8,2.8,1.3,4.2c0.5,1.3,1,2.6,2.1,3.4c1,0.8,2.3,1.2,3.6,0.8c1.4-0.5,2.1-1.8,2.1-3.2c0.1-2.6-1.8-5-3.3-6.9
		c-0.9-1.1-1.8-2.1-2.6-3.2c1.5,0.9,3.3,1.5,5,1.1c1.9-0.4,3.7-2.2,3.5-4.3c-0.2-2.6-3-3.5-5.2-3.7c-1.8-0.2-3.7,0-5.5-0.5
		c-0.4-0.1-0.7-0.3-1-0.5c-0.7-2-1.3-4-2-6c1.4,0.6,3,1,4.6,0.6c2.1-0.5,3.7-2.5,3.1-4.7c-0.7-2.5-3.7-2.7-5.8-2.7
		c-1.2,0-2.7,0.3-4.1,0.3c-0.7-1.8-1.5-3.6-2.4-5.4c-0.5-0.9-1-1.9-1.5-2.8c0.2,0,0.4-0.1,0.7-0.2c1.5-0.5,2.9-1.7,3.1-3.2
		c4.7,2,9.7,3.3,14.8,3c5.4-0.3,10.8-2.3,14.7-6.2c4-4,5.7-9.9,5.1-15.5c-0.2-1.5-0.5-2.9-0.9-4.3c6.3,2.6,13.2,3.8,20.1,3.8
		c4.6-0.1,9.3-0.7,13.8-1.9c5-1.3,9.9-3,14.9-4.3c6.4-1.7,13.1-3,19.4-0.6c0.4,0.2,0.9,0.3,1.2,0.1c0.2-0.1,0.4-0.4,0.5-0.6
		C837,538.8,837,536.4,836.6,534z M549.3,382.1c1,1,2.5,2.6,4.1,2.6c2.7-0.1,2.8-3.1,4.6-4.3c1.3-0.9,2.4-1,3.3-0.5
		c3.6,2,4.2,13.1,4.3,15.5c0.1,2.4,0.9,8-0.9,9.8c-3.1,3.2-7.6-5.4-9.3-7.2c-4.6-5.1-10.4-9.4-10.2-17.1
		C545.2,378.1,548.5,381.4,549.3,382.1z M552,419.9c-1.5,3.3-9.1,5.4-12.1,6.9c-1.1,0.5-5.7,3.8-6.2,0.9c-0.2-1,1-2,0.4-2.8
		c-0.5-0.6-2.5-0.5-3.2-0.5c-1.5,0-6,0.7-7-0.9c-1.1-1.8,3.9-2.1,5-2.4c0.9-0.2,2.5-0.8,2.2-2.1c-0.3-1.2-1.4-0.9-2.4-1.1
		c-2.6-0.4-5.9-0.9-7.9-2.7c-1.8-1.6,0.2-2.4,1.7-2.8c5.8-1.3,12.8,1.6,18.4,2.8c2.6,0.6,5.2,1.1,7.8,1.7
		C550.6,417.4,553.1,417.3,552,419.9z M557,412c-1.4,2-5.2,0.5-7,0.1c-2.3-0.5-4.7-1-7.1-1.6c-4.7-1-9.4-2.1-14.1-3.1
		c-2.2-0.5-7.3-2.4-6.5-5.5c0.5-2,4.1-1.5,4.3-3.2c0.2-1.3-2.2-1.7-3.1-2c-1.6-0.6-3.8-1.4-4.4-3.2c-0.8-2.2,2.3-2.7,4-3.2
		c0.3-0.1,0.7-0.2,0.9-0.4c2.2-1.9-3.4-4-2-6.7c1.2-2.5,6.5,0.8,8,1.5c7.8,3.9,14.8,9.2,20.8,15.5C552.7,402.4,559.5,408.5,557,412z
		 M570.7,423.1c-2.5,2.5-6.3,2.5-9.2,0.9c-0.3-0.2-0.6-0.3-0.9-0.5c-6.7-4.6,5.2-13.8,6.8-12.4c0.8,0.7,1.4,1.5,2.2,2.6
		C571.2,416.3,573.2,420.5,570.7,423.1z M780.4,492.4c8.7,0.1,17.3,2.3,25,6.6c0.8,0.5,1.6,1,2.4,1.5c-0.3,0.1-0.6,0.3-0.9,0.4
		c-2.1,1-4,2.2-5.8,3.6c-2.2,1.7-3.9,4.2-6.5,5.3c-2.6,1-5.4,1.3-8.1,1.3c-2.6,0-5.1-0.3-7.7-0.6C782.1,505,782.6,498.3,780.4,492.4
		z M769.3,488.2c0.7,0.7,1.4,1.4,2,2.2c2.8,3.7,3.3,7.9,2.2,11.6c-0.8,0.9-1.8,1.7-2.8,2.3c-2.6,1.5-5.6,2-8.6,1.9
		c-3.5-0.1-7-0.8-10.4-1.3c-3.6-0.5-6.9-0.6-10.5-0.1c-1.4,0.2-1,2.5,0.3,2.4c7.8-0.4,15.3,3.1,23.2,2.5c1.2-0.1,2.4-0.3,3.6-0.5
		c-1.8,1.3-4,2.3-6.4,2.8c-2.1,0.4-4.2,0.5-6.3,0.6c-9.8,0.2-19.4-0.8-29.1-2.3c-3.5-0.5-7.5-1.1-10.7-2.6c-7.2-3.3,6.5-4.4,8.4-4.5
		c4.2-0.4,2.2-2.6-0.6-3c-2.2-0.3-4.3,0.1-6.5,0.2c-2.9,0.1-2.4-1.4,0.1-2.1c1.7-0.5,3.3-0.4,4.9-1.6c-0.2-0.7-0.7-0.9-1.4-1
		c-1.2-0.2-2.5-0.3-3.7-0.3c-0.9,0-1.9,0.1-2.7-0.4c-4.6-3,9.2-6.2,10.5-6.5c6.2-1.5,12.4-2.9,18.6-4.2
		C751.9,482.5,762.5,481.9,769.3,488.2z M725.7,448.5c4.5-2.9,9.2-5.4,14-7.5c6.9-2.9,13.6-4.5,20.5-0.9c1.7,0.9,3.5,2,4.8,3.4
		c0.2,0.2,0.4,0.4,0.6,0.7c0.1,0.5,0.2,0.9,0.2,1.4c0,1.2-0.1,2.1-0.6,3.2c-1.1,2.2-2.9,4.2-4.7,5.8c-3.8,3.5-8.5,5.8-12.8,8.7
		c-0.9,0.6-0.4,2.4,0.8,1.9c5.5-2.2,10.8-5.1,15.2-9.2c1.6-1.5,3.1-3.2,4.2-5c-0.2,5.2-4.1,10.3-8.3,13.2c-4.4,3.1-9.2,5.6-14,8
		c-5.3,2.6-10.7,4.9-16.2,6.9c-4.6,1.7-11.2,5.1-16.1,4.2c-7.4-1.4,7.2-11.6,9.1-12.8c1.2-0.7,0.4-2.6-0.9-2.2
		c-4,1.3-11.3,7.2-15.3,2.8c-0.7-0.8-0.9-1.9-0.7-2.9c0.8-4.5,4.9-7.6,8.1-10.5C717.4,454.4,721.4,451.3,725.7,448.5z M689.9,422.4
		c3.5-6.7,8.4-12.1,13.4-17.8c2.7-3.1,5.7-5.9,9.3-7.7c3.7-1.7,8.1-2.2,11.8-0.6c14,6.3,2.2,26-2.6,34.4c-3.4,6-7.3,11.9-11.5,17.4
		c-1.9,2.5-11.7,17.6-16.5,13.6c-2.1-1.7,0.5-5.2,1.7-6.4c1-1,2-2.1,3-3.1c0.5-0.5,0.9-1.1,1.4-1.7c0.5-0.6,1-1.1,1.6-1.7
		c0.4-0.5,0.5-1.2,0.1-1.7c-0.4-0.5-1.1-0.7-1.6-0.3c-1.4,1-4.2,4.1-6.1,2.9c-2.6-1.7,0.6-7.7,1.3-9.8c0.4-1.3,1.2-3.1,1-4.5
		c-0.3-1.6-1.6-1.3-2.3,0c-3.5,6-4.6,14.2-9.6,19.2c-0.5,0.5-1.4,1-2,0.6c-0.6-0.3-0.8-1-0.9-1.6
		C679.4,443.3,685.1,431.4,689.9,422.4z M649.3,397.8c0.5-5.5,1.7-11.6,5.6-15.9c0.5-0.5,1-1,1.5-1.4c-0.2,0.6-0.4,1.2-0.6,1.8
		c-1.1,4.2-1.5,8.6-1.8,12.9c-0.2,2.5-0.3,4.9-0.3,7.4c-0.1,2.5-0.4,5.3,0.3,7.7c0.3,1.2,2.2,1.3,2.6,0c0.5-2.1,0.3-4.6,0.4-6.7
		c0.1-2.1,0.2-4.3,0.4-6.4c0.3-3.9,0.5-8,1.8-11.8c1-3.1,2.7-6.2,5.3-8.2c5-0.6,10.2,1,13.7,4.7c3.4,3.6,4.4,9,4.6,13.8
		c0.2,5.7-0.5,11.4-1.1,17c-0.4,3.2-0.5,6.4-1,9.6c-0.6,3.8-1.5,7.6-2.5,11.3c-1.6,5.6-3.3,11.3-5.4,16.7c-0.7,1.7-1.9,4.2-3.9,2.3
		c-1.3-1.2-0.6-4.5-0.5-6c0.1-1.4,0.2-2.7,0.3-4.1c0.1-1.4,0-2.8,0.3-4.2c0.3-1.3-1.5-1.7-2-0.5c-0.6,1.5-1.4,2.8-1.9,4.3
		c-0.5,1.3-0.8,2.7-1.1,4.1c0,0,0,0,0,0c-0.1-0.4-0.2-0.7-0.3-1.1c-0.6-1.9-1.2-3.9-1.9-5.8c-0.7-2-1.7-3.9-2.4-5.8
		c-0.5-1.2-2.3-0.8-2,0.6c0.4,2.3,0.6,4.6,1,7c0.4,2.4,0.9,4.8,1.3,7.1c0.2,1.3,0.9,4-1.3,4.2c-3.2,0.2-5.5-13.3-6.1-15.8
		c-1.5-6.2-2.4-12.4-2.9-18.8C648.7,411.3,648.7,404.5,649.3,397.8z M588.9,420c-0.6-4.4,0.2-9.5,3.3-12.8c3.4-3.7,8.7-4.5,13.4-3.4
		c5.6,1.3,10.2,4.9,14.3,8.8c4.3,4.2,8.3,8.7,12,13.4c3.9,4.9,7.4,10.2,10.5,15.6c2.4,4.2,8,10.3,7,15.5c-1.3,7.1-8.7-3-10.5-4.9
		c-3.1-3.2-6.7-6-10.3-8.5c-0.6-0.4-1.4,0.1-1.6,0.8c-0.2,0.8,0.8,1.7,1.3,2.3c3.3,3.6,7.4,7.5,9.6,11.9c0.7,1.5,2.1,4.4,1.8,6.6
		c-8.5-3.5-16.8-7.4-24.9-11.8c-2.1-1.8-4.2-3.7-6.2-5.6c-4.4-4.2-8.7-8.6-12.5-13.3C592.7,430.4,589.6,425.4,588.9,420z
		 M560.5,457.7c2.3-4.3,7.2-6.5,11.9-7c10.6-1.2,21.7,2.5,31,7.3c5.7,3,11.1,6.6,16.3,10.4c2.6,1.9,5.1,3.9,7.6,6
		c1.2,1,5.8,3.9,4,5.8c-1.1,1.2-4.1,0.4-5.4,0c-2.6-0.7-5.2-2-7.7-3c-0.7-0.3-1.6,0.3-1.9,0.9c-0.3,0.7,0,1.6,0.7,2
		c3.4,2,6.7,3.9,10,6c0.7,0.4,1.4,0.9,1.5,1.7c0.1,0.8-0.4,1.5-1,1.9c-0.7,0.4-1.5,0.5-2.2,0.6c-6.2,0.9-11.9-0.3-17.9-1.4
		c-4.8-0.9-9.6-2-14.3-3.4c-5.8-1.7-11.5-3.7-17.1-6.2c-4.8-2.1-9.9-4.7-13.3-8.9c-0.9-1.1-1.6-2.3-2.2-3.7c0.4,0.3,0.7,0.7,1.1,1
		c2,1.7,4.2,3,6.5,4.1c2.4,1.1,4.8,1.9,7.4,2.6c1.2,0.3,2.1-1.5,0.9-2.1c-2.1-1-4.2-2-6.3-3.1c-2-1-3.9-2.1-5.5-3.6
		c-1.5-1.3-2.9-3.1-3.7-5c-0.4-1-0.6-2-0.5-3C560.4,457.9,560.4,457.8,560.5,457.7z M570.6,490.4c-0.5-0.3-1.6-0.3-2.4-0.4
		c-0.1,0-0.2-0.1-0.3-0.1c-1.5-0.5-3-0.9-4.5-1.3c-1.8-1.2-2.2-4-2.1-6c0-0.3,0-0.7,0-1c1.1,0.8,2.3,1.5,3.4,2.2
		c0.1,0.9,0.6,1.8,1.2,2.6C567.1,487.9,568.8,489.3,570.6,490.4z M572.5,497.7c5.6-1.5,11.4-2.4,17.2-2.8c5.8-0.4,11.6-0.2,17.3,0.4
		c2.5,0.5,5,0.8,7.6,1.2c3.1,0.4,6.2,1.4,9.1,2.3c1.6,0.5,5.6,2,2.9,3.9c-2.2,1.5-4.5,1.8-7,2.3c-3.8,0.7-7.5,1.4-11.3,2
		c-1.7,0.3-1.3,3.1,0.4,3c3.9-0.2,7.8-0.4,11.6-0.9c2.5,0,4.6-1,7.1-0.5c0.2,0,0.3,0.1,0.5,0.2c0.3,0.3,0.1,0.8-0.1,1.1
		c-1.4,1.8-5.1,2.6-7.1,3.5c-2.7,1.2-5.5,2.3-8.2,3.4c-5.5,2.2-11.2,4.1-16.9,5.6c-8.8,2.2-18.6,3.7-27.7,2.1
		c-2.5-0.5-5.4-1.2-8-2.4c-4.1-1.9-7.5-4.9-8.1-9.5C550.4,502.7,565.7,499.5,572.5,497.7z M546,520.9c1.5,2,3.4,3.8,5.6,5.1
		c2.3,1.4,4.7,2.4,7.3,3.1c0,0.2,0.1,0.3,0.2,0.5c1.8,3.9,4.4,7.4,7.6,10.4c-3.3,0.6-7,2.3-10.3,1.3c-3.5-1.1-6.5-3.7-8.6-6.7
		c-1.6-2.2-2.9-4.5-4-6.9c-0.3-0.6-2.4-6.8-2.4-6.8C542.8,520.8,544.4,520.8,546,520.9z M523,523.7c4-1.2,8.6-2.7,12-0.6
		c0.9,0.5,1.7,1.3,2.4,2.4c1.7,2.7,2.5,6,4.2,8.8c1.8,3,4,5.8,6.5,8.4c-7.8,1-16.3,2.3-20.9-5.5C526.5,536.1,521.8,524.1,523,523.7z
		 M515.8,528c0.3,0.1,0.7,0.2,1,0.4c2.9,1.4,3.1,4.5,4.3,7.4c1.4,3.4,3.3,6.2,5.6,8.9c-4.6,0.6-11.5-1.1-14.5-4.7
		c-0.3-0.3-0.5-0.6-0.8-0.9c0,0,0,0,0,0c0-0.1-0.1-0.1-0.1-0.2c-0.1-0.2-0.3-0.4-0.4-0.5c-1.8-2.5-3-4.9-3.9-7.6
		C506.4,529.3,514.5,527.7,515.8,528z M496.4,538.2c1.3-1.1,2.9-2.3,4.7-2.4c0.3,0,0.7,0,1,0.1c3.3,0.9,5.2,6.2,7.4,8.5
		c-5.6-0.5-11.1-1.4-16.6-2.8C493.2,541.8,495.9,538.6,496.4,538.2z M536,566.3c-3,1.4-6.5,1.4-9.6,0.1c-6.5-2.6-12.5-6.3-18.1-10.4
		c-3.5-2.5-6.9-5.3-10.2-8.1c10.5,2,21.3,2.3,32,1.6c6.9-0.4,13.8-1.3,20.7-2.2c-4.3,4.9-7.2,10.3-10.8,15.6
		C538.9,564.5,537.5,565.6,536,566.3z M571.5,552.9c-0.2,2.6,0.1,5.9,0.9,8.9c-8.4,6-19.9,8.1-30,7.8c-0.1,0-0.1,0-0.2,0
		c2.7-6.1,5.9-12,10.2-17.2c5.6-6.8,10.5-6.5,18.8-8.3c1.3-0.3,2.6-0.6,3.9-1C573.2,546.1,571.9,549.3,571.5,552.9z M574.3,537.3
		c-4.1-0.6-7-3.5-9-6.8c0,0-0.1-0.1-0.1-0.1c1.2,0.2,2.4,0.3,3.7,0.5c6.2,0.6,12.4,0.3,18.5-0.6c-0.1,0.1-0.3,0.2-0.4,0.4
		C584,533.7,578.8,538,574.3,537.3z M620.3,551.7c-8.5,5.4-18.2,9.7-28.2,11.7c-3.4,0.7-7.3,0.9-10.3-0.9c-0.2-0.4-0.3-0.7-0.4-1.1
		c-0.6-2.1-0.4-4.6,0.5-6.6c2.2-4.9,6.5-8.7,11.1-11.3c1.1-0.7,0.1-2.3-1-1.7c-3,1.4-5.8,3-8.3,5.3c-2.5,2.3-4.2,4.7-5.6,7.8
		c-0.1,0.3-0.2,0.5-0.4,0.8c-0.1-0.4-0.1-0.8-0.1-1.1c0-0.3,0-0.7,0-1c0-0.2,0-0.4,0-0.5c0-0.1,0-0.1,0-0.1c0.1-0.8,0.3-1.6,0.6-2.3
		c0.4-1.2,1.2-2.7,2.1-4.1c1.9-2.8,4.7-5.6,7.5-8c6-5.1,13-9.1,20-12.9c0.2-0.1,0.4-0.3,0.6-0.4c3.9-1.4,7.7-2.9,11.5-4.5
		c1.9-0.8,3.9-1.7,5.8-2.5c1.7-0.8,3.9-2.5,5.9-1.7c1.6,0.6,2.9,3.6,2.2,5.1c-0.7,1.4-2.8,1.8-4.1,2.3c-1.8,0.7-3.7,1.4-5.5,2.1
		c-1.5,0.6-0.9,2.8,0.7,2.4c3.1-0.8,6.2-1.5,9.3-2.3c0.8-0.2,1.9-1,2.5,0c0.7,1.2-1.3,2.7-2,3.5c-0.3,0.4-0.7,0.7-1,1.1
		c-0.2,0.2-0.4,0.5-0.6,0.8c-0.1,0.2-0.2,0.3-0.3,0.5c0,0.1,0,0.1,0,0.1c0,0,0,0-0.1,0.1c-0.9,1.3,0.8,2.9,2.1,2.1
		c0,0,0.1-0.1,0.1-0.1c0.2-0.1,0.4-0.2,0.5-0.3c0.3-0.2,0.5-0.4,0.8-0.6c0.4-0.3,0.8-0.6,1.2-0.9c0.8-0.6,1.5-1.2,2.2-1.9
		c0.6-0.5,1-0.6,1.8-0.8c0.4-0.1,0.8-0.1,1.1,0.1c0.1,0.1,0.2,0.3,0.3,0.5c0.5,1.8-2.9,4.7-4,6c-1.8,2.1-3.7,4-5.8,5.9
		C629.2,545.5,624.9,548.8,620.3,551.7z M666.3,554.6c-1.6,7.5-3.9,16-7.8,23.3c-4.2,8-10.3,14.6-19.2,17.3c-0.7,0.2-1.3,0.4-2,0.5
		c5.8-2.9,10.1-8.5,13-14.2c0.7-1.4-1.2-2.5-2.1-1.2c-3.6,5.4-8.4,10.8-15.1,11.6c-3,0.4-6.1,0.3-8.8-1.4c-1.6-1-2.9-2.7-3.7-4.5
		c-0.6-2.9-0.3-6,0.5-9.1c2.8-10.2,8.8-19.6,15.5-27.6c2-2.5,4.2-4.8,6.4-7.1c1.9-2,4-4.8,6.4-6.2c0.6-0.3,1.2-0.5,1.8-0.2
		c0.8,0.3,1.3,1.4,1.1,2.3c-0.3,1.8-2.1,4-3,5.6c-1.6,2.6-3.2,5.1-4.8,7.7c-3.3,5.3-6.4,10.7-9.7,16.1c-0.8,1.4,1.2,2.5,2.1,1.2
		c3.6-5,7.2-10,10.7-15.1c1.7-2.5,3.4-5,5.1-7.5c0.8-1.2,1.5-2.5,2.4-3.6c0.2-0.3,0.5-0.5,0.8-0.7c0.3-0.2,0.7-0.2,1,0.1
		c0.2,0.2,0.2,0.5,0.3,0.7c0.3,2.4-0.4,5.2-0.7,7.6c-0.2,1.6-0.4,3.3-0.1,5c0.2,1,1.7,1.2,2.2,0.3c0.8-1.5,1-3.2,1.4-4.8
		c0.3-1.5,0.7-3.1,1-4.6c0.3-1.5,0.5-2.9,1.1-4.4c0.2-0.6,0.6-1.3,1.2-1.6c0.6-0.4,1.4-0.4,1.9,0.2c0.3,0.3,0.4,0.7,0.4,1.1
		c0.4,2.2,0.4,4.2,0.5,6.5C666.2,549.7,666.8,552.5,666.3,554.6z M660.1,532c-7-2.1-13.2-6.4-18-12c-4.6-5.3-7.7-12.2-8.1-19.2
		c-0.4-7.3,1.2-15.1,4.5-21.6c3.4-6.7,8.7-12.4,15.7-15.3c8.1-3.3,17.4-4,25.7-1.4c2.2,0.7,4.2,1.5,6.3,2.5
		c12.7,6.5,20.4,20.6,19.9,34.7c-0.6,14.5-11.3,27.1-24.8,31.7C674.4,533.8,667,534.1,660.1,532z M710.2,597.5
		c-0.6,2.6-1.8,5.1-3.6,7c0.1-0.7,0.3-1.4,0.3-2c0.4-3.6,0.1-7.3-0.3-10.8c-0.2-1.9-0.5-3.8-0.9-5.6c-0.4-1.9-1.3-3.8-1.9-5.6
		c-0.4-1.2-2-0.7-1.8,0.5c0.3,1.6,0.2,3.2,0.3,4.9c0.1,1.7,0.3,3.3,0.5,5c0.3,3.1,0.4,6.3,0.2,9.5c-0.1,2.5-0.6,5.3-2.3,7.2
		c-0.2,0.2-0.4,0.4-0.5,0.5c-3.6,0.6-7.4-0.4-10.6-2.2c-9.1-5.2-12-16.8-14-26.3c-1.4-6.5-2.4-13.1-2.9-19.8
		c-0.3-4.2-0.5-8.3-0.6-12.5c0-1.5-0.1-3.1,0.6-4.4c0.7-1.4,2-1.1,3-0.2c1.2,1.1,1.5,2.8,2,4.3c1.1,3.8,1.6,7.7,2.1,11.6
		c0.1,0.9,1,4.1,2.2,2.4c0.3-0.5,0.1-1.8,0.1-2.4c-0.1-2.2-0.2-4.4-0.3-6.6c-0.1-2.5-0.2-5,0-7.5c0.1-0.9,0-3.3,1-3.9
		c0,0,0.1,0,0.1,0c2.8-0.1,6.2,7.6,7.7,9.6c0.3,0.5,1.2,1.9,1.9,1.7c1.1-0.3,0.6-2.1,0.4-2.8c-0.6-2.2-1.7-4.3-2.6-6.4
		c-0.7-1.5-3-10.8,1.7-7.6c3.5,2.3,5.4,9.1,7,12.8c2.2,5,4.1,10.1,5.7,15.4c1.8,5.6,3.2,11.4,4.5,17.1
		C710.3,585.8,711.6,591.8,710.2,597.5z M715.6,569.6c-0.4,0.6-0.8,1.1-1.2,1.7c-0.3-1-0.6-2-0.9-3c-0.1-0.3-0.2-0.6-0.3-0.9
		c1.3-1.6,1.7-3.7,1.6-5.8c0.6,0.8,1.3,1.7,1.9,2.5C717.1,566,716.7,567.9,715.6,569.6z M759,558.1c-2.2,3.5-6.4,5.5-10.5,6.1
		c-5.1,0.7-10.3-0.7-14.9-2.8c-4.7-2.1-9.1-4.8-13.2-7.8c-5.5-4-10.4-8.7-14.6-14c-2.1-2.6-4-5.3-5.7-8.1c-0.5-0.8-2.1-2.5-1.5-3.5
		c2.1-3.5,11.8,3.1,13.7,4.1c3.5,1.8,7.2,3.9,11.1,4.8c1.6,0.4,2.4-1.7,1.1-2.6c-3.2-2.3-6.9-3.9-10.3-5.8c-2.1-1.2-4.8-2.3-6.4-4.1
		c-2.5-2.9,0.4-5,3.5-5.8c2-0.5,4.1-0.5,6.1-0.2c6.5,0.8,12.7,3.3,18.8,5.7c5.4,2.2,10.7,5.3,15.1,9.2c3.6,3.2,7,7,8.7,11.6
		C761.3,549.1,761.5,554.1,759,558.1z M759.5,533.1c-3.8-4.4-8.6-8-13.3-11.1c-2-1.3-4.1-2.5-6.2-3.7c1.9,0.2,3.8,0.4,5.7,0.6
		c5.1,0.5,10.9,1.3,16.3,0.8C760.2,523.9,759.4,528.5,759.5,533.1z M775.9,542.2c-2.8-0.6-5.1-1-6.9-3.1c-2-2.3-4.3-5-4.4-8.2
		c-0.2-3.8,1.4-8.1,3.2-11.3c0.2-0.3,0.3-0.6,0.3-0.9c2.1-0.6,4.1-1.6,6-2.9c2.5,1.7,3.9,5.3,3.9,8.1c0,6.5,0.6,12.8,2.5,19.1
		C778.9,542.8,777.4,542.6,775.9,542.2z M790.9,542.8c-1.4,0-3-0.4-4.1-1.2c0,0-0.1,0-0.1-0.1c-3.5-2.6-3.5-8-3.8-12
		c-0.1-1.1,0.1-13.9,0.9-13.8c4.4,0.7,7.9,4.6,8.3,8.8c0.6,5.9,2.2,11.8,4.4,17.3C796.6,541.8,791.5,542.8,790.9,542.8z M802.7,538
		c-1.7-0.7-3.1-2.2-4.1-4.9c-1.7-4.6-1.8-9.7-2-14.4c0,0.3,7.1,2.5,7.8,3c5,3.2,6,10.8,8.6,15.7C809.2,538.3,805.5,539.2,802.7,538z
		 M818.5,534.7c-1.1-0.5-2-1.3-2.8-2.6c-0.7-1.1-1.3-5.8-2.3-6.3c1.7,0.9,3.3,1.9,4.9,3c2.9,1.9,5.7,4,8.3,6.3
		C823.8,535.2,820.9,535.8,818.5,534.7z M798.2,513.9c0.4-0.6,0.9-1.2,1.3-1.7c1.4-1.6,2.9-3.1,4.6-4.5c1.9-1.5,4.4-2.6,6.9-2.3
		c7.1,1.1,11.6,8.8,14.7,14.6c1.9,3.6,3.4,7.5,4.4,11.4C820.8,523.5,809.9,517.5,798.2,513.9z"/>
	<path d="M653.6,476.5c4.4,0,4.4-6.9,0-6.9C649.2,469.6,649.2,476.5,653.6,476.5z"/>
	<path d="M647.6,483c0.2-0.2,0.4-0.4,0.6-0.7c0.3-0.5,0.4-1,0.4-1.6c0-0.2,0-0.3-0.1-0.5c0-0.2,0-0.3-0.1-0.5c0-0.1,0-0.1-0.1-0.2
		c-0.1-0.2-0.2-0.5-0.3-0.7c-0.2-0.4-0.5-0.6-0.8-0.9c-0.2-0.2-0.4-0.3-0.7-0.4c-0.4-0.2-0.8-0.3-1.2-0.3c-0.3,0-0.5,0.1-0.8,0.1
		c-0.2,0.1-0.5,0.2-0.7,0.3c-0.4,0.2-0.6,0.5-0.9,0.8c-0.3,0.3-0.5,0.6-0.5,1c-0.1,0.4-0.2,0.7-0.2,1.1c0,0.6,0.1,1.1,0.4,1.6
		c0.2,0.3,0.3,0.5,0.6,0.7c0.6,0.6,1.3,0.9,2.1,0.9C646.3,483.9,647.1,483.5,647.6,483z"/>
	<path d="M655.9,487.1c4.1,0,4.1-6.4,0-6.4C651.8,480.7,651.8,487.1,655.9,487.1z"/>
	<path d="M647.4,494.1c3.1,0,3.2-4.9,0-4.9C644.3,489.2,644.3,494.1,647.4,494.1z"/>
	<path d="M658.8,496.6c0.8-0.5,1.3-1.3,1.3-2.3s-0.5-1.8-1.3-2.3c-0.4-0.2-0.9-0.4-1.3-0.4c-0.5,0-0.9,0.1-1.3,0.4
		c0,0-0.1,0.1-0.1,0.1c-0.4,0.2-0.7,0.5-0.9,0.9c-0.2,0.4-0.3,0.8-0.3,1.3c0,0.5,0.1,0.9,0.3,1.3c0.2,0.4,0.5,0.7,0.9,0.9
		c0,0,0.1,0.1,0.1,0.1c0.4,0.2,0.9,0.4,1.3,0.4C658,497,658.4,496.8,658.8,496.6z"/>
	<path d="M641.7,493.7c-0.4-0.3-0.9-0.4-1.4-0.4c-0.1,0-0.3,0-0.4,0c-0.1,0-0.3,0-0.4,0.1c0,0-0.1,0-0.1,0c-0.2,0.1-0.4,0.2-0.6,0.3
		c-0.3,0.2-0.5,0.4-0.7,0.7c-0.2,0.2-0.3,0.4-0.3,0.6c-0.2,0.3-0.2,0.6-0.2,1c0,0.2,0.1,0.5,0.1,0.7c0.1,0.2,0.2,0.4,0.3,0.6
		c0.2,0.3,0.4,0.5,0.7,0.7c0.3,0.2,0.5,0.4,0.9,0.5c0.3,0.1,0.6,0.1,0.9,0.1c0.4,0,0.7-0.1,1-0.2c0.1,0,0.2-0.1,0.3-0.1
		c0,0,0.1,0,0.1-0.1c0.8-0.5,1.3-1.3,1.3-2.2S642.5,494.1,641.7,493.7z"/>
	<path d="M649,500.3c-4.8,0-4.8,7.4,0,7.4C653.8,507.7,653.8,500.3,649,500.3z"/>
	<path d="M667,468c-0.2-0.4-0.5-0.7-0.9-1c-0.3-0.3-0.7-0.5-1.2-0.6c0,0,0,0,0,0c-0.6-0.2-1.2-0.2-1.8,0c-0.6,0.2-1.1,0.5-1.5,0.9
		c-0.2,0.2-0.4,0.5-0.5,0.7c-0.3,0.5-0.5,1.1-0.5,1.8c0,0.5,0.1,0.9,0.3,1.3c0.1,0.4,0.4,0.8,0.7,1.1c0.4,0.4,0.9,0.7,1.5,0.9
		c0.6,0.2,1.2,0.2,1.8,0c0,0,0,0,0,0c0.3-0.1,0.5-0.2,0.8-0.3c0.4-0.2,0.7-0.5,1-0.9c0.2-0.2,0.4-0.5,0.4-0.8
		c0.2-0.4,0.3-0.9,0.3-1.3c0-0.3-0.1-0.6-0.1-0.9C667.2,468.6,667.1,468.3,667,468z"/>
	<path d="M653.8,513.5c-0.3-0.2-0.5-0.4-0.8-0.6c-0.6-0.3-1.2-0.5-1.9-0.5c-0.5,0-1,0.1-1.5,0.3c-0.5,0.2-0.9,0.4-1.2,0.8
		c-0.4,0.3-0.6,0.8-0.8,1.2c-0.2,0.5-0.4,1-0.3,1.5c0,0.3,0.1,0.7,0.1,1c0.2,0.6,0.5,1.2,1,1.7c0.3,0.2,0.5,0.4,0.8,0.6
		c0.6,0.3,1.2,0.5,1.9,0.5c0.5,0,1-0.1,1.5-0.3c0.5-0.2,0.9-0.4,1.2-0.8c0.4-0.3,0.6-0.8,0.8-1.2c0.2-0.5,0.4-1,0.3-1.5
		c0-0.3-0.1-0.7-0.1-1C654.6,514.5,654.3,514,653.8,513.5z"/>
	<path d="M662,520.2c-0.2-0.2-0.4-0.3-0.6-0.5c-0.5-0.3-0.9-0.4-1.5-0.4c-0.4,0-0.8,0.1-1.1,0.3c-0.4,0.1-0.7,0.3-0.9,0.6
		c-0.3,0.3-0.5,0.6-0.6,0.9c-0.2,0.3-0.3,0.7-0.3,1.1c0,0.3,0.1,0.5,0.1,0.8c0.1,0.5,0.4,0.9,0.8,1.3c0.2,0.2,0.4,0.3,0.6,0.5
		c0.5,0.3,0.9,0.4,1.5,0.4c0.4,0,0.8-0.1,1.1-0.3c0.4-0.1,0.7-0.3,0.9-0.6c0.3-0.3,0.5-0.6,0.6-0.9c0.2-0.3,0.3-0.7,0.3-1.1
		c0-0.3-0.1-0.5-0.1-0.8C662.6,521,662.3,520.6,662,520.2z"/>
	<path d="M677.6,467c-0.1-0.1-0.1-0.2-0.2-0.3c-0.1-0.2-0.3-0.3-0.4-0.4c-0.1-0.1-0.2-0.2-0.3-0.2c-0.8-0.4-1.7-0.4-2.5,0
		c-0.4,0.2-0.7,0.5-0.9,0.9c-0.2,0.4-0.3,0.8-0.3,1.2c0,0.3,0,0.5,0.1,0.7c0.1,0.4,0.3,0.8,0.6,1.1c0.1,0.2,0.3,0.3,0.5,0.4
		c0.4,0.2,0.8,0.3,1.3,0.3c0.3,0,0.7-0.1,1-0.2c0.3-0.1,0.6-0.3,0.8-0.5c0.3-0.3,0.5-0.7,0.6-1.1c0,0,0,0,0,0c0-0.2,0.1-0.4,0.1-0.7
		c0-0.2-0.1-0.4-0.1-0.7C677.8,467.4,677.7,467.2,677.6,467z"/>
	<path d="M642.1,502.9C642.1,502.9,642.1,502.9,642.1,502.9C642,502.8,642,502.8,642.1,502.9C642,502.8,642,502.8,642.1,502.9
		c-0.5-0.7-0.4-0.6-1-1c0,0,0,0,0,0c0,0,0,0,0,0c-0.2-0.1-0.5-0.2-0.7-0.3c-0.3,0-0.5-0.1-0.8-0.1c-0.1,0-0.3,0-0.4,0.1
		c-0.1,0-0.3,0-0.4,0.1c-0.5,0.1-0.9,0.4-1.3,0.8c-0.4,0.4-0.6,0.8-0.8,1.3c-0.1,0.5-0.1,1,0,1.6c0.1,0.5,0.4,0.9,0.8,1.3
		c0.4,0.4,0.8,0.6,1.3,0.8c0.5,0.1,1,0.1,1.6,0c0.5-0.1,0.9-0.4,1.3-0.8c0.4-0.4,0.6-0.8,0.8-1.3c0-0.1,0.1-0.3,0.1-0.4
		c0-0.1,0-0.3,0.1-0.4c0-0.3-0.1-0.5-0.1-0.8C642.3,503.3,642.2,503.1,642.1,502.9z"/>
	<path d="M673,509c-0.2-0.1-0.3-0.3-0.5-0.4c-0.4-0.2-0.8-0.3-1.2-0.3c-0.3,0-0.7,0.1-0.9,0.2c-0.3,0.1-0.6,0.3-0.8,0.5
		c-0.2,0.2-0.4,0.5-0.5,0.8c-0.2,0.3-0.2,0.6-0.2,0.9c0,0.2,0.1,0.4,0.1,0.7c0.1,0.4,0.3,0.8,0.6,1.1l0.5,0.4
		c0.4,0.2,0.8,0.3,1.2,0.3c0.3,0,0.7-0.1,0.9-0.2c0.3-0.1,0.6-0.3,0.8-0.5c0.2-0.2,0.4-0.5,0.5-0.8c0.2-0.3,0.2-0.6,0.2-0.9
		c0-0.2-0.1-0.4-0.1-0.7C673.5,509.7,673.3,509.3,673,509z"/>
	<path d="M683.4,487.7c2.9,0,2.9-4.5,0-4.5C680.5,483.2,680.5,487.7,683.4,487.7z"/>
	<path d="M685.3,503.5c0,0.3,0.1,0.5,0.1,0.8c0.1,0.2,0.2,0.5,0.3,0.7c0.2,0.3,0.4,0.6,0.8,0.8c0.2,0.2,0.4,0.3,0.7,0.4
		c0.4,0.2,0.7,0.3,1.2,0.3c0.3,0,0.5-0.1,0.8-0.1c0.2-0.1,0.5-0.2,0.7-0.3c0.3-0.2,0.6-0.4,0.8-0.8c0.2-0.2,0.3-0.4,0.4-0.7
		c0.2-0.4,0.3-0.7,0.3-1.2c0-0.3-0.1-0.5-0.1-0.8c-0.1-0.2-0.2-0.5-0.3-0.7c-0.3-0.5-0.6-0.8-1.1-1.1c-0.9-0.6-2.1-0.6-3,0
		c-0.3,0.2-0.6,0.4-0.8,0.8c-0.2,0.2-0.3,0.4-0.4,0.7C685.4,502.7,685.3,503.1,685.3,503.5z"/>
	<path d="M674.6,493.1c-2.4,0-2.4,3.7,0,3.7C677,496.8,677,493.1,674.6,493.1z"/>
	<path d="M697.9,492.6c3.2,0,3.2-5,0-5C694.7,487.6,694.7,492.6,697.9,492.6z"/>
	<path d="M690.4,514.2c2.9,0,2.9-4.5,0-4.5C687.5,509.8,687.5,514.2,690.4,514.2z"/>
</g>
<path d="M485.9,385.8c-0.2-0.2-0.4-0.4-0.6-0.5c-2.1-1-7.2,1.3-9.2,1.3c-2.2,0-4.3-0.3-6.7-0.6c-3.4-0.5-6.7-0.9-10.1-0.9
	c-1.6,0-3.2,0.1-4.7,0.3c-5.1,0.7-9.8,2.4-14.1,4.9c-8.6,5.1-14.9,13.7-17.3,23.6c-2.5,0.6-5.1,1.1-7.7,1.5
	c-6.7,1.1-13.6,1.8-20.2,2.4c-2.6,0.2-5.1,0.5-7.7,0.8c-4.5,0.5-8.8,1-12.8,1.7l-0.3,0c-0.2,0-0.4,0.1-0.6,0.1
	c-3.9,0.7-7.7,1.4-11.4,2.3c-0.2-0.5-0.4-1.1-0.6-1.6c0.7-1.2,1.6-2.3,2.7-3.4c3-3.2,6.8-5.6,10.4-8c1.3-0.8,2.6-1.7,3.8-2.6
	c0,0,0.1,0,0.1,0c5.3-0.3,10.6-1.6,15.6-3.6c9.7-4,17.3-10.4,22.2-18.6c5.4-9.1,7.4-19.9,5.8-30.5c-0.4-2.6-3.1-0.9-3.9,0.3
	c-0.9,1.3-1.1,3.1-2.1,4.4c-1.8,2.5-4.4,4.4-7.1,5.9c-1.9,1.1-4,2-6,3c-2.3,1-4.6,2.1-6.8,3.4c-3.7,2.2-7,5.1-9.7,8.8
	c-5.5,7.4-8,16.3-9.6,23.3c-1.4,1-2.8,2-4.2,2.9c-1.9,1.3-3.8,2.6-5.7,3.9c-2.8,2.1-5,4.1-6.7,6.1c-0.4-1.4-0.7-2.8-1.2-4.1
	c2.5-4.4,3.5-9.7,2.8-15c-0.6-4.2-2.4-8-4.2-11.7c-1.1-2.3-2.3-4.6-3.1-7.1c-0.5-1.4-0.5-4.5-2.5-4.9c-2.3-0.4-2.6,3.6-3.2,5.2
	c-1,2.7-2.4,5.2-3.9,7.7c-0.7,1.2-1.5,2.3-2.3,3.5c-3.3,4.9-6.6,9.9-7.5,15.8c-0.1,0.4-0.1,0.8-0.1,1.2c-0.8,0.3-1.6,0.4-2.1,0.4
	c-1.7,0-2.1-1.5-2.5-5.1c-0.1-0.9-0.2-1.8-0.3-2.7c-0.4-2.2-1.1-4.4-1.8-6.7c-0.5-1.6-1.5-3.8-3.3-5.6c-2.7-2.6-6.4-3.7-9.7-4.4
	l-7.1-3.6c-1.1-0.5-2.2-1.1-3.2-1.7c3.1-4.6,5.9-9.5,8.2-14.6c0.1,0,0.2,0.1,0.4,0.1c8,0.1,17.7-1.1,22.2-10.6
	c1.3,0.1,2.8-0.7,3.5-2.2c1.1-2.4,0.5-5.6-1.4-6.8c-2-1.3-4.5-0.1-5.2,2.7c-0.4,1.5-0.1,2.8,0.6,3.8c0,0.1,0.1,0.3,0.1,0.4
	c-4,5.7-9.6,8.1-15.5,8.4c4.8-4.7,10.3-11,11.7-18.3c1,0.1,2-0.2,2.7-0.8c1.1-1,1.7-2.9,0.9-4.4c0,0,0,0,0-0.1
	c-0.4-3.8-4.4-4.2-6.5-2.2c-1,0.9-1.4,2.7-1.1,4.2c0.3,1.2,1,2.1,1.9,2.6c-1.5,3.7-3,7.1-5.4,10.2c-1.6,2.1-3.5,3.9-5.3,5.6
	c0.2-1.9,0-3.8,0.1-5.6c0.1-2.7,0.4-5.5,0.7-8.2c1.3-0.3,2.3-1.3,2.8-2.8c0.3-0.8,0.4-1.8,0.1-2.7c-0.1-0.2-0.1-0.3-0.2-0.5
	c0-0.1,0-0.2-0.1-0.2c-1.1-3.6-5.5-3.3-6.9-0.1c-1,2.4,0,5,1.9,6c-1.2,4.2-2.6,9.6-2.3,14c-1.8-2.3-3.5-4.6-4.5-7.7
	c-1.2-3.5-1.6-7.3-1.6-11c1.2-0.1,2.2-1.1,2.6-2.3c0.5-1.4,0.3-3.1-0.6-4.4c-1.8-2.7-5.5-1.1-6,1.9c-0.3,1.7,0.5,3.2,1.7,3.9
	c-1.4,8.4,0.6,18.7,6.3,24.9c-0.1,0.1-0.1,0.1-0.2,0.2c-2.8,5.3-6,10.2-9.6,14.8c-1.1-0.6-2.2-1.3-3.3-2c-0.7-0.4-1.3-0.9-2-1.3
	c0.1,0,0.2-0.1,0.3-0.1c-1.7-5.9-4-11.8-6.9-17.5c0.1-0.1,0.2-0.2,0.3-0.3c5.1-6.1,10.2-14.5,5.6-24c0.9-1,1.2-2.6,0.5-4.1
	c-1.1-2.4-4.1-3.9-6.2-3.2c-2.3,0.7-2.9,3.5-1.2,5.8c0.9,1.2,2.2,1.9,3.4,2c0.1,0.1,0.2,0.1,0.4,0.2c2,6.7,0.3,12.6-3.1,17.3
	c-0.7-6.7-2.2-14.9-7-20.6c0.6-0.7,1.1-1.6,1-2.6c-0.1-1.5-1.2-3.1-2.9-3.4c0,0,0,0-0.1,0c-3.3-2.1-6,0.8-5.8,3.7
	c0.1,1.3,1.2,2.8,2.6,3.5c1.1,0.5,2.3,0.5,3.3,0.2c1.9,3.5,3.7,6.8,4.6,10.6c0.6,2.6,0.9,5.1,1,7.6c-1.3-1.3-2.9-2.4-4.3-3.6
	c-2-1.8-4.1-3.7-6-5.7c0.6-1.2,0.4-2.6-0.4-3.9c-0.5-0.8-1.1-1.4-2-1.8c-0.2-0.1-0.3-0.1-0.5-0.1c-0.1,0-0.1-0.1-0.2-0.1
	c-3.5-1.4-6,2.3-4.4,5.3c1.2,2.3,3.9,3.1,5.8,2.3c2.6,3.5,5.8,8,9.5,10.5c-2.9,0-5.7-0.2-8.8-1.3c-3.4-1.3-6.7-3.3-9.6-5.6
	c0.7-1,0.5-2.4-0.2-3.5c-0.8-1.3-2.3-2.2-3.8-2.3c-3.2-0.3-4.3,3.6-2.3,5.8c1.1,1.3,2.8,1.6,4.1,1.1c5.7,6.3,15,11.3,23.4,10.6
	c0,0.1,0,0.2,0.1,0.3c1.8,4.2,3.4,8.6,4.6,12.9c-0.4-0.4-0.9-0.8-1.3-1.3l-0.6-0.6c-2.2-2.2-4.4-4.4-7.1-6.1c-2.4-1.5-5-2.3-7.7-2.3
	c-0.8,0-1.5,0.1-2.3,0.2c-2.7,0.5-5.3,1.7-7.7,2.9c-0.5,0.3-1,0.5-1.6,0.8c-2,1-4.4,1.9-6.9,1.9c-0.5,0-1.1,0-1.6-0.1
	c-1.2-0.2-2.4-0.4-3.5-0.4c-1,0-2,0.1-2.8,0.4c-1.9,0.6-3.5,1.6-5.1,2.6l-0.4,0.2c-1.9,1.2-3.8,2.4-5.5,4c-1,0.9-1.7,2.3-2.4,3.6
	c-0.9,1.7-1.8,3.5-3,3.8c-0.1,0-0.3,0-0.4,0c-1.6,0-4.2-1.7-5.1-3c-0.7-1.1-1.3-2.3-1.9-3.6c-1.1-2.3-2.2-4.6-4.2-6.2
	c-0.9-0.7-1.7-1.1-2.5-1.1c-2,0-3.3,2.2-4.5,4.3c-1.1,1.9-2.3,3.9-3.8,4c-0.7,0-1.7-0.4-2.7-0.9c-1-0.4-2.1-0.9-3.1-1
	c-0.6-0.1-1.2-0.1-1.8-0.1c-1.2,0-2.3,0.1-3.5,0.4c-3,0.6-5.5,2.2-7.4,3.5c-0.4,0.3-0.8,0.5-1.1,0.8c-0.6,0.2-1.2,0.6-1.8,0.9
	c-1-1.6-1.9-3.2-2.9-4.8c-1.4-2.3-2.6-4.8-4.4-6.7c-1.9-1.9-4.5-2.6-7.1-2.2c-1.7,0.2-3.2,0.9-4.7,1.7c-2.9-6.1-6.5-11.9-10.8-17.1
	c-2.1-2.6-4.8-5.4-8.4-5.2c-1.6,0.1-2.9,1.4-4.5,1.1c-1.7-0.3-2.7-2-4.3-2.6c-1.8-0.6-3.8-0.4-5.5,0.5c-3.4-3.7-7.3-7.4-11.5-10.1
	c-1.6-1-3-1-4.3,0.5c-0.3,0.3-2.3,3.9-2.4,3.8c-3.8-1.3-7.6-2.7-11.4-4c-1.8-0.6-3.9-1.1-5.6-2c-1.1-0.5-1.7-1.5-2.9-0.9
	c-3.4,1.4-2,8.5-1.6,11.2c0.4,2.7,1.3,5.4,2.3,8c0.5,1.3,1.1,2.7,1.8,4c0.2,0.5,1.3,3.3,1.7,3.4c-1.3-0.3-2.7-0.2-3.9,0.6
	c-1.1,0.7-1.9,1.9-2,3.3c-0.1,1.3,0.5,2.5,1.1,3.7c2,4,4.4,7.8,7,11.4c-1.1,0.3-2.1,0.9-2.8,2c-1.4,2.5-0.6,5.4,1,7.6
	c1.8,2.4,3.9,4.6,5.9,6.9c1.7,1.9,3.3,3.8,5,5.8c-1.5,0.8-3,1.8-4.2,3c-0.6,0.5-0.7,1.6-0.3,2.3c3.7,5.5,9.1,9.7,15.3,11.9
	c-0.9,1.4-2.3,2.8-1.7,4.6c0.5,1.3,2,2.4,3,3.2c1.6,1.3,3.4,2.3,5.3,3.3c-0.6,2.4-1.5,4.7-2.4,6.9c-1.5,3.8-3,7.7-3.3,11.9
	c-0.5,8,2.8,15.3,8.6,19.7c1.4,1,2.9,1.9,4.6,2.7c-0.4,1.7-0.8,3.4-1.3,5.1c-1.4-0.4-2.8-0.7-4-0.9c-2-6.3-7.5-10.4-12-13.3
	c-3.2-2-6.9-3.7-9.4-6.6c-2.2-2.5-3-5.8-4.3-8.8c-2-4.8-4.6-9.4-8-13.3c-3-3.5-6.5-6.2-10.3-8.1c-2.3-1.1-4.7-2-7-2.9
	c-2.1-0.8-4.2-1.6-6.2-2.5c-4-1.9-7.6-4.6-9.6-8.6c-0.9-1.9-2.6-4.3-3.9-1.4c-1.6,3.6-0.2,10,0.6,13.8c1.3,6,3.7,11.7,7.2,16.7
	c5.4,7.8,13.5,13.7,23.5,17c6.4,2.1,13.9,1.4,20,4.8c3.8,2.1,7.7,4.3,10.9,7.2c1.8,1.6,3.1,3.3,4.1,5.1c-4.2-0.8-8.5-1.3-13.1-1.8
	c-0.2-0.1-0.4-0.1-0.7-0.1l-0.2,0l-0.1,0c-4.1-0.4-8.4-0.6-12.9-0.8c-2.6-0.1-5.1-0.1-7.7-0.2c-6.7-0.2-13.6-0.3-20.4-1
	c-3.9-0.4-6.2-1.5-8.7-4.6c-2.2-2.7-3.5-5.9-5.6-8.6c-3.3-4.2-7.6-7.6-12.4-10c-4.5-2.2-9.3-3.5-14.4-3.9c-0.7,0-1.4-0.1-2.1-0.1
	c-4.2,0-8.4,0.8-12.6,1.8c-2.9,0.6-5.6,1.2-8.2,1.2c-2.3,0-4.2-0.4-5.8-1.2c-0.2-0.1-0.3-0.2-0.5-0.2c-0.2-0.1-0.4-0.1-0.6-0.1
	c-0.3,0-0.5,0.1-0.7,0.2c-0.1,0-0.2,0.1-0.3,0.2c-0.6,0.4-0.9,1-0.8,1.7c0,0.4,0.1,0.7,0.3,1c4.8,9.7,12.2,18.3,21.2,24.7
	c9.3,6.7,17.6,10,25.2,10c1.6,0,3.2-0.1,4.7-0.4c2.9-0.6,5.7-1.6,8.2-3.3c2.1-1.4,3.9-3.6,6.4-4.5c2.7-1,6.4,0.1,9.3,0.3
	c6.9,0.6,13.8,0.7,20.8,0.9c2.4,0.1,4.8,0.1,7.1,0.2c-7.2,4.2-11.7,13.1-20.7,13.1c-1.1,0-2.1-0.1-3.3-0.1c-1.6-0.1-3.2-0.2-4.7-0.2
	c-2.5,0-4.6,0.2-6.5,0.7c-7,1.6-13.2,6.1-17,12.4c-0.3,0.4-0.5,0.9-0.8,1.3c-1.1,1.8-2.1,3.7-3.6,5.2c-2.7,2.8-8.2,5.4-1.5,6.7
	c6,1.2,12,2.6,18.2,2.6c2.5,0,4.8-0.2,7.1-0.6c4.8-0.9,8.8-2.7,12-5.2c2.8-2.2,5.2-5.3,7-9.1c1.5-3.1,2.5-6.3,3.2-9.6
	c1.2-5.4,7.2-10.4,11.6-13.2c3.1-2,6.4-3.1,9.8-3.2c4.4,0.4,8.4,0.9,12.2,1.6c3.2,0.6,6.4,1.2,9.4,2c-0.1,0.3-0.2,0.5-0.3,0.8
	c-0.3,0.7-0.6,1.4-0.9,2.1c-2.2-0.7-4.6-1.1-7-1.1c-0.2,0-0.5,0-0.7,0c-6.4,0.2-12.5,3.8-15.9,9.3c-0.4,0.7-0.8,1.4-1.2,2.2
	c-0.8,1.6-1.6,3.6-3.1,4.7c-1.1,0.8-3.1,0.5-3.8,1.7c-1.2,1.7,0.9,3.1,2.1,3.9c1.9,1.3,4,2.4,6.2,3.2c1.2,0.4,5.6,2.2,6.8,1.4
	c-0.6,0.4-1,1.3-0.8,2.1c0.3,1.1,0.6,2.1,1,3.2c-6.6,0.5-12.9,3.2-17.8,7.6c-0.6,0.5-0.7,1.6-0.3,2.3c0.9,1.5,2.1,2.8,3.4,4
	c-2,1.4-4.1,2.8-6.1,4.2c-2.5,1.7-5.1,3.3-7.5,5.2c-2.1,1.7-3.7,4.3-3,7.1c0.3,1.3,1.2,2.2,2.2,2.8c-3.4,2.8-6.5,5.8-9.4,9
	c-0.8,0.9-1.7,1.9-2.1,3.2c-0.4,1.3-0.1,2.6,0.7,3.6c1,1.3,2.4,1.8,3.9,1.9c-0.9,0-4,4.6-4.6,5.4c-1.6,2-3,4.1-4.1,6.3
	c-1.3,2.5-5.3,10-2.1,12.4c1,0.8,2.8,0.3,3.9,0.2c1.9-0.2,3.8-0.3,5.7-0.5c3.8-0.3,7.6-0.6,11.4-0.9c0.6,1.7,1.1,3.4,1.7,5.1
	c0.3,0.9,1.3,1.7,2.3,1.3c5.3-1.9,10.3-4.3,15-7.3c1.3,1.3,3.2,1.9,5.1,1.8c2.1-0.1,3.9-1.1,5.5-2.3c0.5,1.2,1.4,2.3,2.7,2.9
	c3.6,1.7,7.2-0.4,10-2.5c5.5-4,10.5-8.7,14.9-13.9c1.1,1.1,2.3,2.1,3.8,2.7c2.5,1.1,5.2,1.2,7.6-0.1c2.3-1.3,4.1-3.5,5.9-5.3
	c1.2-1.2,2.5-2.4,3.7-3.6c3,0.7,6.1,1.2,9.2,1.5c0.4,0,0.9,0,1.4,0c0.4,0,0.8,0,1.2,0c0.4,0,0.9,0,1.3,0c1.8,0,3.6,0.1,4.8,1.1
	c1.4,1.1,1.6,2.7,1.9,4.7c0.2,1.9,0.5,3.9,2,5.5c1,1,2.3,1.7,3.8,2c0.6,0.1,1.2,0.2,1.7,0.2c-3.2,2.2-6.4,4.6-9.4,7.2
	c-0.1-0.1-0.2-0.1-0.3-0.2c-7.2-3.5-16.5-6.4-24.6,0.3c-1.2-0.7-2.8-0.6-4.1,0.5c-2,1.7-2.8,4.9-1.6,6.8c1.3,2,4,2,5.9-0.2
	c1-1.2,1.3-2.5,1.1-3.7c0-0.1,0.1-0.3,0.1-0.4c6.1-3.5,12.2-3.3,17.5-1.1c-6.3,2.2-13.9,5.6-18.3,11.6c-0.8-0.5-1.8-0.7-2.8-0.4
	c-1.4,0.4-2.8,1.9-2.6,3.6c0,0,0,0,0,0.1c-1.2,3.7,2.2,5.7,4.9,4.8c1.3-0.4,2.5-1.9,2.8-3.3c0.3-1.2,0-2.3-0.6-3.2
	c2.9-2.7,5.7-5.2,9.2-7c2.3-1.2,4.8-2,7.2-2.8c-0.9,1.6-1.6,3.4-2.5,5.1c-1.3,2.4-2.7,4.8-4.1,7.2c-1.3-0.3-2.7,0.2-3.7,1.3
	c-0.6,0.6-1.1,1.4-1.2,2.3c0,0.2,0,0.4,0,0.5c0,0.1,0,0.2,0,0.2c-0.5,3.7,3.6,5.3,6.2,3c1.9-1.7,2.1-4.5,0.8-6.2
	c2.8-3.3,6.4-7.6,8-11.7c0.7,2.8,1.2,5.6,0.8,8.8c-0.4,3.6-1.6,7.3-3.2,10.6c-1.1-0.4-2.4,0.1-3.3,1c-1,1.1-1.6,2.7-1.3,4.2
	c0.5,3.2,4.5,3.4,6.2,0.9c1-1.4,0.9-3.1,0.1-4.2c4.8-7,7.4-17.2,4.8-25.3c0.1,0,0.2-0.1,0.2-0.1c4.3-3.3,8.8-6.1,13.4-8.6
	c0.7,0.5,1.4,1.1,2.2,1.7c0.3,0.3,0.6,0.5,1,0.8c1.6,1.3,3.2,2.3,4.9,2.9c-0.3,2.6-0.5,5.3-0.6,7.9c-0.1,0-0.2,0-0.4,0.1
	c-7,2.8-15.1,7.5-15.5,17.5c-1.2,0.4-2.2,1.6-2.3,3.2c-0.1,2.5,1.7,5.1,3.7,5.5c2.2,0.4,4-1.6,3.6-4.3c-0.2-1.4-1-2.5-1.9-3.2
	c-0.1-0.1-0.1-0.2-0.2-0.3c1.4-6.5,5.5-10.7,10.5-13.1c-2.5,5.9-4.9,13.5-3.5,20.4c-0.9,0.3-1.7,0.9-2.1,1.7
	c-0.6,1.3-0.4,3.2,0.8,4.2c0,0,0,0,0.1,0c1.8,3.2,5.4,2.1,6.5-0.4c0.5-1.2,0.3-2.9-0.6-4.1c-0.7-1-1.7-1.5-2.7-1.6
	c0-3.8,0-7.4,0.9-10.9c0.7-2.4,1.6-4.7,2.6-6.9c0.5,1.7,1.4,3.3,2,5c0.9,2.4,1.7,5,2.4,7.5c-1,0.7-1.5,2-1.4,3.5
	c0.1,0.9,0.3,1.7,0.9,2.4c0.1,0.1,0.2,0.3,0.4,0.4c0,0.1,0.1,0.1,0.1,0.2c2.3,2.7,6,0.8,6.1-2.5c0-2.5-1.9-4.4-3.8-4.6
	c-0.5-4.1-1.3-9.4-3.2-13.1c2.5,1.3,4.7,2.7,6.8,5.1c2.3,2.6,4.1,5.8,5.5,9.1c-1,0.5-1.5,1.8-1.4,3c0.1,1.4,0.9,2.9,2.1,3.6
	c2.6,1.7,5.3-1,4.6-3.8c-0.4-1.6-1.6-2.6-3-2.8c-1.9-7.9-7.4-16.2-14.8-19.5c0-0.1,0-0.2,0.1-0.3c0.2-2.7,0.6-5.4,1.1-8.1
	c1.1,0.2,2.3,0.2,3.7,0.2c1.9,0,3.9-0.2,5.8-0.3c1.4-0.1,2.8-0.2,4.2-0.3c0.5,0,0.9,0,1.4,0c2.1,0,3.7,0.2,5.2,0.7
	c2.2,0.7,3.9,2.3,5.5,4.1c1.9,2,4,4,6.8,5.2c1.9,0.8,4.2,1.1,6.8,1.1c0.5,0,1,0,1.5,0c1.7-0.1,3.4-0.3,5.1-0.5
	c1.1-0.1,2.3-0.3,3.4-0.4c1.7-0.1,3.5-0.2,5.2-0.2c1.4,0,2.9,0,4.3,0.1c3.1,0.2,6.3,0.7,9.4,1.4c0.5,0.1,1,0.2,1.6,0.4
	c2.5,0.6,5.1,1.2,7.8,1.2l0.3,0c5.4-0.1,10.3-3.3,13.1-8.6c0.7-1.3,1-2.8,1.3-4.2c0.6-2.7,1.2-5.2,3.5-6.2c0.6-0.3,1.3-0.4,2-0.4
	c1.8,0,3.8,1,5.8,2c2.2,1.1,4.4,2.3,6.8,2.3c0.2,0,0.3,0,0.5,0c2.9-0.2,5.7-1.2,8-3c2.5-1.9,4-4.6,5.3-7.3c1.2-2.5,2-3.6,3.4-4.4
	c5.2,1.9,10.7,3.5,15.9,4.5c0,0.1,0,0.3,0,0.5c1.9,10,7,20.3,17.9,22.8c0.2,1.6,1.5,3.1,3.4,3.5c3,0.7,6.6-0.9,7.5-3.3
	c1-2.6-1.1-5.2-4.4-5.3c-1.8-0.1-3.3,0.6-4.3,1.6c-0.1,0.1-0.3,0.1-0.4,0.2c-7.6-3.2-11.8-9-13.5-15.6c6.6,4.3,15.3,9,24,8.8
	c0.2,1.1,0.7,2.2,1.7,2.9c1.4,1,3.8,1.2,5.3-0.1c0,0,0,0,0.1-0.1c4.3-1.5,3.7-6.1,0.9-8c-1.3-0.9-3.5-1-5.1-0.2
	c-1.3,0.6-2.1,1.7-2.5,2.9c-4.6-0.8-9-1.6-13.1-3.6c-2.8-1.3-5.3-3-7.8-4.7c2.2-0.3,4.3-0.9,6.5-1.3c3.1-0.5,6.4-1,9.6-1.3
	c0.7,1.4,2.1,2.3,3.9,2.5c1.1,0.1,2.1,0,3.1-0.5c0.2-0.1,0.4-0.2,0.5-0.4c0.1,0,0.2-0.1,0.3-0.1c3.8-2.2,2.4-7.2-1.6-7.9
	c-3-0.6-5.8,1.3-6.4,3.7c-5.1-0.3-11.7-0.6-16.7,1c2.2-2.7,4.4-5.1,7.7-7.1c3.7-2.2,8-3.8,12.2-4.6c0.4,1.3,1.8,2.2,3.3,2.4
	c1.8,0.2,3.7-0.5,4.9-1.8c2.6-2.8-0.1-6.6-3.7-6.4c-2,0.1-3.5,1.4-4,3c-10.3,0.7-20.8,5.2-27,13.6c-0.1,0-0.2-0.1-0.3-0.1
	c-3.6-1-7.2-2.2-10.9-3.5c2.4-1.3,3.7-3.4,5.1-5.8c0.3-0.5,0.6-1.1,1-1.6c1.2-1.9,3.4-2.6,5.5-3.3l0.8-0.3c2.9-1,6-2.4,7.5-5.6
	c0.8-1.7,1-3.4,1.1-4.8c0.1-0.2,0.2-0.3,0.3-0.5c0.6-1.8,0.5-4,0.2-5.6c0-0.1,0.1-0.2,0.1-0.3c1,0.2,2.1,0.5,3.1,0.7
	c2.8,0.6,5.8,1.8,8.7,1.5c4.6-0.4,6.8-4.1,8-8.1c6.7,2.3,13.6,3.7,20.6,4.2c3.4,0.3,7.2-0.1,9.3-3.2c0.8-1.1,1-2.5,0.8-3.8
	c1.9,0.2,3.9,0.6,5.9,0.5c0.2,0,0.3,0,0.4-0.1c0.2-0.1,0.3-0.2,0.4-0.3c1.4-1.3,2.1-3.4,2.6-5.2c5.6,0.1,11.2-0.4,16.6-1.5
	c1-0.2,1.5-1.4,1.3-2.3c0,0-1.2-5.2-1.2-5.2c3.4-1.7,6.8-3.4,10.3-5.1c1.7-0.9,3.4-1.7,5.1-2.6c1.3-0.7,3-1.2,3.3-2.9
	c0.1-0.5-0.1-1.1-0.4-1.7c-0.7-1.3-2.2-2.6-3.1-3.4c-1.8-1.7-3.8-3.2-5.9-4.4c-1.7-1-3.6-1.8-5.4-2.5c-1.1-0.4-4.8-1-5.2-2.1
	c-0.1-0.3-0.1-0.7,0-1.1c0.4-1.7,1.1-3.4,0.2-5.1c-0.7-1.4-2.2-2.2-3.6-2.6c-4.3-1.4-8.8-2.3-13.3-3c0.5-0.9,0.8-2,0.5-3.1
	c-0.5-2.7-3.2-4.4-5.8-4.8c-3-0.5-6.2-0.5-9.3-0.7c-2.6-0.2-5.2-0.3-7.8-0.5c0.5-1.6,0.8-3.3,0.8-5.1c0-0.8-0.6-1.7-1.4-1.8
	c-6.6-1.2-13.3-0.3-19.3,2.7c-0.3-1.1-0.5-2.1-0.8-3.2c-0.2-0.8-1-1.4-1.8-1.4c-1.7,0.1-3.6,0.2-5.3,0.6c0-0.1-0.1-0.2-0.1-0.3
	c-0.3-1-0.8-1.9-1.2-2.8c-0.1-0.1-0.1-0.3-0.2-0.4c4.2-1.1,8.1-3.3,11.2-6.2c0.6-0.5,0.7-1.3,0.4-2c-0.3-0.8-1-1.3-1.8-1.3
	c-2.7-0.1-4.4-2.8-5.8-5.2c-0.5-0.8-0.9-1.5-1.3-2.1c-1.1-1.5-2.4-2.8-3.8-3.9c0,0,0,0,0,0c-0.9-1.3-2.2-2.5-4-3.7
	c-0.8-0.5-1.6-1-2.4-1.5c-1.6-0.9-3.2-1.9-4.4-3.2c3.2-0.8,6.6-1.4,10.3-2c0.2,0,0.4,0,0.6,0c3.2,0,6.4,0.8,9.4,2.5
	c3.9,2.1,7.2,5.1,10.5,8l1.3,1.2c0,0.1,0,0.2,0,0.3c0.9,4.3,2.4,8.6,4.6,12.2c2.1,3.7,4.7,6.6,7.7,8.6c3.4,2.3,7.5,3.8,12.3,4.3
	c1.3,0.2,2.7,0.2,4.2,0.2c7.7,0,15.4-2.4,22.2-4.5c0.7-0.2,1.2-0.7,1.3-1.4c0.1-0.7-0.1-1.5-0.6-2c-0.2-0.3-0.4-0.6-0.8-0.7
	c-3.2-1.4-5.2-4.2-7.1-7c-0.3-0.4-0.6-0.8-0.9-1.3c-4.2-6-10.8-10-17.9-11.1c-1.2-0.2-2.5-0.3-3.9-0.3c-2.4,0-4.7,0.3-7.3,0.6
	c-1.6,0.2-3.3,0.4-5,0.4c-2.2,0-4.1-0.4-5.6-1.2c-0.1-0.1-0.3-0.1-0.4-0.2l-1.1-1c-4-3.5-8.1-7-12.7-9.3c2.3-0.3,4.7-0.5,7.1-0.7
	c10.1-1,20.6-1.9,30.8-4.3c3.2,4.2,8.3,6.9,14.1,7.6c0.9,0.1,1.9,0.2,2.9,0.2c8.1,0,16.7-3.9,26.3-11.8c4.7-3.9,8.8-8.4,12.3-13.3
	C481,397.8,487.9,388.9,485.9,385.8z M385,391.4c1.9-4.5,4-8.1,6.6-11c2.7-3,6-5.5,10.4-7.6c0.9-0.4,1.9-0.9,2.8-1.3
	c2.8-1.3,5.6-2.6,8.2-4.3c1.2-0.7,2.1-1.9,3.6-1.3c1.2,0.5,1.7,2.1,1.8,3.3c0.1,2.9-1.7,6.8-2.9,9.4c-2.7,6.1-6.9,11.6-12.3,15.5
	c-3.1,2.3-7.4,5.4-11.2,6.3c-5.2,1.2-1-4.6-0.1-6.3c1.4-2.7,3.3-5.1,4.8-7.8c0.5-0.9,0.9-2.1,0.5-3c-1.4,0.5-2.5,1.6-3.6,2.7
	c-1.5,1.6-2.8,3.4-4.2,5.1c-1.1,1.4-2.4,4-3.9,4.9C382.2,397.9,384.4,392.9,385,391.4z M103.9,445.8c-3.1-2.5-5.5-5.1-7.3-8.1
	c-0.4-0.6-0.9-0.9-1.5-0.9c-0.7,0-1.4,0.4-1.8,1.1c-0.3,0.6-0.3,1.3,0.1,1.9c2.2,3.5,5.2,6.7,9.2,9.8c-6.7-0.9-13.2-3.2-19-6.9
	c-7.6-4.8-13.4-12.5-16.3-21.7c-0.9-3-1.6-6-1.8-9.1c3.9,4.1,9.8,6.3,15,8.4c1,0.4,2,0.8,2.9,1.1c4.6,1.8,8,4,10.9,6.9
	c2.7,2.7,5.2,6.1,7.3,10.5c1.2,2.3,2.3,4.9,3.3,7.8C104.6,446.3,104.3,446,103.9,445.8z M58.2,458.5c-0.2,2.1-2,2.9-3.9,2.9
	c-3.5,0-6.2-1.9-9.3-3.2c-2-0.9-6.2-0.7-3.8,2.1c0,0.1,0.1,0.1,0.2,0.2c2.1,2.3,7.3,3.3,10.1,4.1c1.8,0.5,4.5,1,5.2,3.1
	c1,3.1-3.3,4.1-5.4,4.6c-1.4,0.3-3,0.5-4.5,0.5c-3,0-6.2-0.6-9.5-1.8c-8.7-3.1-17.3-9.2-24.3-17c-2-2.3-4.4-5.3-2.1-8.3
	c1.7-2.2,5.7-2.1,8.2-2.7c3-0.7,6.1-1.3,9-1.5c0.4,0,0.8,0,1.2,0c9.2,0,18.2,3.8,24.5,10.5C55.4,453.6,58.5,456.2,58.2,458.5z
	 M80.7,502c-5.3,4.8-12.5,5.8-17.7,5.8c-1.5,0-3.1-0.1-4.7-0.3c-3.4-0.4-6.8-1-9.8-1.7c1.8-1.7,3.1-3.7,4.3-5.8c1.8-3,3.6-5.8,6.3-8
	c2.7-2.2,5.8-3.8,9.1-4.7c1.8-0.5,3.7-0.7,6.1-0.7c1.5,0,4.5,0.5,4.7,2.3c0.3,3-6.6,4.2-8.6,4.4c-1.2,0.2-1.8,1.2-1.7,2.2
	c0.1,1,0.8,1.7,1.8,1.7c0.1,0,0.2,0,0.3,0c3-0.4,5.9-1.3,8.6-2.6c1.6-0.8,4.6-3.8,6.5-3C88.9,493.1,82.1,500.7,80.7,502z
	 M344.7,394.7c0.6-0.9,1.2-1.8,1.7-2.6c1.2-1.8,3.4-7.4,6.2-6.9c3,0.6,5.5,10.1,5.8,12.6c0.4,3.4,0,6.9-1.1,10.1
	c0,0.1-0.1,0.2-0.1,0.3c-0.4-0.5-0.9-1.1-1.4-1.6c-2.1-1.9-4.9-2.9-8.1-2.9c-1.5,0-3,0.2-4.7,0.6c-1.1,0.3-2.2,0.6-3.3,1
	C340.5,401.4,342.6,397.8,344.7,394.7z M222.6,536.4c-0.2-1.8-1.1-3.4-2.1-5c-1.1-1.7-2.1-3.4-1.7-5.2c0.1-0.6,0.4-1.3,0.9-1.8
	c1.2-1.4,2.6-2.2,4.1-2.2c3.1,0,6.4,3,7.2,6.6c0.2,0.8,0.4,1.8,1.3,2.3c0.6,0.3,1.4,0.4,2.4,0.4c0.8,0,1.6-0.1,2.4-0.2
	c0.6-0.1,1.2-0.1,1.6-0.1c1.3,0,2.5-0.2,3.8-0.3c1.2-0.1,2.5-0.3,3.8-0.3c0.5,0,1,0,1.5,0.1c2.9,0.3,5.7,1.4,8.4,2.4
	c3.2,1.3,6.6,2.5,10.1,2.5c0.6,0,1.1,0,1.7-0.1c3.2-0.4,6.3-2.1,8.9-5.1c0.4-0.4,0.7-0.8,1-1.3c0.6-0.8,1.1-1.6,1.9-2
	c1.5-0.9,3.1-1.4,4.7-1.4c2.3,0,4.8,0.9,7.1,2.6c2.8,2.1,4.7,5.2,5.4,8.8c0.7,3.4,0.1,6.9-1.7,10.1c-2,3.5-5.2,8-8.2,11.3
	c-0.9,1-1.7,1.5-2.6,1.8c-0.3,0.1-0.6,0.1-0.9,0.1c-1.8,0-3.6-1.4-5.5-2.8c-0.6-0.5-1.2-0.9-1.8-1.3c-4.9-3.4-9.3-6-13.6-7.8
	c-4.8-2-9.6-3.2-14.2-3.5c-0.7-0.1-1.5-0.1-2.3-0.1c-3.7,0-7.5,0.6-11.3,1.8c-1,0.3-2.1,0.8-3.2,1.4c-2,1-4.1,1.9-6.1,1.9
	c-0.2,0-0.5,0-0.7,0c-1.7-0.2-2.9-0.8-3.5-1.6c-1-1.5-0.3-4.1,0.4-6.6C222.2,540,222.7,538.1,222.6,536.4z M265.6,405
	c2.5-0.6,5.1-1,7.5-1c4.1,0,7.7,0.9,10.9,2.6c2.4,1.3,5.1,3.3,4.5,5.5c-0.7,2.7-6.1,5.1-11.3,5.1c-0.3,0-0.6,0-0.8,0
	c-1.5-0.1-3-0.3-4.5-0.5c-1.9-0.3-3.9-0.6-5.9-0.6c-0.4,0-0.8,0-1.2,0c-3.4,0.2-6.8,1.2-10.5,3c-3.6,1.7-6.8,3.9-10.4,6.4
	c-7.7,2.3-11.2,11.2-12.2,13.9c-2.1,6.2-2.3,13.5-0.7,21.6c0.8,4.1,2,8.2,3.1,11.5c0.6,1.8,1.5,3.9,2.5,6c2,4.4,4.2,9.4,3.8,13.1
	c-0.4,4.1-2.2,4.1-2.8,4.1c-1.4,0-3.4-1-5.5-2.8c-2-1.7-3.5-3.5-4.6-5.4c-2.5-4.2-3.4-8.6-3-14.6c0.2-2.2,0.7-4.5,1.3-6.7
	c0.1-0.6,0.3-1.2,0.4-1.8c1.4-5.8,0.7-11.7-1.9-16.9c-0.3-0.6-0.6-1.1-0.9-1.5c-0.7-1.2-1.2-2-1-3.6c0.5-5.6,5-10.3,9.1-14.5
	l0.7-0.7c4.7-4.9,9.9-9.3,15.3-13.2C252.2,410.8,258.4,406.8,265.6,405z M249.5,398.9c-3.4-1.6-4.8-3.8-4.3-6.6
	c0.7-3.9,5.1-5.5,9-6.9c1.5-0.5,2.9-1,4.1-1.7c1.1-0.6,2-1.2,3-1.9c0.5-0.3,1-0.6,1.4-0.9c1.2-0.8,2.5-1.5,3.9-1.7
	c0.2,0,0.4,0,0.6,0c6,0,10,8.4,11.4,12c1.3,3.3,1.6,5.4,0.8,6.5c-0.9,1.4-3.4,1.6-6.6,1.8c-1.4,0.1-2.9,0.2-4.5,0.4
	c-0.6,0.1-1.2,0.2-1.7,0.3c-2.3,0.3-4.6,0.7-6.9,0.7c-0.3,0-0.5,0-0.8,0C256.3,400.9,252.4,400.3,249.5,398.9z M309.9,457.9
	c0.6,4.3-0.3,7.3-1.6,7.9c-0.2,0.1-0.4,0.1-0.6,0.1c-0.6,0-2.1-0.4-4.1-4c-0.9-1.6-2.2-3.2-3.5-4.7c-1.7-2.1-3.5-4.2-4.4-6.6
	c-1.4-4,0.1-7.5,1.7-11.2c0.5-1.2,1.1-2.5,1.5-3.8C304.7,441.8,308.7,449.9,309.9,457.9z M302.9,422.1c0.1-0.1,0.2-0.1,0.4-0.1
	c0.5,0,1.3,0.2,2,0.5c0.6,0.2,1.1,0.4,1.5,0.4c1.3,0.1,2.2,0.4,2.7,0.7c0.8,0.5,0.5,1.3-0.9,4c-1.2-0.9-2.3-1.7-3.3-2.6
	c-0.2-0.1-0.4-0.3-0.7-0.5c-0.5-0.3-1.7-1.2-1.8-1.6C302.8,422.4,302.9,422.2,302.9,422.1z M271.8,455.6c1.3,0.7,2.5,1.6,3.4,2.7
	c2.1,2.4,3.3,5.7,3.3,9.1c-2.3,1.7-4.7,3.4-7.2,5c0.6-2.4,1.1-4.8,1.4-7.2C273.1,461.5,272.8,458.3,271.8,455.6z M271.4,484.7
	c1.4-0.8,2.9-1.4,4.3-2c0.5-0.2,1.1-0.5,1.6-0.7c0.2-0.1,0.7-0.3,1.2-0.6c1.7-0.9,5.4-2.7,6.8-2.7c0.1,0,0.2,0,0.2,0c0,0,0,0,0,0
	c0,0.1,0,0.3,0,0.5c-0.1,0.8-0.1,1.6-0.5,2.3c-0.5,0.9-1.4,1.4-2.5,2l-1.9,1c-1.4,0.8-3.1,1.2-4.7,1.6c-0.5,0.1-0.9,0.2-1.4,0.4
	c-0.3,0.1-1,0.3-1.8,0.3c-0.6,0-1.3-0.1-1.7-0.5c-0.3-0.3-0.4-0.5-0.4-0.7C270.6,485.4,270.7,485.1,271.4,484.7z M285.4,459.4
	c-0.5,1.6-1.5,3.4-2.5,3.4c-0.8,0-1.1-0.8-1.5-2c-0.1-0.3-0.2-0.6-0.3-0.9c-0.7-1.7-1.6-3.2-2.8-4.4c-2.7-3-6.5-5-10.5-5.5
	c-0.1-2.2-1-4.2-2.6-5.8c-0.6-0.6-1.3-1-1.9-1.3c-1.2-0.7-1.8-1-1.6-2.5c0.2-1.4,1.8-2.4,3.1-2.5c0.2,0,0.4,0,0.6,0
	c3.4,0,6.5,2.1,9.4,4.2c2.8,2,5.6,4.1,7.9,6.7c2.5,2.8,3.5,6.2,3,9.5C285.6,458.5,285.5,458.9,285.4,459.4z M259.7,465.9
	c1.9,2.3,4.8,3.2,7.9,3.8c-0.4,1.9-1,3.9-1.7,5.8c-0.4,0.2-0.8,0.4-1.2,0.7c-1.6,0.9-3.5,2-5,2c-0.2,0-0.4,0-0.7-0.1
	c-1.7-0.4-3-1.6-3.8-2.6c-0.6-0.7-1.2-1.5-1.6-2.4c-1-1.9-1-4.5-0.1-6.9c0.9-2.3,2.6-4.3,4.4-6C257.7,462.2,258.3,464.2,259.7,465.9
	z M267.3,465.3c-0.4-4.8-2.4-9.4-5.6-13c1.7,0.2,4,0.8,5.1,2.9c1.4,2.6,2,5.3,1.7,8.9c0,0.5-0.1,0.9-0.2,1.5
	C268,465.4,267.6,465.3,267.3,465.3z M263,448.2c-0.9-0.2-1.7-0.3-2.6-0.3c-0.2,0-0.4,0-0.6,0c-1.8,0.1-3.6,0.7-5.4,1.4
	c-1.8,0.7-3.5,1.3-5.1,1.3c-0.1,0-0.2,0-0.3,0c0.9-2.9,5.1-4.8,8.9-4.8c1.3,0,2.4,0.2,3.2,0.7C261.9,446.8,262.6,447.5,263,448.2z
	 M248,441.6l-0.5,0.5c-5.4,5.5-9.6,10.5-12.5,17c-1.1-6.1-1.1-11.4,0.1-16.2c0.6-2.6,3.3-11.2,9.9-13.3c0.8-0.2,1.5-0.4,2.1-0.4
	c0.5,0,1.1,0.1,1.5,0.3c1.9,0.7,3,1.7,3.3,3.2C252.7,435.4,250.4,439.2,248,441.6z M238,463.2c0.1-0.3,0.3-0.5,0.4-0.5l0.1,0
	c0.3,0.3,0.6,1.5,0.8,2.3c0.2,0.7,0.4,1.3,0.6,1.8c1.4,3,3.4,5.7,5.8,7.9c3.4,3.1,7.4,5.2,11.3,7.3c1.8,1,3.7,2,5.4,3l0.5,0.3
	c1.8,1.1,4.1,2.5,4.4,4.5c0.1,1-0.2,1.4-1.2,2.1c-0.8,0.5-1.5,1.1-2.2,1.6c-0.8,0.6-1.6,1.2-2.4,1.8c-1.5,0.9-3.3,1.4-5.2,1.4
	c-1.2,0-2.4-0.2-3.4-0.6c-3.9-1.6-7.3-5.7-10.1-12.2c-2.9-6.5-4.4-12.3-4.6-17.7c0-0.2,0-0.5,0-0.8c0-0.4-0.1-0.8-0.1-1.2
	C237.9,463.8,237.9,463.4,238,463.2z M253.3,503.7c0.6-0.8,1.6-1.1,2.7-1.4c0.2-0.1,0.4-0.1,0.6-0.2c1.6-0.5,3.2-1.1,4.8-1.9
	c2.5-1.2,4.7-2.9,6.5-4.4c4-3.2,7.6-5.6,12.1-6.4l0.2,0c2.2-0.4,4.4-0.8,6.4-2c2.3-1.4,3.8-3.7,4.1-6.3c0.3-2.3-0.1-5.2-1.4-8.6
	l-0.2-0.6c-0.9-2.4-1.7-4.8-1.3-7.2c1.3-1.6,2.1-3.3,2.5-5c0.1-0.5,0.1-1.2,0.1-1.9c0-1.2-0.1-2.7,0.7-3c0.1,0,0.2-0.1,0.2-0.1
	c0.6,0,2.1,0.6,5.4,4.5c3.7,4.5,5.9,10.1,8,15.9l0.4,1.1c0.8,2.3,1.7,4.6,1.9,6.9c0.2,2-0.1,3.7-0.9,5.2c-1,1.9-2.8,3.2-4.6,4.6
	c-1.4,1.1-2.9,2.2-4,3.7c-0.9,1.1-1.5,2.3-2,3.4c-0.4,0.9-0.8,1.7-1.4,2.5c-1.5,2.3-4.8,2.9-7.7,3.4c-0.4,0.1-0.7,0.1-1.1,0.2
	c-3.9,0.7-7.9,1.1-11.6,1.4c-2.5,0.2-4.8,0.3-6.9,0.3c-1.4,0-2.7,0-4-0.1c-0.5,0-1-0.1-1.5-0.1c-2.7-0.2-5.6-0.3-7.6-1.9
	c-0.4-0.3-0.6-0.6-0.7-0.9C252.9,504.6,253,504.1,253.3,503.7z M294.6,435.1c-1,2.9-2.3,5.6-3.7,8.3c-0.8,1.7-1.7,3.4-2.5,5.1
	c-0.1,0.2-0.1,0.3-0.2,0.5c-0.1-0.2-0.3-0.5-0.4-0.7c-2.2-3.4-5.4-6-8.5-8.3c-4.3-3.2-8-5.4-13.4-6.5l-0.8-0.2
	c-3.7-0.7-7.5-1.5-7.9-5.7c-0.2-1.8,0.3-3.3,1.3-4.5c1.3-1.6,3.6-2.6,6.2-2.7c0.4,0,0.8,0,1.1,0c1.9,0,3.8,0.3,5.6,0.6
	c1.5,0.2,3.1,0.5,4.7,0.5c0.3,0,0.7,0,1,0c1.6,0,3.2-0.2,5-0.6c0.3-0.1,0.5-0.1,0.8-0.2c1.1-0.3,2.2-0.6,3.2-0.6
	c0.3,0,0.5,0,0.8,0.1c2.7,0.4,4.9,3,6.3,4.9C295.3,427.7,295.8,431.6,294.6,435.1z M222.6,456.1c0.3,2.5,0.1,5.1-0.6,7.9
	c-0.3,1.2-0.6,2.3-1,3.5c-0.5,1.8-1.1,3.7-1.4,5.6c-0.8,4.2-0.4,8.5,1.1,12.1c0.1,0.2,0.2,0.4,0.2,0.7c0.2,0.5,0.4,1.1,0.8,1.6
	c0.4,0.5,0.7,1,1.1,1.6c1.1,1.7,2.2,3.4,3.8,4.6c0.9,0.7,1.8,1.5,2.6,2.2c1.1,0.9,2.2,1.9,3.3,2.8c2.1,1.5,4.2,3.1,6.6,4.7
	c1.7,1.2,3.5,2.5,5.4,4c4.4,3.3,8.9,6.8,13.6,8.4c2,0.7,4.2,1,6.5,1c2.4,0,4.9-0.3,7.8-1c1.2-0.3,2.3-0.4,3.2-0.4
	c2.1,0,3.3,0.8,3.4,2.4c0.4,4.5-6.1,12.7-10.9,13.7c-0.7,0.1-1.3,0.2-2,0.2c-2.5,0-5.3-0.9-8-2.6c-0.9-0.5-1.8-1.2-2.7-2
	c-0.8-0.6-1.7-1.3-2.6-1.9c-1.4-1-2.6-1.5-3.7-1.7c-0.3-0.1-0.6-0.1-0.9-0.1c-1.9,0-3.8,1.1-5.7,2.1c-1.7,1-3.4,1.9-4.8,1.9
	c-0.6,0-1-0.1-1.5-0.4c-0.9-0.5-2-2.9-2.8-4.6c-0.5-1.1-1-2.2-1.5-2.8c-1.2-1.7-2.4-3.3-3.6-4.9L227,513c-1.7-2.3-3.5-4.8-5-7.4
	c-1.5-2.7-2.5-5.5-3.1-8.6c-0.3-1.6-0.5-3.2-0.8-4.8c-0.3-1.9-0.5-3.8-1-5.7c-0.6-3-1.8-6-3.6-9.4c-0.4-0.7-0.8-1.4-1.2-2.1
	c-2.3-4.3-4.7-8.7-4.5-13.5c0,0,0-0.3,0.1-0.4c0-0.1,0-0.1,0-0.2c0,0,0-0.3,0-0.4c0.6-4.8,3.4-10.7,7.4-12.1
	c0.4-0.2,0.9-0.2,1.4-0.2c0.5,0,1.2,0.1,1.8,0.5c0.3,0.2,0.6,0.5,0.9,0.9C220.9,451.5,222.2,453.4,222.6,456.1z M208,475.8l0.7,1.2
	c1.2,2.2,2.5,4.6,3.4,7c1,2.9,1.5,6.1,1.9,9.1l0.2,1.4c0.5,3.1,1.1,6.7,2.7,10.3c0.4,0.9,1.1,1.9,1.8,3c1.7,2.5,3.8,5.7,2.5,7.4
	c-0.5,0.6-1.2,1-2.1,1c-1.2,0-2.6-0.5-3.9-1c-0.5-0.2-0.9-0.3-1.3-0.5l-0.3-0.1c-2.7-0.9-6.1-2-8.2-3.8c-0.3-0.3-0.7-0.6-1-0.9
	c-5.8-5.4-8.7-11.5-8.4-18.1c0.1-3.3,1.2-6.7,3.3-10.7c0.2-0.4,0.4-0.9,0.7-1.4c1.1-2.4,3-6.4,5.2-6.4l0.1,0
	C206.5,473.2,207.1,474.1,208,475.8z M296.1,520.4c-1.5,0-3.1,0-4.8-0.1c-0.3,0-0.6,0-0.9,0c-1.5,0-3-0.1-3.8-1.2
	c-0.8-1.2,0-2.6,0.9-3.9c1.6-2.4,4.4-3.5,7.1-4.6c2.8-1.1,5.7-2.3,7.1-4.9c0.4-0.8,0.6-1.6,0.8-2.3c0.1-0.4,0.2-0.8,0.3-1.2
	c0.9-3,3.6-4.9,6.5-7c2.8-2,5.6-4,6.9-7.3c1.1-2.7,0.7-5.7,0.4-8.3l0-0.2c-0.8-6.7-2.1-17.9-0.1-24.1c0.9-2.7,2-2.7,2.4-2.7
	c2,0,4.9,2.9,7.2,5.2c1.3,1.3,2.5,2.5,3.5,3.2c2.2,1.5,4.6,2.7,7.2,3.6c2,0.7,3.8,2.4,3.1,4.7c-0.4,1.6-1.1,3.2-1.7,4.8
	c-0.6,1.5-1.2,3.1-1.7,4.7c-0.7,2.4-1.3,4.9-1.9,7.3c-1.1,4.3-2.2,8.8-3.8,13c-2.3,6.2-5.4,10.8-9.5,14c-4.1,3.3-9.4,5.4-15.9,6.5
	C302.6,520.2,299.6,520.4,296.1,520.4z M331.9,457.6c-2-1.4-3.8-3.1-5.5-4.8c-2-1.9-4-3.9-6.4-5.5c-1.4-0.9-3-1.7-4.8-1.8
	c-1.3-0.1-2.5-0.5-3.8-1.5c-1.8-1.3-2.6-2.5-3.8-4.3c-1.5-2.4-2.9-4.6-3.3-7.7c0,0,0-0.1,0.1-0.2c0.3-0.1,0.6-0.2,0.9-0.2
	c1.2,0,2.6,0.7,3.7,1.3l0.5,0.2c0.9,0.5,1.9,1,2.8,1.5c1.1,0.7,2.3,1.4,3.6,1.9c3.1,1.4,6.2,2.5,9.4,3.2c0.6,0.1,1.3,0.3,1.9,0.4
	c1.9,0.4,3.9,0.7,5.3,1.9c0.1,0.1,0.2,0.2,0.3,0.2c0.6,0.6,1.1,1.4,1.6,2.2c0.3,0.5,0.6,1,0.9,1.5c1.1,1.5,2.5,2.9,3.9,4.1l0.2,0.2
	c1.7,1.7,2.8,3,3.5,4.5c0.6,1.3,1,2.5,1.2,3.5c0.1,1-0.2,1.5-1.2,2.4c-0.5,0.5-1.2,0.7-2,0.7C338.7,461.4,335.5,460.1,331.9,457.6z
	 M236.6,379l0.2-0.4c1.5-2.9,3.7-5.3,6.6-7.3c1.4-1,3.1-2.1,4.8-3c0.8-0.4,1.5-0.7,2.2-0.8c0.3,0,0.5-0.1,0.8-0.1
	c0.6,0,1.2,0.1,1.7,0.2c1.2,0.2,2.5,0.4,3.8,0.4c0.7,0,1.3,0,1.9-0.1c1.4-0.2,2.8-0.6,4.6-1.4c1.1-0.5,2.2-1,3.3-1.5
	c1.7-0.8,3.4-1.7,5.2-2.2c1.1-0.3,2.2-0.5,3.2-0.5c1.6,0,3.1,0.4,4.5,1.1c2.6,1.4,4.7,3.5,6.8,5.6l0.2,0.2c2.2,2.2,4.9,4.8,8.2,7
	c3.5,2.4,7.1,4.3,11.2,6.4c1.2,0.6,2.3,1.3,3.4,2c1.6,1,3.3,2,5,2.7c1,0.4,2.1,0.7,3.1,1c3.1,0.9,5.8,1.7,7,4.8
	c0.7,1.7,1.3,3.6,1.8,5.7c1.4,5.8,0.2,13-3.5,22.1c-1.2,2.9-3.7,4.8-5.3,4.8c-0.5,0-0.8-0.2-1-0.5c-0.6-0.8-0.6-2.4,0.1-4.6
	c0.6-2,0.8-4.1,0.8-6.3c0-1-0.2-2.3-0.9-3.3c-1.2-1.6-3.2-1.8-4.8-1.8c-0.6,0-1.1,0-1.8,0.1c-0.5,0-1,0-1.4,0c-4.2,0-8.2-1-11.4-2.8
	c-5-2.8-7.9-8.1-10.7-13.2c-0.6-1.1-1.2-2.2-1.8-3.2c-2.2-3.8-4.3-6.6-6.5-9.1c-2.4-2.6-5.6-5.6-9.6-6c-0.3,0-0.6-0.1-1-0.1
	c-3.1,0-5.6,1.7-8.1,3.3c-0.3,0.2-0.6,0.4-1,0.6c-3.2,2-6.8,3.2-10,4.2c-0.8,0.3-2,0.8-3.3,1.4c-2.5,1.2-5.7,2.6-7.7,2.6
	c-0.5,0-0.9-0.1-1.2-0.3c-0.2-0.1-0.4-0.3-0.5-0.5C233.8,384.5,235.5,381.1,236.6,379z M236.5,401.9c1-0.1,2-0.1,2.9-0.1
	c3.6,0,6.3,0.7,7.6,2.1c0.7,0.7,0.9,1.5,0.9,2.6c-0.1,2.4-2.8,4.3-5,5.8c-0.6,0.4-1.1,0.8-1.5,1.1c-3.4,2.6-6.6,5.4-9.7,8.4
	c-2.1,2-4,4.4-5.9,6.6c-2.6,3.2-5.4,6.5-8.6,9c-1.6,1.2-3.3,2.2-5,3.3c-3.7,2.2-7.6,4.5-9.9,8.6c-1.2,2.1-1.8,4.6-2.4,6.9
	c-0.5,2.2-1.1,4.2-2,6.1c-0.5,1.1-1.2,2-2,3c-0.6,0.8-1.2,1.6-1.7,2.5c-3.3,5.6-3,11.9-2.6,17.9l0.1,1.3c0,0.3,0.1,1,0.2,1.8
	c0.7,5.9,0.7,9.2,0.2,9.7c-0.7,0-2.4-1.4-3-2.1c-1.3-1.5-2.4-3.9-3-6.6c-0.6-2.8-0.3-5.5,0.2-8.4c0.5-3.2,1.1-6.4,0.3-9.7
	c-0.4-1.6-1.1-3.1-1.7-4.5c-0.5-1.1-1-2.2-1.4-3.3c-0.8-2.5-0.2-4.9,1-7.8c1.3-3.2,2.4-5.8,3.1-8.8c0.5-2.1,0.6-4.5,0.8-6.8
	c0.2-3.4,0.4-6.9,1.7-9.8c2.3-5.1,6.3-6.9,10.7-8.8c3.1-1.3,6.3-2.7,9-5.4c0.9-0.9,1.7-1.9,2.5-2.8c1-1.1,1.9-2.2,3-3.2
	c2.7-2.4,6.2-3.7,9.6-5l6.6-2.5C232.2,402.6,234.1,402.2,236.5,401.9z M191.3,379.5l0.4-0.3c1.8-1.3,3.7-2.7,5.8-3.6
	c1.6-0.7,3.4-1.1,5.1-1.1c0.9,0,1.8,0.1,2.5,0.4c1.1,0.4,1.7,1.2,2.4,2.1c0.6,0.9,1.4,1.9,2.7,2.5c0.6,0.3,1.1,0.4,1.7,0.4
	c2.9,0,4.3-3.5,5.5-6.6c0.4-1.1,0.8-2.2,1.3-2.9c5.5,6.3,13.3,17.2,9.7,24.4c-1.8,3.6-5.8,5-9.7,6.4c-2.2,0.8-4.4,1.6-6.2,2.7
	c-2.5,1.6-4.6,3.8-6.5,5.9c-0.7,0.7-1.3,1.4-2,2.1c-4.9,5-10.2,7.6-16.6,8.1c-0.8,0.1-1.7,0.2-2.6,0.3c-1.9,0.2-4.1,0.5-6.1,0.5
	c-3.6,0-6.1-0.8-7.8-2.4c-5.6-5.1,2.3-19.2,4.9-23.4c2.4-4,5.7-7.6,10-11.1C187.3,382.4,189.3,380.9,191.3,379.5z M127.7,414.3
	c0.5-2.9,0.6-3.4-2.2-4.5c-2.7-1-5.2-2.4-7.4-4.1c-1.4-1-4.4-2.6-4.6-4.6c-0.3-2.6,4.3-1.9,5.3-3.7c1.1-2.1-2.9-4.2-4-5.3
	c-2.6-2.6-4.6-5.5-7-8.2c-1-1.1-2.7-2.4-3.1-3.9c-0.8-2.6,1.9-2.1,3.5-2.6c3-0.9-0.9-5.6-1.9-7.2c-1.5-2.4-3.1-4.7-4.4-7.1
	c-0.5-0.9-0.9-1.7-1.4-2.6c-0.2-0.4-0.9-1.3-0.7-1.9c0.3-1.2,2.7,0,3.3,0.3c1.2,0.6,2.9,0.9,3.5-0.7c0.7-1.9-0.6-3.9-1.4-5.5
	c-1.1-2.1-2.2-4.3-3.1-6.5c-0.9-2.2-1.7-4.5-2.1-6.8c-0.3-1.5-0.6-3.8,0.6-5.1c1.3-1.4,3.1-0.3,4.6,0.2c4.5,1.6,9,3.2,13.5,4.7
	c2.4,0.8,2.9-3.3,4.9-3.8c1.8-0.4,3.7,2,4.9,3.1c1.8,1.7,3.1,3.6,4.4,5.6c1.7,2.7,2.4,1.1,4.5,0c1.2-0.7,3.4,0,4.4,0.7
	c1.7,1.3,2.4,4.1,4.4,4.9c3.5,1.5,2-3.5,4.3-4.3c2.9-1,6.6,5.4,7.9,7.2c2,2.8,3.9,5.8,5.5,8.9c0.8,1.5,1.5,3.1,2.2,4.7
	c0.2,0.6,0.3,1.6,0.7,2.1c1.5,2.1,4.7-1.4,6.1-2.1c2.1-1.2,5.1-0.2,6.4,1.7c1.3,1.9,2.4,4,3.6,6c0.9,1.5,1.8,3,2.7,4.5
	c-0.2,0.2-0.5,0.3-0.7,0.5c-3,2.3-5.4,4.4-7.5,6.6c-0.1-0.5-0.2-0.9-0.2-1c-0.4-1.9-1-3.8-1.8-5.5c-0.4-0.8-0.4-1.4-1.3-1.1
	c-0.6,0.2-0.8,1-0.8,1.5c0.2,3.4,0.3,6.9,0.5,10.3c-0.3,0.4-0.6,0.8-0.8,1.2c-1.4,2.1-2.7,4.4-4.2,7.2c-0.2,0.5-0.5,1-0.7,1.4
	c-0.1-0.1-0.2-0.2-0.3-0.3c-1.2-1.3-2.3-2.6-3.4-4c-1-1.2-2.7-2.6-3.3-4.2c-1.9-4.9-1.1-10.1-1.3-15.1c-0.2-5.7-1.9-11.3-4.6-16.3
	c-0.2-0.4-0.5-0.9-1-1.1c-1.1-0.5-1.9,1-1.5,1.9c1,2.4,6.8,21.7,1.1,21.3c-1.8-0.1-4.1-4.1-5.1-5.3c-1.6-1.9-2.8-3.7-3.8-6.1
	c-1-2.3-0.4-4.6-0.8-7c-0.5-3.1-1.3-6-3-8.7c-0.2-0.3-0.4-0.6-0.7-0.8c-1.1-0.6-1.6,0.8-1.3,1.6c1,2.4,2.8,7.3,1,9.7
	c-1.2,1.7-4.2-2.4-5.1-3.2c-2-1.9-4.1-3.7-5.2-6.3c-0.5-1.2-0.7-2.8-1-4.1c-0.5-1.8-1.1-3.6-2.1-5.1c-1.1-1.6-3.1-1.4-2.6,0.9
	c0.7,2.9,1.5,6.2-2.8,4.3c-2.9-1.4-5.6-3.5-8.9-4c-0.5-0.1-2.5-0.5-2.8,0c-0.5,0.6,0.4,1.6,0.9,1.9c6.9,3.2,13.3,7.6,19.1,12.6
	c1.2,1,3,2,2.5,3.7c-0.3,1.1-1.2,1.5-2.2,1.6c-2.2,0.3-4.4-0.5-6.5-1c-3.9-0.8-7.7-2.3-11.3-4.2c-0.5-0.3-2-0.4-2.3,0.4
	c-0.2,0.7,1.3,1.6,1.8,2c3.9,3.2,7.7,4.9,12.7,5.8c2.5,0.4,4.9,0.7,7.4,0.7c2.5,0,6.5-0.3,8.6,1.3c2.9,2.3,5.4,6,7.8,8.8
	c1.3,1.6,3.8,4.6,0,4.6c-5.2,0-10.5-0.5-15.5-1.7c-3.9-0.9-9-1.5-12.1-4.3c-0.8-0.8-2.5-0.5-2.2,0.9c0.2,0.6,0.7,1.1,1.2,1.4
	c2.9,2,6.2,3.5,9.6,4.4c1.1,0.3,2.3,0.5,3.4,0.7c4.3,0.8,8.7,1.5,13,2.1c3.8,0.5,9.8,0.1,12.3,3.5c1.6,2.2,3.4,4.2,5.1,6.2
	c0.4,0.4,2.2,2.2,3.6,3.7c-0.4,1-0.7,2-1,3c-0.3,0.9-0.4,1.9-0.5,2.9c-4.7,0-9.2,0.1-13.9-0.4c-5.3-0.5-10.4-2.3-15.2-4.5
	c-2.2-1-4.8-0.6-1.9,1.6c2.9,2.2,6.2,3.7,9.7,4.6c2.7,0.8,5.6,1.2,8.4,1.6c0.6,0.1,8.4,0.5,12.7,0.7c-0.1,3.3-0.3,6.4-2.6,8.5
	c-2,1.9-4.9,2.6-7.8,3.2c-1.1,0.2-2.1,0.5-3.1,0.8c-1.1,0.3-2.2,0.7-3.2,1.1c-6-0.9-11.7-3-16.8-6.2
	C128.8,418.5,127.1,417.6,127.7,414.3z M130.5,453c-1.4-3.1-2-6.5-1.8-10c0.2-3.4,1.4-6.5,2.7-9.7l0.1-0.3c0.8-1.9,1.5-3.9,2.2-5.9
	c1.8,3.3,4.2,6.4,6.5,9.3c0,0.1,0.1,0.1,0.1,0.2c-0.2,1.4-0.2,2.9-0.2,4.2c0,3.1,0,6-0.2,8.8c-1-0.2-2.2,0.7-1.8,2
	c0.4,1.5,0.9,2.9,1.4,4.3c-0.2,1.8-0.4,3.6-0.7,5.4C135.6,459.7,132.3,457.1,130.5,453z M111.3,495.6c-0.5-1.3,0-2.9,0.6-4.3
	c0.3-0.6,0.6-1.1,0.8-1.6c1.2-2.2,2.3-4.3,4.2-5.9c2.9-2.5,6.6-3.9,10.6-3.9c1.6,0,3.2,0.2,4.8,0.6c0.1,0,0.2,0.1,0.3,0.1
	c-1.2,2.3-2.5,4.4-4,6.5c-1.3,1.7-2.7,3.4-4.2,4.9c-1.8,1.9-1.8,2.5-2.1,4.7c-0.2,1.9-1.1,1.8-3,1.8
	C116.9,498.6,112.4,498.4,111.3,495.6z M164.8,560c-1.7,1.7-3.3,3.5-5.2,5c-1.6,1.4-3.9,1.7-5.8,0.5c-2-1.3-2.9-4.3-5.7-3.1
	c-2.2,1-3.6,3.4-5.2,5c-2.4,2.4-4.8,4.9-7.4,7.1c-2.3,1.9-4.5,3.9-7.3,5c-3,1.2-3.4-1.9-4.4-4.2c-0.1-0.2-0.2-0.3-0.3-0.4
	c-0.1,0-0.2,0-0.3,0c-4.3,0.4-7.4,5.5-11.5,1.1c-0.1-0.1-0.2-0.2-0.3-0.2c-0.1,0-0.2,0-0.4,0c-2.5,0.9-4.7,2.8-7,4.1
	c-1.9,1-3.3,1.8-5.6,1.5c-1.2-0.2-2.4-0.7-3.2-1.7c-0.4-0.6-0.7-2.2-1.7-2.2c-4.4,0.4-8.9,0.7-13.3,1.1c-2.4,0.2-6.9,1.5-6.1-2.4
	c0.8-3.9,3.9-8.2,6.3-11.2c1.4-1.7,4.2-3.8,5.1-5.8c0.9-2-2.6-3.1-2.7-5.2c-0.1-2.1,2-5.2,3.5-6.6c2.4-2.1,4.9-3.9,6.8-6.5
	c0.1-0.2,0.3-0.4,0.3-0.6c0.1-0.5-0.3-1-0.7-1.3c-1.2-1-2.4-1.8-1.7-3.6c0.3-0.9,1.1-1.6,1.8-2.3c3.6-3.4,7.9-6.1,12-8.8
	c1.2-0.8,4.3-1.8,3-3.6c-0.6-0.9-1.9-0.9-2.3-2c-0.3-1.1,0.6-2.5,1.4-3.2c3-2.8,7.2-3.9,11-4.5c1-0.2,2.7-0.2,3.1-1.4
	c0.5-1.4-0.9-2.8,0-4.2c0.4-0.7,1.1-1.2,1.8-1.6c1.3-0.7,2.6-1.3,4.1-1.7c2.2-0.6,4.4-1.4,6.7-1.7c1.9-0.3,3.8-0.2,5.7-0.6
	c1,0.4,2,0.7,3,1.2c-0.5,0.6-0.9,1.2-1.2,1.9c0,0,0,0.1,0,0.1c-2.1,2.6-4.5,7.1-4.7,8.4c-0.1,1,0,1.8,0.3,2.4c-1.3,0-2.7,0-4,0.2
	c-2.5,0.3-4.6,1.4-6.4,3.3c-0.2,0.2-0.3,0.4-0.3,0.7c0.1,0.4,0.5,0.5,0.9,0.5c2.9,0.1,5.8-0.8,8.7-0.9c3.5-0.1,7,0.4,10.4,1.3
	c0.3,0.1,0.5,0.1,0.8,0.2c1.4,0.9,2.6,2,3.6,3.1c1.7,1.9,2.8,4.1,3.5,6.4c-2.9,2-5.7,4-8.5,6c-3.6,2.6-8.8,1.2-12.9,0.7
	c-3.7-0.4-7.4-0.8-11.2-1.2c-4.6-0.5-9.3-1.5-14-0.6c-1.1,0.2-6.4,1.6-3.9,3c2.1,1.1,5.5-0.2,7.8,0.1c3.6,0.4,7.3,0.9,11,1.3
	c5.3,0.6,10.6,1.2,15.9,1.8c-3.9,2.8-7.9,5.6-11.9,8.3c-1.6,1.1-3.7,3.1-5.7,3.3c-1.9,0.1-3.7-1.1-5.4-1.5c-2.6-0.7-5.2-1.2-7.8-1.4
	c-3.4-0.3-6.7-0.3-10.1,0.1c-1.6,0.2-3.3,0.3-4.8,0.9c-0.8,0.3-2.5,1.4-1,2.3c0.3,0.2,0.7,0.2,1.1,0.3c4,0.4,8.1-0.8,11.9-0.2
	c1.9,0.3,3.9,0.4,5.9,0.8c1.1,0.2,2.2,0.4,3.3,0.7c0.4,0.1,2.6,1.1,2.9,0.9c-0.9,0.5-1.8,1-2.7,1.5c-4.9,2.6-9.9,5-15.2,6.7
	c-2.7,0.9-5.4,1.7-8.2,2.3c-1,0.2-2.3,0.2-3,1c-0.8,1.1,0,1.9,1.1,2c2.6,0.1,5.2-0.3,7.7-0.8c1.3-0.3,2.5-0.6,3.8-1
	c0.8-0.3,2.4-1.2,2.9,0c0.4,1.1-1.1,2.9-1.6,3.7c-0.6,1-1.7,4.4,0.6,2.7c2-1.5,3.5-3.5,4.8-5.6c1.6-2.6,2.4-4.5,5.2-5.8
	c1.8-0.8,3.5-1.7,5.2-2.7c1.2-0.7,3.2-1.9,3.6,0.1c0.5,2.1-1.1,5.7-1.8,7.7c-0.1,0.4-0.3,0.8-0.3,1.2c-0.1,2.8,2.4,0.4,3-0.5
	c1.1-1.8,1.9-3.7,2.5-5.7c0.8-2.6,0.7-5.5,2.1-7.8c1.3-2.2,4.6-3.6,6.6-5c1.4-1,2.8-2,4.2-2.9c3.8-2.7,2.4,3.5,1.9,5.3
	c-1.4,5.2-3,10-5.7,14.7c-0.3,0.6-1.4,2.3-0.7,3c0.6,0.6,1.9-0.4,2.2-0.9c3-4,5.3-8.4,6.9-13.1c0.8-2.3,1.4-4.8,1.9-7.2
	c0.4-2,0.5-4,1-5.9c0,0,0,0,0-0.1c0.5-1.5,1.2-2.1,2.5-3c2.5-1.8,5-3.5,7.5-5.3c0.3,2.4,0.3,4.7,0.1,6.7c-0.3,3.9-1.2,7.8-2.1,11.6
	l-0.1,0.3c-0.2,0.9,0.2,1.9,1,2.4c3.6,2.1,7.5,3.9,11.6,5.2C165.5,559.4,165.2,559.7,164.8,560z M184.1,557.6c-5.1,0-10.1-0.7-15-2
	c-9.3-2.6-9.3-9-9.3-16.4c0-3.1,0-6.3-0.7-9.4c-0.8-3.7-2.3-6.9-4.5-9.7c-1.9-2.3-4.4-4.4-7.4-5.9c-2-1-3.1-2.2-3.2-3.5
	c-0.3-2.3,2.2-5,4.5-7.1c0.1,0,0.2-0.1,0.4-0.1c0.7-0.2,1.5-0.3,2.3-0.3c1,0,2,0.1,3.2,0.4c0.2,0,0.3,0.1,0.5,0.1
	c1,0,1.9-0.7,2.1-1.7c0.2-0.9-0.2-1.8-1-2.2c-1.5-0.8-3.6-1.2-5.6-1.2c-0.9,0-1.8,0.1-2.6,0.3c-3.2-1.8-6.8-3.1-11-4.1l-0.8-0.2
	c-2.4-0.6-3.6-0.8-3.7-3.3c-0.1-2.9,1.8-5.8,3.7-8.6c1.2-1.7,2.3-3.4,2.9-5c2.4-5.9,4-12.5,4.9-19.8c0.4-3.7,0.7-7.6,0.8-12
	c0-0.9,0-1.8,0-2.8c0-2.4-0.1-4.9,0.5-7.2c0.4-1.5,0.9-2.7,1.7-3.5c0.8-0.9,2-1.5,3.6-2.1c3.8-1.4,7.7-2.3,11-3.1
	c3.5-0.8,7.2-1.4,10.8-1.8c0.9-0.1,1.6-0.1,2.2-0.1c2.4,0,3.7,0.7,6.6,2.5c1.2,0.7,1.9,1.7,2.2,3.1c1.1,5.2-4.1,13.4-5.7,15.9
	c-3.3,4.9-7.8,11.7-6,18.5c0.4,1.5,1.1,2.9,1.8,4.3c0.9,1.7,1.7,3.4,1.9,5.2c0.3,2.7-0.7,5.3-1.8,8c-0.9,2.3-1.9,4.6-2,7.1
	c-0.2,3.7,1.5,7.6,4.7,11c2.3,2.5,5.2,4.4,7.9,6.2c0.5,0.3,1,0.7,1.5,1c10.2,7,20.4,15.2,26,27.7c0.3,0.7,0.7,1.4,1,2.2
	c1.4,2.8,2.8,5.7,1.9,8.5c-1.1,3.3-3.9,5-6.5,6.2c-4.4,2-9.2,3.5-14.1,4.3C190.3,557.3,187.2,557.6,184.1,557.6z M302.1,582.1
	c-1.1,3.5-3.8,7.6-8.2,8.7c-0.8,0.2-1.6,0.3-2.5,0.3c-1.9,0-3.8-0.4-5.6-0.8c-2.7-0.6-5.9-1.3-9.1-1.7c-5.9-0.8-12.3-0.5-18,0.2
	c-1.8,0.2-3.6,0.4-5.3,0.4c-3.7,0-6.4-0.9-8.5-2.7c-0.8-0.7-1.5-1.5-2.2-2.2c-1-1.1-2.1-2.2-3.4-3.2c-1.8-1.4-4.1-2.3-6.6-2.7
	c-1.2-0.2-2.4-0.3-3.8-0.3c-1.9,0-3.9,0.2-5.7,0.3c-1.5,0.1-3,0.3-4.5,0.3c-0.4,0-0.7,0-1.1,0c-2,0-3.7-0.2-5.1-0.7
	c-2-0.6-3.5-1.9-5.1-3.3l-0.3-0.3c-2-1.7-4.6-3.2-7.2-3.5c-0.4,0-0.8-0.1-1.3-0.1c-0.8-0.1-1.6-0.1-2.4-0.3
	c-0.7-0.2-1.2-0.6-1.6-1.2c-0.6-1.2-0.6-3,0.2-4.4c1.5-2.8,4.3-3.8,7.3-4.8c1.1-0.4,2.3-0.8,3.4-1.3c1.3-0.6,2.6-1.4,3.8-2.2
	c1.5-1,2.9-1.9,4.5-2.5l0.3-0.1c0.7-0.3,1.4-0.5,2.1-0.5c0.4,0,0.8,0.1,1.2,0.4c0.4,0.3,0.5,0.9,0.7,1.7c0.2,1,0.5,2.3,1.9,2.8
	c0.1,0,0.3,0.1,0.4,0.1c0.9,0,2.8-0.7,5.7-1.8c1.7-0.6,3.4-1.3,4-1.4c1.5-0.2,2.9-0.3,4.4-0.3c6.6,0,12.5,2.5,16.5,6.9
	c0.6,0.7,1.2,1.4,1.9,2.2c2.6,3.2,5.4,6.6,9.5,6.6l0.3,0c1.8-0.1,3.4-0.8,4.9-1.5c0.5-0.2,0.9-0.4,1.4-0.6c2.3-1,4.8-1.5,7.3-1.5
	c1.7,0,3.4,0.2,5.1,0.7c1.2,0.3,2.1,0.5,2.9,0.5c2.6,0,3.4-1.7,4.1-3.4c0.5-1,1-2.2,2-3.2c0.8-0.8,1.7-1.2,2.5-1.2
	c2,0,4.2,2.3,6.5,6.7l0.1,0.3C302,572.6,304,576.4,302.1,582.1z M313.4,567.9c-0.2,0.1-0.5,0.1-0.7,0.1c-2.1,0-4.7-2.2-6.2-3.5
	l-0.2-0.2c-5.9-5.1-5.5-11.1-5.1-17.4c0.2-3.3,0.4-6.7-0.2-10.2c-0.3-1.4-0.8-2.9-1.4-4.2c-0.9-2.2-1.7-4.3-1-5.7
	c0.5-1,1.6-1.7,3.5-2.3c2.2-0.7,4.3-1.1,6.4-1.5c4.5-0.9,8.8-1.8,13.1-4.7c7.4-4.9,13.4-11.2,17.5-18.4c1.3-2.3,2.1-5.2,2.9-8.3
	c1.5-5.3,3-10.8,6.9-12.7c0.9-0.5,1.8-0.7,2.7-0.7c4.6,0,7.3,6.8,8.7,10.1c0.3,0.6,0.5,1.3,0.6,1.9c1.3,5.6-3.2,8.4-8,11.4
	c-1,0.6-1.9,1.2-2.8,1.8c-5.5,3.8-10.5,8.4-14.6,13.8c-3.8,4.9-6.8,10.3-8.9,16c-1.5,4-2.6,8.2-3.6,12.2c-0.8,3.2-1.6,6.5-2.7,9.6
	l-0.3,0.9C319,559.5,316.6,567,313.4,567.9z M368.9,528c-0.4,0.5-0.7,1.1-1.1,1.7c-1.1-2-2.6-3.5-4.6-4.6c-0.3-0.2-0.6-0.2-0.9-0.2
	c-0.8,0-1.6,0.5-1.9,1.3c-0.3,0.7-0.1,1.5,0.5,2c1.7,1.6,2.9,3.7,3.7,6.6c0.2,0.7,0.4,1.5,0.5,2.3l0.1,0.7c0,0.7-0.1,1.4-0.1,2
	c0,0.5,0,1-0.1,1.6c-0.1,1.3-0.2,2.7-0.9,3.8c-0.5,0.8-1.2,1.5-2.3,2.1c-1,0.5-2,0.8-3.1,1.2c-1.1,0.4-2.2,0.7-3.3,1.3
	c-1.2,0.6-1.9,1.5-2.6,2.2c-0.4,0.5-0.8,0.9-1.3,1.3c-1,0.9-2,1.3-2.8,1.3c-1,0-1.9-0.7-2.7-2c-1-1.6-1.8-3.2-2.3-5
	c-0.1-0.2-0.1-0.4-0.2-0.7c-0.5-1.7-1.2-4-2.8-4.9c-0.4-0.2-1.2-0.5-2-0.5c-0.8,0-1.2,0.3-1.5,0.6c-0.3,0.4-0.4,1.1-0.2,1.8
	c2.7,10.3,0.6,21.5-5.5,28.5c-1.9,2.2-4.8,3.5-7.8,3.5c-1.4,0-2.8-0.3-4-0.9c-1.5-0.7-2.9-1.8-3.9-3.1c2.9-3.2,5.3-7.1,7.3-12.1
	c1.1-2.6,1.8-5.4,2.6-8.4c2.1-7.7,4.3-15.7,11.4-19.4c2-1.1,4.3-1.5,6.7-2c1.1-0.2,2.2-0.4,3.3-0.7c2.6-0.7,7.2-2.4,8.6-6.6
	c0.4-1.3,0.5-2.6,0.5-3.9c0-1.4,0.1-2.7,0.5-3.8c0.9-2.3,2.6-3.5,4.9-3.5c3,0,6.8,2.2,8.4,5c1.7,2.8,2,5.5,0.9,7.8
	C370.5,525.5,369.7,526.7,368.9,528z M378.1,465.8c0.3-0.9,0.5-1.9,0.5-2.8c0.1,0,0.2,0,0.2,0c0.8-0.2,1.7-0.3,2.5-0.4
	c3.7-0.6,0.5,4.7,2.7,5c0.3,0,0.6-0.1,0.8-0.2c0.9-0.4,1.9-0.6,2.7-1c4.6-2.4,10-3.3,15.2-2.7c0.2,0-1.8,6-1.8,6.6
	c-0.2,1.7,1.9,0.9,2.8,0.8c4.6-0.3,9.3,0.2,13.9,0.5c1.9,0.1,3.7,0.1,5.5,0.6c0.6,0.2,1.4,0.1,1.5,0.9c0,0.3-0.1,0.7-0.2,1
	c-0.4,1.4-0.6,2.8-0.6,4.3c0,2.3,4.9,1.6,6.4,1.9c2.5,0.5,4.9,1,7.3,1.7c1.3,0.3,2.3,0.5,3.5,1.1c0.2,0.1,0.4,0.2,0.5,0.4
	c0.2,0.3-0.1,0.7-0.3,1c-0.8,1.3-1.5,2.6-1.9,4.1c-0.1,0.3-0.2,0.6-0.1,0.8c0.2,1.5,3.6,2.1,4.7,2.4c2.1,0.6,4.2,1.3,6.2,2.2
	c4,1.7,7.7,3.9,10.4,7.4c-3.7,1.9-7.5,3.7-11.2,5.6c-1.9,0.9-3.7,1.9-5.6,2.8c-0.5,0.3-1.6,0.6-1.8,1.2c-0.3,0.7,0.5,1.9,0.8,2.5
	c0.8,1.6,1,3-0.8,3.8c-1.3,0.6-2.9,0.6-4.3,0.7c-3.2,0.2-6.4-0.3-9.5-0.1c-2.7,0.2-1.6,2.8-2.6,4.5c-0.3,0.5-0.7,0.7-1.2,0.9
	c-0.9,0.3-1.8,0.3-2.8,0.2c-1.6-0.1-5.2-1.5-6.4-0.1c-0.7,0.9,0.6,2.9,1,3.8c0.2,0.3,0.3,0.7,0.3,1.1c0,0.9-1.2,1.4-1.9,1.5
	c-2.7,0.7-6,0-8.7-0.3c-3.3-0.5-6.5-1.1-9.7-2c-3-0.8-6.1-2.3-9.2-2.3c-0.3,0-0.7,0-0.9,0.3c-0.2,0.2-0.2,0.6-0.2,0.9
	c0.2,3.7-1.2,8.1-5.8,7.5c-2.4-0.3-4.7-1.1-7.1-1.6c-0.5-0.1-0.9-0.2-1.4-0.3c0.4-0.6,0.8-1.2,1.2-1.8c0.3-0.4,0.5-0.8,0.8-1.2
	c2.3-3.5,3-6.6,2.4-9.8c-0.7-3.8-3.2-6.9-5.6-9.9l-0.5-0.7c-0.3-0.4-0.7-0.8-1-1.3c-1-1.2-2-2.4-2.4-3.4c2,0,7.9,0.6,8.5,0.7
	c5.6,0.4,8.9,6.3,12.7,9.8c2.1,1.9,3.8,3.5,6.5,4.6c1.9,0.8,3.9,1.5,6,2c0.8,0.2,4,0.9,2.8-1.1c-0.6-1-3.9-2-5-2.6
	c-1.8-1-3.4-2.1-5.1-3.4c-2.1-1.6-4.4-3.4-5.9-5.5c-0.8-1.2-1.1-2.4,0.7-2.7c2.4-0.4,5.5,0.4,7.9,0.5c4,0.2,7.1,0.9,9.8,4
	c2.7,3.1,6.1,5.5,9.9,7.1c0.5,0.2,2,0,2.1-0.8c0-0.3-0.3-0.6-0.5-0.8c-1.7-1.3-10.8-8.3-4.3-9.2c3-0.4,6.2-0.6,9.1,0.2
	c1.5,0.4,2.5,1.3,3.9,1.9c1.6,0.7,3.3,1.4,5,1.9c0.6,0.2,1.1,0.3,1.7,0.3c1.4-0.1,1.8-1.3,0.6-2.1c-1.2-0.7-4.3-2-3.2-3.7
	c0.7-1,2.9-1.5,4-2c1.6-0.7,3.3-1.5,4.9-2.2c1-0.4,2-0.9,2.9-1.5c1.5-0.9,1.1-2.5-0.7-1.8c-5.1,1.9-10.4,3.3-15.8,4.1
	c-2.7,0.4-5.4,0.7-8.1,0.9c-1.1,0.1-2.6,0.4-3.5-0.3c-3.5-2.4,14.5-13.1,16.5-14.3c0.4-0.2,0.8-0.5,1-1c0.3-1-0.8-1-1.4-0.9
	c-5.9,1.8-11.4,4.8-16.1,8.8c-2.2,1.9-4,4.5-6.2,6.3c-2.2,1.7-5.2,1.6-7.7,1.5c-2.8-0.1-5.5-0.3-8.3-0.5c-2.2-0.2-4.4-1.2-2.4-3.6
	c1-1.2,2.7-2.1,3.9-3c1.6-1.2,3.2-2.4,4.8-3.7c2.4-1.9,4.9-3.6,7.3-5.4c2.5-1.7,5-3.4,7.6-5.1c0.3-0.2,0.5-0.3,0.7-0.6
	c0.5-0.9-0.4-1.3-1.1-1.3c-6.2,0.3-11,4.9-15.6,8.5c-3.8,2.9-7.7,5.9-11.5,8.8c-3.5,2.7-6.5,4.2-11,3.9c-0.4,0-3.1-0.1-5.3-0.3
	c0.5-0.5,1-1.2,1.2-2c0.3-1.1,0.2-2.3-0.4-3.3c-0.3-0.5-0.6-0.8-0.9-1.2c-0.2-0.2-0.3-0.4-0.5-0.6c-1-1.3-1.6-2.8-1.9-4.3
	c0.4-0.4,0.7-0.7,1.1-1.1c4.8-4.8,10.8-9.4,17.9-9.6c1.8-0.1,1.8-1.8,0.2-2.3c-0.6-0.2-1.1-0.1-1.7-0.1c-1.9,0.2-3.9,0.4-5.7,0.9
	c-1.6,0.4-2.7,1.1-4.2,1.7c-2.8,1.3-5.1,3-7.4,5c0.6-2.5,1.8-4.9,3.4-6.6c0.6-0.6,1.2-1.2,1.8-1.8
	C374,472.5,376.8,469.7,378.1,465.8z M367.4,433.2c2.4,1.5,5.2,3.2,5.6,6c0.2,1.7-0.3,3.4-0.7,5.1l-0.1,0.5
	c-0.6,2.1-1.2,4.3-1.1,6.5c0.1,2.4,1.1,4.5,2.1,6.5l0.1,0.1c0.8,1.6,1.5,3.3,1.2,5.2c-0.4,3.4-5.6,10.9-10,10.9
	c-0.3,0-0.5,0-0.8-0.1c-0.8-0.2-1.6-0.7-2.3-1.5c-1.4-1.7-1.9-4.2-1.5-7.6c0.1-0.7,0.2-1.5,0.3-2.2c0.3-2.1,0.7-4.3,0.4-6.4
	c-0.1-0.8-0.3-1.9-1.1-2.7c-0.8-0.8-1.8-1.1-2.8-1.3l-0.3-0.1c-6.2-1.7-11.3-7-12.7-13.3c-0.1-0.6-0.2-1.2-0.4-1.8
	c-0.5-2.9-1.1-6.1-3.8-7.6c-0.8-0.4-1.7-0.6-2.9-0.6c-1,0-2.1,0.1-3.1,0.3c-1,0.1-2,0.3-2.8,0.3c-1.7,0-2.9-0.5-3.2-2.7
	c-0.2-1.3,0.3-2.7,0.7-3.8c2.5-6,11.3-15.2,19-15.2c1.7,0,3.3,0.5,4.7,1.4c2.4,1.5,3.4,4.5,4.2,7.2c0.2,0.7,0.4,1.4,0.6,2.1
	c0.7,2.6,1.4,5.4,2.8,7.8C361.3,429.5,364.5,431.5,367.4,433.2z M410,444.9c2.8,1,4.6,1.1,7.5,1c0.5,0,1.4-0.1,2.2-0.3
	c1.5-0.3,2.7-1,0.7-2c-0.9-0.5-2.6-0.2-3.6-0.4c-1.8-0.3-6.5-1.3-4.9-4.1c1.3-2.2,3.7-2.1,6.1-2.1c1.4,0,2.6,0.1,3.8,0.3
	c3.4,0.6,6.6,2,9.4,4c2.9,2,7.3,6.4,8.3,9.8c1.2,4.3-3.5,5-6.4,5.5c-2.6,0.5-5.1,0.7-7.5,0.7c-6.2,0-11.3-1.5-15.2-4.6
	c-1.6-1.3-3.8-3.2-4.7-5.1C404.3,444.6,407.9,444.1,410,444.9z M474.5,400.2c-6.4,8.3-14.6,15-23,18.8c-3.7,1.7-7.5,2.5-10.9,2.5
	c-2.7,0-9.2-0.8-7.8-5.2c0.8-2.5,4.6-2.8,6.7-3.7c2.2-0.9,7.7-2.4,7.8-5.4c0-0.4-0.1-0.8-0.3-1c-0.4-0.4-1.1-0.3-1.7-0.2
	c-3.7,0.9-11.1,7.6-14.8,3.8c-2.5-2.6,1.4-6.6,3.1-8.6c6.1-7.5,15.2-12,24.9-12.3c0.3,0,0.6,0,0.9,0c2.7,0,5.5,0.4,8.2,0.8
	c3.6,0.5,9.1-0.4,10.5,3.7C479,395.6,475.7,398.5,474.5,400.2z"/>
</svg>
